<?xml version="1.0" encoding="utf-8"?>
<!-- Generator: Adobe Illustrator 26.2.1, SVG Export Plug-In . SVG Version: 6.00 Build 0)  -->
<svg version="1.1" id="Слой_1" xmlns="http://www.w3.org/2000/svg" xmlns:xlink="http://www.w3.org/1999/xlink" x="0px" y="0px"
	 viewBox="0 0 487.173 457.89" enable-background="new 0 0 487.173 457.89" xml:space="preserve">
<g>
	<defs>
		<rect id="SVGID_00000042013013175387951110000018269796809530536851_" x="76.795" y="61.971" width="333.496" height="333.496"/>
	</defs>
	<clipPath id="SVGID_00000064337350072944924640000008261374566220155812_">
		<use xlink:href="#SVGID_00000042013013175387951110000018269796809530536851_"  overflow="visible"/>
	</clipPath>
	<path clip-path="url(#SVGID_00000064337350072944924640000008261374566220155812_)" fill="#FFFFFF" d="M436.683,437.382
		c-4.199-10.057-10.736-22.493-16.046-31.787l-8.495-17.851c0-0.036,0-0.071,0-0.107c0.002-4.314,0.007-11.535-0.79-22.052
		c-1.471-19.343-18.277-19.021-18.441-19.023c-0.072,0.002-0.136,0.028-0.202,0.048c-0.943-4.743-1.943-8.894-2.911-11.339
		c-3.66-9.229-20.647-8.236-21.368-8.192c-0.321,0.021-0.579,0.226-0.699,0.502c-1.023-2.852-2.176-5.189-3.472-6.645
		c-7.133-8.005-21.107-2.025-23.149-1.09c-0.16-0.915-0.32-1.823-0.481-2.734c23.58-24.163,36.488-56.743,37.382-94.585
		c1.05-44.433-11.544-81.345-36.42-106.744c-25.305-25.836-62.154-39.481-106.604-39.481c-0.202,0-0.408,0-0.61,0.001
		c-35.106,0.099-68.356,13.796-93.625,38.568c-25.429,24.931-39.983,58.438-40.982,94.35
		c-1.063,38.208,13.188,74.881,40.128,103.264c2.06,2.17,4.183,4.262,6.354,6.291c-3.498,14.072-10.468,30.347-23.839,48.644
		c-7.231,9.896-7.304,32.765-6.704,45.516c0.878,18.635,4.14,39.632,8.515,54.796c2.187,7.58,5.622,16.945,9.565,18.511
		c0.1,0.04,0.204,0.059,0.306,0.059c0.33,0,44.616-14.673,45.07-14.607c0.041,0.006,0.081,0.009,0.121,0.009
		c0.406,0,0.76-0.298,0.82-0.711c0.845-5.81,1.603-11.562,2.28-17.218c0.405,5.168,3.171,9.629,7.24,12.308
		c2.516,1.857,5.604,2.982,8.958,3.024c6.664,0.085,15.122,0.193,24.398,0.311c-2.052,1.524-3.826,3.442-5.246,5.726
		c-3.231,5.195-4.265,11.818-2.514,16.107c1.073,2.621,23.209,2.909,28.166,2.311c0.083,0.03,0.168,0.055,0.259,0.055
		c0.014,0,0.028-0.001,0.043-0.002c0.088-0.005,0.167-0.032,0.245-0.059c0.768,0.209,3.047,1.046,5.665,2.01
		c10.167,3.738,31.321,11.519,46.943,13.653c3.918,0.536,9.255,0.755,15.347,0.755c26.284-0.001,66.573-4.059,67.071-4.109
		C379.413,505.816,436.86,437.805,436.683,437.382z"/>
	
		<g id="Слой4_00000067916981361483490950000001446112851735492753_" clip-path="url(#SVGID_00000064337350072944924640000008261374566220155812_)">
		<path fill-rule="evenodd" clip-rule="evenodd" fill="#FF6900" d="M234.377,77.132c81.882-0.229,145.128,46.911,142.801,145.375
			c-2.052,86.889-67.624,136.184-141.362,133.793c-71.663-2.318-137.445-67.029-135.219-147.056
			C102.659,135.111,162.565,77.334,234.377,77.132z M240.815,81.811c-18.593-0.869-62.165-8.077-109.866,56.288
			c-33.376,45.04-23.495,93.227-13.516,125.308c10.148,32.636,47.715,78.144,99.197,85.475
			c51.481,7.332,120.524-25.242,135.174-53.961c14.645-28.715,37.916-98.693-2.306-159.562
			C323.797,96.466,271.842,83.261,240.815,81.811z"/>
		<g>
			<g>
				<path d="M234.377,78.632c13.47-0.026,26.951,1.197,40.118,4.087c12.207,2.679,24.128,6.761,35.234,12.518
					c10.688,5.541,20.564,12.592,29.11,21.084c8.787,8.731,16.052,18.883,21.641,29.93c6.144,12.145,10.192,25.275,12.565,38.658
					c2.748,15.501,3.395,31.531,2.137,47.218c-1.213,15.124-4.59,30.108-10.414,44.136c-5.254,12.657-12.581,24.491-21.658,34.762
					c-8.81,9.969-19.207,18.455-30.693,25.162c-11.535,6.735-24.074,11.64-37.064,14.727c-13.518,3.212-27.518,4.469-41.396,3.81
					c-14.502-0.688-28.82-4.005-42.268-9.444c-13.55-5.481-26.241-13.197-37.463-22.551c-11.47-9.56-21.495-20.843-29.58-33.398
					c-8.225-12.774-14.429-26.806-18.222-41.522c-3.938-15.28-5.223-31.191-3.847-46.909c1.313-15.001,5.14-29.829,11.334-43.559
					c5.96-13.211,14.035-25.446,23.881-36.084c9.798-10.586,21.269-19.564,33.92-26.496c12.758-6.991,26.653-11.826,40.993-14.282
					C219.862,79.255,227.116,78.663,234.377,78.632c1.93-0.008,1.934-3.008,0-3c-15.13,0.064-30.238,2.642-44.496,7.718
					c-13.889,4.945-26.882,12.161-38.471,21.267c-11.559,9.084-21.608,20.062-29.697,32.335
					c-8.259,12.531-14.434,26.451-18.202,40.978c-3.989,15.378-5.312,31.463-3.954,47.289c1.357,15.825,5.383,31.321,11.818,45.837
					c6.209,14.007,14.669,26.99,24.855,38.428c10.013,11.244,21.747,20.993,34.662,28.736c12.739,7.638,26.693,13.342,41.202,16.565
					c14.264,3.168,28.982,3.789,43.509,2.403c13.806-1.317,27.441-4.477,40.322-9.64c12.603-5.053,24.41-11.925,34.915-20.538
					c10.595-8.687,19.736-19.124,26.986-30.749c7.736-12.405,13.283-26.138,16.654-40.351c3.77-15.896,4.81-32.33,4.023-48.62
					c-0.723-14.981-3.119-29.956-7.838-44.216c-4.121-12.454-10.004-24.35-17.759-34.947c-7.332-10.018-16.208-18.79-26.28-26.044
					c-10.154-7.313-21.438-12.976-33.23-17.129c-12.507-4.404-25.582-7.064-38.764-8.371c-6.73-0.667-13.492-0.965-20.254-0.951
					C232.446,75.636,232.443,78.636,234.377,78.632z"/>
			</g>
		</g>
		<g>
			<g>
				<path d="M237.257,100.106c13.036,0.096,26.087,1.46,38.716,4.773c10.855,2.848,21.326,7.14,30.828,13.14
					c8.796,5.554,16.626,12.552,23.125,20.676c6.478,8.098,11.567,17.323,15.27,26.997c4.009,10.475,6.507,21.514,7.764,32.649
					c1.456,12.893,1.584,26.107-0.245,38.967c-1.825,12.828-5.562,25.406-11.397,36.99c-5.439,10.798-12.615,20.666-21.255,29.125
					c-8.382,8.207-18.067,15.015-28.571,20.229c-10.575,5.248-21.964,8.817-33.613,10.704c-11.702,1.896-23.775,2.097-35.51,0.369
					c-11.435-1.684-22.613-5.133-32.958-10.297c-10.415-5.199-19.95-12.052-28.227-20.233c-8.69-8.588-15.926-18.554-21.604-29.364
					c-6.24-11.881-10.537-24.719-13.123-37.874c-2.61-13.278-3.57-26.895-2.067-40.368c1.348-12.086,4.688-24.002,9.95-34.971
					c5.087-10.604,11.917-20.323,20.193-28.681c8.321-8.403,18.025-15.356,28.599-20.64c11.087-5.54,23.094-9.164,35.352-10.94
					C224.697,100.456,230.983,100.074,237.257,100.106c1.931,0.01,1.933-2.99,0-3c-13.085-0.067-26.205,1.769-38.687,5.73
					c-11.736,3.723-22.907,9.281-32.85,16.554c-9.744,7.127-18.277,15.798-25.196,25.694c-7.001,10.013-12.256,21.241-15.562,32.999
					c-3.504,12.464-4.815,25.528-4.116,38.447c0.767,14.171,3.578,28.376,8.296,41.759c4.321,12.258,10.332,23.939,18.098,34.375
					c7.279,9.781,15.989,18.421,25.924,25.499c9.643,6.869,20.397,12.171,31.707,15.669c11.489,3.554,23.567,5.224,35.588,5.042
					c12.24-0.185,24.49-2.173,36.138-5.946c11.394-3.691,22.257-9.075,32.01-16.034c9.902-7.066,18.618-15.669,25.788-25.497
					c7.496-10.276,13.169-21.841,16.918-33.988c4.115-13.335,5.827-27.301,5.705-41.233c-0.106-12.086-1.37-24.212-4.202-35.973
					c-2.582-10.72-6.512-21.165-11.995-30.746c-5.248-9.172-11.943-17.535-19.859-24.543c-8.194-7.254-17.593-13.037-27.661-17.304
					c-11.424-4.841-23.533-7.748-35.83-9.251c-6.706-0.82-13.459-1.204-20.213-1.254
					C235.326,97.091,235.324,100.091,237.257,100.106z"/>
			</g>
		</g>
		<g>
			<g>
				<path d="M242.528,77.176c-1.36,5.988-2.154,12.451-1.584,18.577c0.159,1.711,0.519,2.832,0.508,4.423
					c-0.011,1.596-0.021,3.192-0.031,4.788c-0.08,12.895-0.143,25.791-0.156,38.687c-0.007,6.719-0.014,13.44,0.068,20.159
					c0.023,1.929,3.023,1.934,3,0c-0.157-12.944-0.07-25.892-0.016-38.836c0.025-6.041,0.056-12.082,0.093-18.123
					c0.015-2.57,0.231-5.228,0.05-7.794c-0.073-1.044-0.396-2.083-0.499-3.133c-0.115-1.169-0.164-2.344-0.17-3.518
					c-0.011-2.317,0.148-4.633,0.404-6.934c0.279-2.512,0.666-5.032,1.226-7.499C245.848,76.093,242.956,75.291,242.528,77.176
					L242.528,77.176z"/>
			</g>
		</g>
		<g>
			<g>
				<path d="M243.162,172.538c-2.68-0.397-2.075,4.051-2.1,5.653c-0.065,4.115-0.055,8.232-0.03,12.347
					c0.063,10.596,0.219,21.206,0.772,31.789c0.199,3.804,0.288,7.755,1.09,11.493c0.405,1.887,3.298,1.088,2.893-0.798
					c-0.294-1.371-0.33-1.946-0.472-3.404c-0.177-1.808-0.3-3.62-0.408-5.433c-0.284-4.792-0.445-9.591-0.572-14.389
					c-0.255-9.627-0.377-19.262-0.303-28.892c0.012-1.608,0.028-3.217,0.076-4.824c0.014-0.463,0.026-0.927,0.057-1.39
					c0.01-0.149,0.025-0.298,0.035-0.447c0.015-0.216-0.108,0.378-0.031,0.237c0.279-0.515-3.066,2.045-0.654,0.799
					c-0.385,0.05-0.771,0.101-1.156,0.151c0.002,0,0.003,0,0.005,0.001C244.253,175.711,245.068,172.82,243.162,172.538
					L243.162,172.538z"/>
			</g>
		</g>
		<g>
			<g>
				<path d="M348.122,123.314c-1.32-0.107-2.761,0.234-4.003,0.64c-3.302,1.08-6.182,3.214-8.474,5.795
					c-2.046,2.303-3.684,4.929-5.033,7.691c-0.355,0.728-0.197,1.622,0.538,2.052c0.66,0.386,1.695,0.193,2.052-0.538
					c1.892-3.872,4.491-7.769,7.976-10.187c0.615-0.427,1.257-0.816,1.923-1.159c0.276-0.142,0.557-0.273,0.84-0.401
					c0.262-0.118,0.041-0.018-0.012,0.004c0.075-0.031,0.15-0.062,0.226-0.091c0.147-0.055,0.293-0.112,0.441-0.164
					c0.488-0.173,0.985-0.319,1.489-0.434c0.197-0.045,0.396-0.085,0.595-0.12c0.102-0.018,0.207-0.029,0.308-0.049
					c0.211-0.043-0.402,0.034-0.049,0.008c0.392-0.028,0.787-0.079,1.181-0.047c0.809,0.066,1.5-0.736,1.5-1.5
					C349.622,123.947,348.933,123.379,348.122,123.314L348.122,123.314z"/>
			</g>
		</g>
		<g>
			<g>
				<path d="M356.511,207.085c0.208-0.236-0.305,0.169-0.078,0.043c0.069-0.039,0.134-0.091,0.207-0.122
					c0.12-0.052,0.235-0.116,0.354-0.17c-0.346,0.157-0.002,0.004,0.079-0.025c0.689-0.249,1.389-0.457,2.097-0.642
					c1.96-0.51,3.965-0.883,5.973-1.149c2.091-0.277,4.216-0.447,6.327-0.386c0.877,0.026,1.636,0.074,2.436,0.244
					c0.356,0.076,0.712,0.167,1.053,0.297c0.102,0.039,0.091,0.033-0.033-0.019c0.081,0.036,0.16,0.075,0.239,0.117
					c0.144,0.083,0.283,0.166,0.417,0.264c1.569,1.131,3.068-1.471,1.514-2.59c-1.471-1.06-3.564-1.227-5.314-1.302
					c-2.35-0.1-4.711,0.117-7.038,0.428c-2.201,0.294-4.399,0.677-6.547,1.249c-1.202,0.32-2.943,0.662-3.809,1.642
					C353.116,206.407,355.23,208.536,356.511,207.085L356.511,207.085z"/>
			</g>
		</g>
		<g>
			<g>
				<path d="M124.413,137.365c2.203-0.181,3.99,0.116,6.016,0.645c4.321,1.128,8.025,3.697,10.399,7.51
					c1.018,1.636,3.615,0.131,2.59-1.514c-3.767-6.051-10.374-9.394-17.407-9.655c-0.531-0.02-1.069-0.03-1.599,0.013
					C122.502,134.522,122.486,137.523,124.413,137.365L124.413,137.365z"/>
			</g>
		</g>
		<g>
			<g>
				<path d="M103.134,237.069c2.313-1.416,4.811-2.603,7.342-3.567c3.777-1.439,8.847-3.061,12.751-1.181
					c1.732,0.834,3.255-1.752,1.514-2.59c-4.589-2.209-10.036-0.973-14.594,0.704c-2.937,1.08-5.853,2.408-8.526,4.045
					C99.976,235.485,101.482,238.081,103.134,237.069L103.134,237.069z"/>
			</g>
		</g>
		<g>
			<g>
				<path d="M141.661,311.349c0.053-0.33,0.14-0.656,0.231-0.977c0.105-0.371,0.226-0.738,0.359-1.099
					c0.037-0.101,0.076-0.202,0.115-0.303c0.019-0.047,0.174-0.428,0.07-0.178c-0.104,0.25,0.065-0.146,0.086-0.194
					c0.058-0.13,0.118-0.259,0.18-0.387c0.257-0.535,0.544-1.056,0.858-1.559c0.162-0.26,0.332-0.516,0.509-0.767
					c0.092-0.13,0.187-0.259,0.282-0.387c0.037-0.05,0.176-0.22-0.01,0.013c0.065-0.081,0.129-0.162,0.195-0.242
					c1.012-1.229,2.08-2.17,3.246-2.919c1.848-1.187,3.71-1.847,5.909-2.276c0.796-0.155,1.251-1.107,1.048-1.845
					c-0.228-0.831-1.047-1.203-1.845-1.048c-3.799,0.742-7.407,2.542-10.022,5.437c-1.706,1.89-2.997,4.145-3.76,6.574
					c-0.139,0.443-0.271,0.898-0.345,1.358c-0.128,0.799,0.206,1.614,1.048,1.845C140.53,312.593,141.533,312.154,141.661,311.349
					L141.661,311.349z"/>
			</g>
		</g>
		<g>
			<g>
				<path d="M141.556,146.537c1.724,1.252,3.448,2.503,5.172,3.755c4.692,3.406,9.384,6.812,14.076,10.218
					c6.939,5.037,13.878,10.074,20.817,15.111c8.465,6.145,16.931,12.29,25.396,18.435c9.237,6.706,18.475,13.411,27.712,20.117
					c9.357,6.792,18.714,13.585,28.071,20.377c8.695,6.312,17.389,12.623,26.084,18.935c7.376,5.354,14.752,10.709,22.128,16.063
					c5.304,3.85,10.608,7.7,15.912,11.551c2.506,1.819,4.966,3.737,7.533,5.469c0.109,0.074,0.214,0.156,0.321,0.233
					c1.564,1.136,3.063-1.466,1.514-2.59c-1.724-1.252-3.448-2.503-5.172-3.755c-4.692-3.406-9.384-6.812-14.076-10.218
					c-6.939-5.037-13.878-10.074-20.817-15.111c-8.465-6.145-16.931-12.29-25.396-18.435c-9.237-6.706-18.475-13.411-27.712-20.117
					c-9.357-6.792-18.714-13.585-28.071-20.377c-8.695-6.312-17.389-12.623-26.084-18.935c-7.376-5.354-14.752-10.709-22.128-16.063
					c-5.304-3.85-10.608-7.7-15.912-11.551c-2.506-1.819-4.966-3.737-7.533-5.469c-0.109-0.074-0.214-0.156-0.321-0.233
					C141.506,142.811,140.007,145.413,141.556,146.537L141.556,146.537z"/>
			</g>
		</g>
		<g>
			<g>
				<path d="M354.323,204.479c-1.746,0.194-3.491,0.387-5.237,0.581c-4.75,0.527-9.501,1.054-14.251,1.582
					c-7.026,0.78-14.053,1.559-21.079,2.339c-8.573,0.951-17.146,1.903-25.719,2.854c-9.39,1.042-18.781,2.084-28.171,3.126
					c-9.479,1.052-18.958,2.104-28.436,3.156c-8.838,0.981-17.676,1.962-26.514,2.942c-7.468,0.829-14.936,1.658-22.404,2.486
					c-5.369,0.596-10.738,1.192-16.107,1.788c-2.541,0.282-5.083,0.552-7.623,0.846c-0.108,0.012-0.216,0.024-0.324,0.036
					c-1.898,0.211-1.919,3.213,0,3c1.746-0.194,3.491-0.387,5.237-0.581c4.75-0.527,9.501-1.054,14.251-1.582
					c7.026-0.78,14.053-1.559,21.079-2.339c8.573-0.951,17.146-1.903,25.719-2.854c9.39-1.042,18.781-2.084,28.171-3.126
					c9.479-1.052,18.958-2.104,28.436-3.156c8.838-0.981,17.676-1.962,26.514-2.942c7.468-0.829,14.936-1.658,22.404-2.486
					c5.369-0.596,10.738-1.192,16.107-1.788c2.541-0.282,5.083-0.552,7.623-0.846c0.108-0.012,0.216-0.024,0.324-0.036
					C356.221,207.269,356.242,204.266,354.323,204.479L354.323,204.479z"/>
			</g>
		</g>
		<g>
			<g>
				<path d="M146.844,227.504c-6.316,0.701-12.633,1.403-18.949,2.104c-0.909,0.101-1.818,0.202-2.728,0.303
					c-0.812,0.09-1.491,0.625-1.5,1.5c-0.008,0.742,0.695,1.589,1.5,1.5c6.316-0.701,12.633-1.403,18.949-2.104
					c0.909-0.101,1.818-0.202,2.728-0.303c0.812-0.09,1.491-0.625,1.5-1.5C148.351,228.262,147.648,227.415,146.844,227.504
					L146.844,227.504z"/>
			</g>
		</g>
		<g>
			<g>
				<path d="M154.592,296.772c0.132-0.018,0.264-0.035,0.397-0.053c0.432,0.248,0.863,0.495,1.295,0.743c0,0,0,0,0,0
					c0.05,0.385,0.101,0.771,0.151,1.156c-0.133,0.583-0.597,0.822-0.039,0.323c0.321-0.287,0.631-0.587,0.948-0.878
					c1.178-1.084,2.361-2.161,3.545-3.238c4.302-3.916,8.615-7.821,12.928-11.726c6.347-5.746,12.698-11.487,19.051-17.227
					c7.733-6.988,15.469-13.973,23.205-20.957c8.432-7.612,16.866-15.222,25.3-22.832c8.537-7.703,17.076-15.404,25.614-23.105
					c7.957-7.176,15.915-14.352,23.873-21.528c6.7-6.041,13.4-12.082,20.101-18.122c4.85-4.372,9.7-8.744,14.551-13.116
					c2.275-2.051,4.616-4.048,6.835-6.16c0.096-0.091,0.197-0.177,0.295-0.266c1.437-1.295-0.69-3.411-2.121-2.121
					c-1.604,1.446-3.208,2.892-4.813,4.337c-4.361,3.931-8.722,7.862-13.083,11.793c-6.441,5.806-12.882,11.613-19.322,17.419
					c-7.814,7.045-15.628,14.091-23.441,21.137c-8.567,7.726-17.134,15.453-25.701,23.181c-8.588,7.748-17.176,15.496-25.762,23.246
					c-7.995,7.216-15.989,14.434-23.98,21.653c-6.694,6.047-13.386,12.095-20.074,18.147c-4.716,4.267-9.431,8.535-14.137,12.813
					c-2.044,1.858-4.273,3.634-6.167,5.649c-0.959,1.02-0.328,3.216,1.35,2.623C157.197,299.026,156.419,296.127,154.592,296.772
					L154.592,296.772z"/>
			</g>
		</g>
		<g>
			<g>
				<path d="M336.864,287.412c-0.37,0.167,0.189-0.047,0.336-0.085c0.111-0.029,0.226-0.047,0.34-0.066
					c-0.342,0.059,0.106-0.005,0.218-0.011c0.526-0.031,1.283,0.014,1.655,0.064c1.257,0.169,2.881,0.654,4.191,1.197
					c2.831,1.174,5.746,3.055,7.516,5.626c0.991,1.44,1.562,2.967,1.553,4.671c-0.01,1.931,2.99,1.933,3,0
					c0.02-3.937-2.305-7.355-5.297-9.732c-2.898-2.303-6.451-4.075-10.133-4.65c-1.66-0.259-3.334-0.31-4.893,0.395
					c-0.738,0.334-0.917,1.405-0.538,2.052C335.256,287.633,336.123,287.747,336.864,287.412L336.864,287.412z"/>
			</g>
		</g>
		<g transform="matrix(0.879057,0,0,0.876305,103.899,88.2191)">
			<g>
				
					<ellipse transform="matrix(0.0541 -0.9985 0.9985 0.0541 -4.6834 148.1966)" fill-rule="evenodd" clip-rule="evenodd" fill="#FF6900" cx="75.88" cy="76.57" rx="17.676" ry="17.555"/>
				<g>
					<path d="M76.968,58.14c7.565,0.486,14.209,5.732,16.389,13.035c2.199,7.364-0.415,15.607-6.586,20.218
						c-6.191,4.626-14.745,4.798-21.137,0.475c-6.34-4.288-9.327-12.416-7.461-19.823C60.323,63.505,68.251,57.752,76.968,58.14
						c2.196,0.098,2.191-3.326,0-3.423C67.94,54.315,59.46,59.664,55.94,68.022c-3.543,8.412-1.439,18.502,5.294,24.691
						c6.736,6.191,16.854,7.488,24.906,3.129c8.058-4.363,12.47-13.543,11.161-22.579C95.822,63.043,87.14,55.37,76.968,54.717
						C74.775,54.576,74.783,58,76.968,58.14z"/>
				</g>
			</g>
		</g>
		<g transform="matrix(0.849499,0,0,0.838251,199.895,114.381)">
			<g>
				
					<ellipse transform="matrix(0.0541 -0.9985 0.9985 0.0541 50.0683 54.2546)" fill-rule="evenodd" clip-rule="evenodd" fill="#FF6900" cx="53.671" cy="0.7" rx="18.696" ry="18.72"/>
				<g>
					<path d="M54.862-19.781c8.37,0.538,15.788,6.352,18.214,14.529c2.436,8.212-0.509,17.403-7.373,22.475
						c-6.92,5.114-16.4,5.27-23.489,0.406c-7.002-4.805-10.289-13.859-8.158-22.126C36.495-13.958,45.317-20.216,54.862-19.781
						c2.272,0.104,2.267-3.476,0-3.579c-9.882-0.45-19.236,5.411-23.103,14.67c-3.883,9.296-1.518,20.421,5.89,27.204
						c7.394,6.77,18.406,8.18,27.22,3.451c8.845-4.745,13.755-14.857,12.33-24.844c-1.616-11.323-11.204-19.765-22.337-20.48
						C52.592-23.506,52.601-19.927,54.862-19.781z"/>
				</g>
			</g>
		</g>
		<g transform="matrix(0.957963,0,0,1.00678,48.069,-19.0435)">
			<g>
				
					<ellipse transform="matrix(0.0541 -0.9985 0.9985 0.0541 32.3407 412.7592)" fill-rule="evenodd" clip-rule="evenodd" fill="#FF6900" cx="234.035" cy="189.309" rx="17.932" ry="17.99"/>
				<g>
					<path d="M235.047,173.014c7.147,0.433,13.463,5.105,15.498,11.671c2.024,6.529-0.526,13.811-6.344,17.807
						c-5.881,4.039-13.9,4.145-19.904,0.28c-5.918-3.809-8.722-10.992-6.929-17.558
						C219.433,177.653,226.928,172.669,235.047,173.014c2.015,0.086,2.01-2.894,0-2.98c-8.4-0.357-16.395,4.291-19.71,11.68
						c-3.337,7.438-1.371,16.336,4.928,21.799c6.322,5.483,15.785,6.636,23.351,2.828c7.53-3.789,11.74-11.87,10.534-19.858
						c-1.374-9.103-9.575-15.871-19.103-16.449C233.035,169.912,233.043,172.892,235.047,173.014z"/>
				</g>
			</g>
		</g>
		<g transform="matrix(1.11582,0,0,1.11192,-209.929,-123.498)">
			<g>
				
					<ellipse transform="matrix(0.0541 -0.9985 0.9985 0.0541 202.1792 673.2722)" fill-rule="evenodd" clip-rule="evenodd" fill="#FF6900" cx="456.459" cy="229.921" rx="18.815" ry="18.948"/>
				<g>
					<path d="M457.371,214.374c6.462,0.41,12.206,4.835,14.073,11.096c1.855,6.22-0.436,13.162-5.686,16.986
						c-5.313,3.87-12.582,4.018-18.048,0.37c-5.423-3.618-8.034-10.499-6.392-16.818C443.196,218.78,450.02,214.041,457.371,214.374
						c1.73,0.078,1.726-2.62,0-2.698c-7.536-0.341-14.743,4.028-17.741,11.017c-3.034,7.075-1.238,15.554,4.484,20.719
						c5.715,5.159,14.211,6.229,21.011,2.614c6.754-3.59,10.536-11.215,9.452-18.778c-1.237-8.633-8.649-15.03-17.206-15.573
						C455.643,211.566,455.65,214.265,457.371,214.374z"/>
				</g>
			</g>
		</g>
		<g transform="matrix(1,0,0,1,4.90054,20.7184)">
			<g>
				
					<ellipse transform="matrix(0.0541 -0.9985 0.9985 0.0541 118.1387 512.8651)" fill-rule="evenodd" clip-rule="evenodd" fill="#FF6900" cx="329.772" cy="194.076" rx="17.14" ry="17.886"/>
				<g>
					<path d="M330.699,178.461c6.624,0.422,12.754,4.739,14.764,11.175c1.969,6.306-0.496,13.269-5.905,17.037
						c-5.641,3.93-13.273,4.027-19.031,0.277c-5.5-3.582-8.337-10.4-6.64-16.792C315.87,182.684,323.172,178.125,330.699,178.461
						c1.93,0.086,1.926-2.914,0-3c-7.881-0.352-15.626,4.006-18.802,11.347c-3.134,7.244-1.111,15.826,4.832,21
						c6.09,5.303,15.014,6.384,22.212,2.73c7.031-3.569,11.145-11.3,9.997-19.114c-1.326-9.029-9.37-15.398-18.239-15.963
						C328.771,175.338,328.779,178.339,330.699,178.461z"/>
				</g>
			</g>
		</g>
		<g transform="matrix(1,0,0,1,-25.3653,-24.3627)">
			<g>
				
					<ellipse transform="matrix(0.0541 -0.9985 0.9985 0.0541 66.6882 537.0611)" fill-rule="evenodd" clip-rule="evenodd" fill="#FF6900" cx="316.818" cy="233.331" rx="17.157" ry="17.633"/>
				<g>
					<path d="M317.746,217.699c6.584,0.42,12.568,4.794,14.526,11.174c1.928,6.284-0.469,13.254-5.827,17.06
						c-5.539,3.933-13.079,4.041-18.742,0.294c-5.457-3.611-8.188-10.449-6.522-16.804
						C303.121,222.019,310.251,217.365,317.746,217.699c1.93,0.086,1.926-2.914,0-3c-7.844-0.349-15.443,4.083-18.565,11.371
						c-3.094,7.224-1.137,15.811,4.752,21.015c5.989,5.292,14.82,6.38,21.923,2.715c6.988-3.605,11.006-11.362,9.88-19.138
						c-1.296-8.954-9.15-15.399-17.991-15.963C315.818,214.576,315.826,217.577,317.746,217.699z"/>
				</g>
			</g>
		</g>
		<g transform="matrix(1,0,0,1,-16.8861,-17.1833)">
			<g>
				
					<ellipse transform="matrix(0.0541 -0.9985 0.9985 0.0541 51.9519 605.1245)" fill-rule="evenodd" clip-rule="evenodd" fill="#FF6900" cx="345.375" cy="275.141" rx="17.466" ry="17.102"/>
				<g>
					<path d="M346.32,259.201c6.531,0.421,12.152,5.017,13.994,11.283c1.868,6.353-0.364,13.485-5.678,17.495
						c-5.292,3.993-12.625,4.12-18.074,0.367c-5.45-3.753-7.912-10.822-6.291-17.185
						C332.125,263.885,338.827,258.871,346.32,259.201c1.93,0.085,1.926-2.915,0-3c-7.832-0.344-15.063,4.379-18.07,11.589
						c-3.031,7.266-1.225,16.015,4.578,21.379c5.779,5.342,14.492,6.448,21.396,2.638c6.88-3.797,10.627-11.703,9.551-19.431
						c-1.23-8.83-8.587-15.604-17.454-16.175C344.392,256.076,344.4,259.077,346.32,259.201z"/>
				</g>
			</g>
		</g>
		<g transform="matrix(1,0,0,1,-13.5512,-20.3453)">
			<g>
				
					<ellipse transform="matrix(0.0541 -0.9985 0.9985 0.0541 5.9809 438.2649)" fill-rule="evenodd" clip-rule="evenodd" fill="#FF6900" cx="234.317" cy="215.976" rx="18.528" ry="18.077"/>
				<g>
					<path d="M235.32,198.975c6.968,0.445,12.935,5.378,14.88,12.058c1.975,6.781-0.414,14.402-6.094,18.668
						c-5.598,4.204-13.33,4.353-19.097,0.4c-5.826-3.993-8.457-11.537-6.747-18.329C220.213,204.021,227.326,198.619,235.32,198.975
						c1.93,0.086,1.926-2.914,0-3c-8.271-0.368-15.876,4.655-19.035,12.264c-3.188,7.679-1.268,16.933,4.866,22.591
						c6.057,5.586,15.17,6.756,22.408,2.78c7.287-4.003,11.258-12.372,10.126-20.548c-1.288-9.301-9.008-16.489-18.365-17.087
						C233.392,195.851,233.399,198.852,235.32,198.975z"/>
				</g>
			</g>
		</g>
		<g transform="matrix(1,0,0,1,-9.64092,-16.4427)">
			<g>
				
					<ellipse transform="matrix(0.0541 -0.9985 0.9985 0.0541 -68.8937 369.4495)" fill-rule="evenodd" clip-rule="evenodd" fill="#FF6900" cx="160.557" cy="221.089" rx="18.064" ry="18.015"/>
				<g>
					<path d="M161.535,204.551c6.879,0.439,12.927,5.201,14.866,11.839c1.934,6.62-0.496,14-6.094,18.074
						c-5.634,4.101-13.34,4.207-19.097,0.291c-5.695-3.874-8.361-11.172-6.643-17.816
						C146.544,209.297,153.711,204.202,161.535,204.551c1.93,0.086,1.926-2.914,0-3c-8.085-0.361-15.734,4.379-18.911,11.845
						c-3.203,7.528-1.329,16.547,4.721,22.093c6.055,5.551,15.141,6.722,22.398,2.86c7.241-3.854,11.264-12.052,10.111-20.13
						c-1.313-9.194-9.145-16.084-18.319-16.669C159.607,201.428,159.614,204.428,161.535,204.551z"/>
				</g>
			</g>
		</g>
		<g transform="matrix(1,0,0,1,-29.603,-23.8032)">
			<g>
				
					<ellipse transform="matrix(0.0541 -0.9985 0.9985 0.0541 59.3243 414.9812)" fill-rule="evenodd" clip-rule="evenodd" fill="#FF6900" cx="248.699" cy="176.178" rx="18.733" ry="18.312"/>
				<g>
					<path d="M249.713,158.972c7.021,0.447,13.067,5.388,15.067,12.114c2.047,6.884-0.364,14.633-6.136,18.971
						c-5.693,4.279-13.57,4.422-19.426,0.385c-5.914-4.076-8.56-11.749-6.771-18.647
						C234.468,164.001,241.67,158.613,249.713,158.972c1.93,0.086,1.926-2.914,0-3c-8.388-0.374-16.109,4.725-19.291,12.454
						c-3.167,7.692-1.261,16.919,4.819,22.63c6.137,5.765,15.471,6.984,22.858,2.913c7.326-4.037,11.337-12.461,10.206-20.692
						c-1.295-9.424-9.113-16.701-18.592-17.306C247.785,155.849,247.792,158.85,249.713,158.972z"/>
				</g>
			</g>
		</g>
		<g transform="matrix(1,0,0,1,-21.5139,13.4727)">
			<g>
				
					<ellipse transform="matrix(0.0541 -0.9985 0.9985 0.0541 -77.7498 411.5085)" fill-rule="evenodd" clip-rule="evenodd" fill="#FF6900" cx="178.329" cy="246.792" rx="18.025" ry="17.572"/>
				<g>
					<path d="M179.304,230.294c6.766,0.434,12.552,5.234,14.431,11.723c1.907,6.585-0.424,13.992-5.95,18.12
						c-5.446,4.068-12.946,4.191-18.531,0.33c-5.645-3.903-8.162-11.243-6.472-17.834
						C164.701,235.151,171.58,229.952,179.304,230.294c1.93,0.085,1.926-2.915,0-3c-8.075-0.357-15.474,4.554-18.551,11.98
						c-3.085,7.445-1.236,16.396,4.661,21.918c5.907,5.532,14.879,6.688,21.972,2.762c7.103-3.932,10.926-12.114,9.799-20.087
						c-1.276-9.03-8.802-15.991-17.881-16.573C177.377,227.17,177.384,230.171,179.304,230.294z"/>
				</g>
			</g>
		</g>
		<g transform="matrix(1,0,0,1,-25.8798,-61.4664)">
			<g>
				
					<ellipse transform="matrix(0.0541 -0.9985 0.9985 0.0541 -90.2463 483.7397)" fill-rule="evenodd" clip-rule="evenodd" fill="#FF6900" cx="210.206" cy="289.504" rx="17.997" ry="17.303"/>
				<g>
					<path d="M211.18,273.033c6.682,0.43,12.313,5.237,14.159,11.621c1.893,6.545-0.343,13.927-5.777,18.114
						c-5.324,4.102-12.743,4.252-18.248,0.424c-5.576-3.877-8.027-11.183-6.422-17.702
						C196.726,278.037,203.458,272.694,211.18,273.033c1.93,0.085,1.926-2.915,0-3c-7.99-0.352-15.236,4.582-18.269,11.907
						c-3.077,7.43-1.301,16.415,4.567,21.966c5.794,5.481,14.621,6.651,21.603,2.751c7.085-3.958,10.835-12.173,9.713-20.129
						c-1.258-8.922-8.601-15.915-17.613-16.496C209.252,269.909,209.26,272.91,211.18,273.033z"/>
				</g>
			</g>
		</g>
		<g transform="matrix(1,0,0,1,-31.5646,-31.2928)">
			<g>
				
					<ellipse transform="matrix(0.0541 -0.9985 0.9985 0.0541 133.5144 541.2634)" fill-rule="evenodd" clip-rule="evenodd" fill="#FF6900" cx="352.449" cy="200.16" rx="17.427" ry="18.058"/>
				<g>
					<path d="M353.392,184.258c6.711,0.426,12.886,4.838,14.909,11.351c2.006,6.455-0.511,13.603-6.067,17.444
						c-5.666,3.917-13.311,4.019-19.081,0.253c-5.638-3.679-8.49-10.671-6.733-17.212
						C338.444,188.563,345.782,183.917,353.392,184.258c1.93,0.087,1.926-2.914,0-3c-7.977-0.358-15.756,4.092-18.964,11.506
						c-3.175,7.335-1.16,16.037,4.825,21.316c6.153,5.427,15.254,6.521,22.534,2.745c7.097-3.681,11.169-11.541,9.989-19.45
						c-1.356-9.089-9.439-15.548-18.384-16.117C351.464,181.136,351.471,184.136,353.392,184.258z"/>
				</g>
			</g>
		</g>
		<g transform="matrix(0.990236,0.0335017,-0.0338689,1.00109,55.5032,-60.7579)">
			<g>
				<path fill-rule="evenodd" clip-rule="evenodd" fill="#FFFFFF" d="M162.174,522.682c-8.368,0.175-15.385-6.218-15.889-14.486
					c-2.732-44.796-10.894-178.64-13.675-224.255c-0.247-4.089,1.158-8.104,3.907-11.17c2.749-3.061,6.62-4.913,10.751-5.151
					c25.773-1.482,76.966-4.418,102.88-5.905c4.171-0.239,8.262,1.188,11.362,3.959c3.096,2.774,4.938,6.662,5.116,10.79
					c1.947,46.229,7.667,181.778,9.621,228.093c0.177,4.14-1.342,8.177-4.21,11.197c-2.868,3.023-6.843,4.776-11.033,4.861
					C235.753,521.145,186.835,522.168,162.174,522.682z"/>
				<g>
					<path d="M162.123,521.185c-6.835,0.065-12.914-4.742-14.14-11.448c-0.362-1.982-0.337-4.081-0.459-6.09
						c-0.121-1.988-0.242-3.976-0.364-5.964c-0.598-9.812-1.197-19.625-1.795-29.437c-0.737-12.085-1.474-24.169-2.211-36.254
						c-0.799-13.099-1.598-26.198-2.396-39.297c-0.797-13.067-1.594-26.133-2.39-39.2c-0.718-11.767-1.435-23.535-2.153-35.302
						c-0.574-9.41-1.148-18.821-1.721-28.231c-0.111-1.817-0.222-3.634-0.332-5.45c-0.235-3.857,0.727-7.585,3.322-10.558
						c2.619-3.001,6.265-4.623,10.233-4.859c2.744-0.163,5.489-0.316,8.233-0.473c14.056-0.808,28.112-1.614,42.168-2.421
						c14.105-0.809,28.21-1.618,42.314-2.427c2.854-0.164,5.707-0.327,8.561-0.491c3.805-0.218,7.41,0.361,10.526,2.696
						c3.215,2.409,5.285,6.143,5.572,10.125c0.136,1.889,0.166,3.792,0.245,5.684c0.39,9.251,0.78,18.502,1.17,27.754
						c0.495,11.739,0.99,23.478,1.485,35.217c0.548,13.003,1.097,26.005,1.645,39.008c0.559,13.25,1.118,26.501,1.677,39.751
						c0.517,12.261,1.035,24.521,1.552,36.782c0.432,10.249,0.865,20.497,1.297,30.746c0.168,3.979,0.336,7.959,0.504,11.938
						c0.142,3.373-0.16,6.48-1.961,9.445c-2.048,3.372-5.568,5.746-9.469,6.471c-2.922,0.543-6.12,0.301-9.087,0.363
						c-3.172,0.066-6.343,0.133-9.515,0.199c-7.113,0.149-14.227,0.298-21.34,0.446c-14.639,0.306-29.277,0.612-43.916,0.918
						C173.626,520.945,167.874,521.065,162.123,521.185c-1.949,0.041-1.847,3.034,0.102,2.993
						c13.385-0.279,26.771-0.559,40.156-0.838c14.86-0.31,29.72-0.621,44.581-0.932c3.137-0.066,6.273-0.131,9.41-0.197
						c3.345-0.07,6.748,0.075,9.952-1.042c3.836-1.337,7.103-4.019,9.15-7.493c1.865-3.166,2.394-6.635,2.242-10.244
						c-0.375-8.891-0.75-17.781-1.125-26.672c-0.491-11.625-0.981-23.25-1.471-34.875c-0.556-13.166-1.111-26.333-1.666-39.499
						c-0.57-13.515-1.14-27.03-1.71-40.544c-0.537-12.721-1.073-25.441-1.61-38.162c-0.448-10.621-0.896-21.242-1.343-31.864
						c-0.175-4.156-0.35-8.312-0.525-12.468c-0.119-2.827-0.193-5.623-1.252-8.3c-1.479-3.74-4.239-6.892-7.814-8.812
						c-3.429-1.841-7.039-2.134-10.855-1.915c-2.936,0.168-5.872,0.337-8.808,0.505c-6.859,0.393-13.718,0.787-20.577,1.18
						c-15.114,0.867-30.228,1.734-45.342,2.602c-6.635,0.381-13.271,0.762-19.906,1.143c-3.019,0.173-6.165,0.128-9.132,0.732
						c-3.925,0.799-7.56,3.086-9.975,6.246c-2.474,3.239-3.707,7.206-3.504,11.262c0.093,1.857,0.226,3.712,0.339,5.567
						c0.268,4.397,0.536,8.794,0.804,13.191c0.667,10.941,1.334,21.882,2.001,32.823c0.782,12.827,1.564,25.654,2.347,38.48
						c0.822,13.486,1.645,26.973,2.467,40.459c0.791,12.972,1.582,25.944,2.373,38.915c0.678,11.117,1.356,22.234,2.034,33.35
						c0.273,4.484,0.547,8.967,0.82,13.451c0.279,4.568,0.012,9.636,1.927,13.877c2.815,6.234,9.14,10.137,16.015,10.072
						C164.175,524.16,164.071,521.167,162.123,521.185z"/>
				</g>
			</g>
		</g>
		<g>
			<defs>
				<path id="SVGID_00000120516741815448055860000017774495544012606654_" d="M204.196,460.931
					c-6.297,0.021-11.459-4.997-11.612-11.296c-0.972-40.062-4.238-174.782-5.225-215.403c-0.075-3.092,1.09-6.083,3.232-8.308
					c2.146-2.228,5.088-3.504,8.179-3.546c22.028-0.305,69.429-0.961,91.437-1.268c3.088-0.041,6.063,1.151,8.266,3.312
					s3.451,5.114,3.468,8.197c0.22,40.664,0.956,175.814,1.174,216.356c0.018,3.072-1.188,6.026-3.351,8.209
					c-2.166,2.182-5.108,3.418-8.179,3.427C270.306,460.689,225.278,460.853,204.196,460.931z"/>
			</defs>
			<clipPath id="SVGID_00000008832065709020318040000000464562358103237796_">
				<use xlink:href="#SVGID_00000120516741815448055860000017774495544012606654_"  overflow="visible"/>
			</clipPath>
			<g clip-path="url(#SVGID_00000008832065709020318040000000464562358103237796_)">
				<g>
					<g>
						<path d="M185.647,319.05c3.941-0.39,7.882-0.78,11.823-1.169c9.464-0.936,18.928-1.872,28.391-2.808
							c11.448-1.132,22.896-2.265,34.344-3.397c9.893-0.979,19.787-1.957,29.68-2.936c4.799-0.475,9.607-0.897,14.401-1.424
							c0.066-0.007,0.132-0.013,0.197-0.02c1.904-0.188,1.923-3.19,0-3c-3.941,0.39-7.882,0.78-11.823,1.169
							c-9.464,0.936-18.928,1.872-28.391,2.808c-11.448,1.132-22.896,2.265-34.344,3.397c-9.893,0.979-19.787,1.957-29.68,2.936
							c-4.799,0.475-9.607,0.897-14.401,1.424c-0.066,0.007-0.132,0.013-0.197,0.02C183.743,316.239,183.724,319.241,185.647,319.05
							L185.647,319.05z"/>
					</g>
				</g>
				<path fill-rule="evenodd" clip-rule="evenodd" fill="#FF6900" d="M189.131,349.523c0,0,11.455,21.692,29.137,27.126
					c17.682,5.438,26.172,5.619,33.308,4.233c7.135-1.382,37.745-5.266,53.062-35.95l0.189,6.792c0,0-19.677,31.463-53.595,34.077
					c-33.922,2.614-52.38-15.362-63.922-32.125C186.277,352.181,189.131,349.523,189.131,349.523z"/>
				<path fill-rule="evenodd" clip-rule="evenodd" fill="#FF6900" d="M186.797,270.986l-0.368,6.499c0,0,5.3-16.525,17.865-24.936
					c12.569-8.415,24.156-12.981,32.755-13.005c16.316-0.05,43.954,1.326,57.114,17.4c13.16,16.077,9.207,20.331,9.207,20.331
					s1.344-9.388,1.398-9.444c0.054-0.06-5.853-11.716-13.782-17.845c-7.929-6.129-26.75-16.971-56.256-13.466
					c-12.147,1.44-27.227,7.703-35.348,15.838C191.261,260.488,186.797,270.986,186.797,270.986z"/>
				<g transform="matrix(0.996645,-0.0834533,0.0842582,1.00626,-106.809,74.8043)">
					<g>
						<g>
							<path d="M274.349,224.439c3.088-9.409,9.068-17.447,17.148-23.25c8.008-5.751,17.607-9.094,27.324-10.6
								c10.106-1.567,20.559-1.186,30.546,0.989c9.551,2.08,18.875,5.863,26.729,11.691c7.201,5.343,13.121,12.614,15.785,21.216
								c0.338,1.091,0.624,2.196,0.868,3.312c0.407,1.863,3.359,1.328,2.949-0.548c-2.067-9.461-7.489-17.663-14.819-23.97
								c-7.654-6.585-17.137-11.007-26.876-13.613c-10.343-2.768-21.187-3.627-31.842-2.505c-10.297,1.084-20.586,4.12-29.385,9.613
								c-8.807,5.499-15.845,13.338-19.854,22.898c-0.515,1.227-0.974,2.476-1.389,3.74
								C270.937,225.23,273.751,226.259,274.349,224.439L274.349,224.439z"/>
						</g>
					</g>
				</g>
				<g transform="matrix(0.956731,-0.0601387,0.0699034,1.11208,-32.2096,-56.2736)">
					<g>
						<g>
							<path d="M207.702,324.407c3.115-9.569,8.864-18.442,17.625-25.023c7.678-5.768,17.186-9.443,27.186-10.998
								c9.911-1.542,20.249-1.045,29.95,1.254c9.529,2.258,18.65,6.238,26.004,11.967c7.295,5.683,12.778,12.992,15.205,21.233
								c0.322,1.093,0.59,2.197,0.814,3.308c0.344,1.706,3.408,1.158,3.064-0.551c-1.795-8.908-6.817-17.134-14.13-23.608
								c-7.243-6.411-16.421-11.096-26.249-13.928c-10.124-2.917-20.998-3.906-31.599-2.792
								c-10.537,1.108-20.733,4.446-29.234,9.948c-9.442,6.11-16.232,14.768-20.133,24.31c-0.54,1.32-1.022,2.656-1.46,4.003
								C204.201,325.194,207.159,326.077,207.702,324.407L207.702,324.407z"/>
						</g>
					</g>
				</g>
				<g transform="matrix(0.992638,0,0,1.02846,8.84355,-43.5877)">
					<g>
						<g>
							<path d="M298.763,372.35c-0.913,8.383-5.13,16.148-10.894,22.376c-6.383,6.897-14.596,12.182-23.427,15.708
								c-9.443,3.77-19.692,5.653-29.912,5.322c-10.719-0.347-21.277-3.248-30.454-8.634c-10.624-6.236-18.874-15.531-24.721-26.044
								c-0.853-1.533-1.654-3.092-2.415-4.67c-0.821-1.7-3.427-0.22-2.61,1.472c5.624,11.652,13.824,22.167,24.789,29.593
								c9.283,6.288,20.226,9.973,31.497,10.964c10.632,0.935,21.513-0.541,31.543-4.039c9.569-3.338,18.564-8.499,25.764-15.48
								c6.528-6.329,11.618-14.313,13.352-23.166c0.221-1.126,0.385-2.263,0.509-3.403
								C301.988,370.485,298.965,370.499,298.763,372.35L298.763,372.35z"/>
						</g>
					</g>
				</g>
				<g transform="matrix(0.933156,0,0,1.07047,88.957,-134.842)">
					<g>
						<g>
							<path d="M228.407,431.061c-0.948,8.241-5.072,16.07-11.018,22.477c-6.306,6.794-14.487,12.153-23.552,15.845
								c-9.258,3.771-19.534,5.728-29.758,5.463c-10.777-0.28-21.283-3.172-30.267-8.373c-10.888-6.302-18.945-15.645-24.599-25.809
								c-0.833-1.498-1.62-3.016-2.355-4.553c-0.336-0.704-1.062-1.189-1.977-0.979c-0.759,0.174-1.456,1.026-1.123,1.724
								c5.42,11.335,13.271,21.963,24.503,29.564c9.148,6.191,20.052,9.997,31.578,10.992c10.743,0.927,21.755-0.63,31.747-4.144
								c9.808-3.449,18.835-8.706,25.937-15.566c6.767-6.536,11.827-14.563,13.577-23.289c0.223-1.11,0.394-2.229,0.523-3.35
								C231.828,429.268,228.612,429.281,228.407,431.061L228.407,431.061z"/>
						</g>
					</g>
				</g>
				<g>
					<g>
						<path d="M234.829,236.909c1.425,12.369,2.849,24.738,4.274,37.107c0.199,1.729,0.398,3.457,0.597,5.186
							c0.218,1.896,3.221,1.918,3,0c-1.425-12.369-2.849-24.738-4.274-37.107c-0.199-1.729-0.398-3.457-0.597-5.186
							C237.61,235.013,234.608,234.991,234.829,236.909L234.829,236.909z"/>
					</g>
				</g>
				<g>
					<g>
						<path d="M240.39,286.437c0.7,7.276,1.4,14.551,2.1,21.827c1.111,11.547,2.222,23.093,3.334,34.64
							c0.256,2.657,0.511,5.314,0.767,7.971c0.183,1.905,3.185,1.924,3,0c-0.7-7.275-1.4-14.551-2.1-21.827
							c-1.111-11.547-2.222-23.093-3.334-34.64c-0.256-2.657-0.511-5.314-0.767-7.971
							C243.207,284.532,240.205,284.513,240.39,286.437L240.39,286.437z"/>
					</g>
				</g>
				<g>
					<g>
						<path d="M247.208,357.301c0.773,8.033,1.547,16.066,2.32,24.099c0.111,1.153,0.222,2.306,0.333,3.459
							c0.183,1.905,3.185,1.924,3,0c-0.773-8.033-1.547-16.066-2.32-24.099c-0.111-1.153-0.222-2.306-0.333-3.459
							C250.025,355.396,247.023,355.377,247.208,357.301L247.208,357.301z"/>
					</g>
				</g>
				<g transform="matrix(0.999627,-0.000316358,-0.000316358,0.999732,1.01998,0.865254)">
					<g>
						<g>
							<path d="M187.721,265.616c3.636,3.127,7.273,6.254,10.909,9.382c8.665,7.452,17.33,14.903,25.994,22.355
								c10.506,9.035,21.012,18.07,31.517,27.105c9.08,7.809,18.159,15.617,27.239,23.426c4.402,3.786,8.758,7.636,13.211,11.361
								c0.064,0.054,0.127,0.109,0.191,0.164c1.458,1.254,3.589-0.859,2.121-2.121c-3.636-3.127-7.273-6.254-10.909-9.382
								c-8.665-7.452-17.33-14.903-25.994-22.355c-10.506-9.035-21.012-18.07-31.517-27.105
								c-9.08-7.809-18.159-15.617-27.239-23.426c-4.402-3.786-8.758-7.636-13.211-11.361c-0.064-0.054-0.127-0.109-0.191-0.164
								C188.384,262.241,186.253,264.353,187.721,265.616L187.721,265.616z"/>
						</g>
					</g>
				</g>
				<g>
					<g>
						<path d="M294.1,253.251c-2.243,2.518-4.486,5.035-6.729,7.553c-5.356,6.012-10.712,12.024-16.068,18.036
							c-6.475,7.268-12.95,14.536-19.426,21.804c-5.6,6.286-11.2,12.572-16.8,18.857c-2.728,3.063-5.533,6.073-8.193,9.196
							c-0.039,0.046-0.081,0.091-0.121,0.136c-1.281,1.437,0.834,3.566,2.121,2.121c2.243-2.518,4.486-5.035,6.729-7.553
							c5.356-6.012,10.712-12.024,16.068-18.036c6.475-7.268,12.95-14.536,19.426-21.804c5.6-6.286,11.2-12.572,16.8-18.857
							c2.728-3.063,5.533-6.073,8.193-9.196c0.039-0.046,0.081-0.091,0.121-0.136C297.502,253.935,295.387,251.805,294.1,253.251
							L294.1,253.251z"/>
					</g>
				</g>
				<g>
					<g>
						<path d="M218.56,338.041c-6.636,7.449-13.273,14.898-19.909,22.347c-0.934,1.049-1.868,2.097-2.803,3.146
							c-1.281,1.437,0.834,3.566,2.121,2.121c6.636-7.449,13.273-14.898,19.909-22.347c0.934-1.049,1.868-2.097,2.803-3.146
							C221.962,338.725,219.847,336.596,218.56,338.041L218.56,338.041z"/>
					</g>
				</g>
				<g transform="matrix(1,0,0,1,-7.38105,-6.26643)">
					<g>
						
							<ellipse transform="matrix(0.0541 -0.9985 0.9985 0.0541 -26.3893 494.0602)" fill-rule="evenodd" clip-rule="evenodd" fill="#FF6900" cx="247.582" cy="260.959" rx="9.629" ry="9.39"/>
						<g>
							<path d="M248.103,252.844c3.348,0.23,6.177,2.641,7.069,5.857c0.882,3.179-0.231,6.734-2.86,8.763
								c-2.706,2.088-6.522,2.146-9.293,0.151c-2.678-1.928-3.876-5.45-3.087-8.628C240.862,255.233,244.252,252.69,248.103,252.844
								c1.931,0.077,1.927-2.923,0-3c-4.611-0.184-8.815,2.616-10.564,6.859c-1.746,4.233-0.693,9.353,2.685,12.478
								c3.394,3.139,8.488,3.794,12.546,1.553c4.094-2.262,6.231-6.975,5.559-11.547c-0.757-5.148-5.087-8.99-10.226-9.342
								C246.176,249.712,246.184,252.712,248.103,252.844z"/>
						</g>
					</g>
				</g>
				<g transform="matrix(0.930224,0,0,0.919799,94.2383,88.5368)">
					<g>
						
							<ellipse transform="matrix(0.0541 -0.9985 0.9985 0.0541 -4.1056 367.5952)" fill-rule="evenodd" clip-rule="evenodd" fill="#FF6900" cx="191.973" cy="185.965" rx="9.054" ry="8.749"/>
						<g>
							<path d="M192.499,177.766c3.326,0.231,6.097,2.691,6.971,5.911c0.868,3.199-0.22,6.786-2.819,8.849
								c-2.668,2.117-6.462,2.181-9.198,0.16c-2.651-1.958-3.814-5.515-3.037-8.708
								C185.334,180.209,188.662,177.612,192.499,177.766c2.075,0.083,2.072-3.178,0-3.262c-4.692-0.188-8.923,2.731-10.691,7.087
								c-1.765,4.349-0.702,9.625,2.712,12.849c3.426,3.234,8.594,3.913,12.699,1.597c4.159-2.346,6.306-7.214,5.624-11.917
								c-0.766-5.28-5.12-9.254-10.345-9.617C190.428,174.361,190.437,177.623,192.499,177.766z"/>
						</g>
					</g>
				</g>
				<g transform="matrix(1,0,0,0.83285,-5.21932,196.996)">
					<g>
						
							<ellipse transform="matrix(0.0541 -0.9985 0.9985 0.0541 145.1438 366.1637)" fill-rule="evenodd" clip-rule="evenodd" fill="#FF6900" cx="265.842" cy="106.471" rx="8.971" ry="8.772"/>
						<g>
							<path d="M266.327,97.517c3.078,0.253,5.687,2.913,6.509,6.462c0.812,3.507-0.21,7.424-2.625,9.662
								c-2.498,2.315-6.024,2.377-8.582,0.168c-2.46-2.125-3.566-6.007-2.84-9.513C259.65,100.14,262.78,97.347,266.327,97.517
								c1.931,0.092,1.927-3.51,0-3.602c-4.347-0.208-8.314,2.957-9.963,7.761c-1.64,4.778-0.643,10.557,2.535,14.078
								c3.206,3.551,8.009,4.291,11.84,1.758c3.861-2.554,5.874-7.883,5.237-13.055c-0.717-5.824-4.814-10.144-9.649-10.541
								C264.4,93.757,264.408,97.359,266.327,97.517z"/>
						</g>
					</g>
				</g>
				<g transform="matrix(1,0,0,1,-1.80113,0.41244)">
					<g>
						
							<ellipse transform="matrix(0.0541 -0.9985 0.9985 0.0541 -61.9945 495.8005)" fill-rule="evenodd" clip-rule="evenodd" fill="#FF6900" cx="230.698" cy="280.622" rx="9.221" ry="9.024"/>
						<g>
							<path d="M231.197,272.915c3.183,0.218,5.886,2.504,6.737,5.563c0.841,3.021-0.219,6.394-2.719,8.318
								c-2.584,1.989-6.226,2.042-8.871,0.143c-2.546-1.828-3.693-5.17-2.942-8.191
								C224.292,275.171,227.532,272.769,231.197,272.915c1.931,0.077,1.927-2.923,0-3c-4.45-0.177-8.517,2.516-10.207,6.613
								c-1.682,4.077-0.661,9.007,2.597,12.011c3.284,3.027,8.204,3.658,12.127,1.499c3.953-2.176,6.019-6.718,5.367-11.129
								c-0.734-4.969-4.932-8.655-9.884-8.994C229.27,269.783,229.278,272.784,231.197,272.915z"/>
						</g>
					</g>
				</g>
				<g transform="matrix(0.943592,0,0,1.02211,69.0215,-51.4042)">
					<g>
						
							<ellipse transform="matrix(0.0541 -0.9985 0.9985 0.0541 -181.6589 499.3716)" fill-rule="evenodd" clip-rule="evenodd" fill="#FF6900" cx="172.751" cy="345.57" rx="8.674" ry="8.549"/>
						<g>
							<path d="M173.248,338.564c3.114,0.196,5.801,2.233,6.666,4.996c0.876,2.797-0.198,5.93-2.75,7.675
								c-2.556,1.748-6.063,1.784-8.672,0.115c-2.55-1.631-3.737-4.694-2.994-7.458
								C166.381,340.605,169.608,338.429,173.248,338.564c2.046,0.076,2.042-2.859,0-2.935c-4.419-0.164-8.543,2.264-10.268,6.018
								c-1.754,3.817-0.768,8.433,2.563,11.258c3.312,2.809,8.244,3.404,12.217,1.444c3.939-1.943,6.121-6.1,5.529-10.152
								c-0.691-4.725-4.93-8.245-10.041-8.567C171.206,335.5,171.215,338.436,173.248,338.564z"/>
						</g>
					</g>
				</g>
				<g transform="matrix(1,0,0,1,-0.198632,-13.7968)">
					<g>
						
							<ellipse transform="matrix(0.0541 -0.9985 0.9985 0.0541 -91.4667 481.882)" fill-rule="evenodd" clip-rule="evenodd" fill="#FF6900" cx="208.616" cy="289.219" rx="9.317" ry="9.06"/>
						<g>
							<path d="M209.12,281.416c3.213,0.22,5.916,2.547,6.768,5.63c0.844,3.053-0.218,6.469-2.736,8.424
								c-2.592,2.012-6.258,2.069-8.913,0.148c-2.567-1.857-3.708-5.243-2.953-8.293
								C202.176,283.722,205.418,281.269,209.12,281.416c1.931,0.077,1.927-2.923,0-3c-4.48-0.178-8.549,2.554-10.245,6.673
								c-1.691,4.109-0.671,9.084,2.603,12.12c3.289,3.051,8.233,3.689,12.168,1.508c3.976-2.203,6.042-6.787,5.39-11.229
								c-0.734-4.995-4.926-8.731-9.916-9.073C207.193,278.284,207.201,281.284,209.12,281.416z"/>
						</g>
					</g>
				</g>
				<g transform="matrix(1,0,0,1,-7.10459,-37.7316)">
					<g>
						
							<ellipse transform="matrix(0.0541 -0.9985 0.9985 0.0541 -143.9239 530.2591)" fill-rule="evenodd" clip-rule="evenodd" fill="#FF6900" cx="207.921" cy="341.096" rx="9.32" ry="9.096"/>
						<g>
							<path d="M208.426,333.29c3.22,0.221,5.944,2.541,6.802,5.633c0.848,3.057-0.221,6.475-2.748,8.426
								c-2.607,2.013-6.285,2.068-8.954,0.146c-2.575-1.854-3.728-5.24-2.969-8.297C201.453,335.584,204.718,333.142,208.426,333.29
								c1.931,0.077,1.927-2.923,0-3c-4.486-0.179-8.576,2.545-10.278,6.673c-1.696,4.113-0.67,9.089,2.613,12.124
								c3.304,3.054,8.26,3.691,12.209,1.511c3.984-2.199,6.061-6.783,5.406-11.231c-0.738-5.007-4.955-8.735-9.951-9.077
								C206.499,330.158,206.507,333.158,208.426,333.29z"/>
						</g>
					</g>
				</g>
				<g transform="matrix(0.931383,0,0,0.976874,83.2576,31.5789)">
					<g>
						
							<ellipse transform="matrix(0.0541 -0.9985 0.9985 0.0541 -157.657 424.9637)" fill-rule="evenodd" clip-rule="evenodd" fill="#FF6900" cx="145.478" cy="295.697" rx="8.798" ry="8.672"/>
						<g>
							<path d="M145.989,288.239c3.21,0.209,5.981,2.377,6.873,5.318c0.903,2.978-0.205,6.313-2.837,8.171
								c-2.634,1.859-6.247,1.898-8.935,0.123c-2.63-1.736-3.853-4.997-3.087-7.94C138.912,290.413,142.238,288.095,145.989,288.239
								c2.073,0.079,2.069-2.992,0-3.071c-4.532-0.174-8.761,2.397-10.531,6.373c-1.799,4.043-0.787,8.932,2.629,11.924
								c3.396,2.975,8.453,3.605,12.527,1.529c4.039-2.058,6.278-6.461,5.67-10.753c-0.709-5.003-5.055-8.733-10.295-9.073
								C143.92,285.034,143.928,288.105,145.989,288.239z"/>
						</g>
					</g>
				</g>
				<g transform="matrix(1.06234,0,0,1.09002,-92.9227,-122.74)">
					<g>
						
							<ellipse transform="matrix(0.0541 -0.9985 0.9985 0.0541 -78.5754 710.8489)" fill-rule="evenodd" clip-rule="evenodd" fill="#FF6900" cx="335.915" cy="396.898" rx="8.653" ry="8.506"/>
						<g>
							<path d="M336.356,390.348c2.754,0.183,5.121,2.092,5.883,4.67c0.773,2.613-0.174,5.541-2.429,7.176
								c-2.255,1.634-5.355,1.669-7.657,0.109c-2.254-1.527-3.297-4.391-2.641-6.972
								C330.292,392.264,333.135,390.222,336.356,390.348c1.817,0.071,1.814-2.681,0-2.752c-3.914-0.153-7.556,2.124-9.082,5.632
								c-1.552,3.57-0.682,7.889,2.265,10.534c2.927,2.628,7.292,3.185,10.805,1.35c3.487-1.821,5.414-5.712,4.89-9.501
								c-0.611-4.415-4.352-7.715-8.879-8.015C334.542,387.475,334.55,390.228,336.356,390.348z"/>
						</g>
					</g>
				</g>
				<g transform="matrix(1.19925,0,0,1.08689,-297.694,-128.46)">
					<g>
						
							<ellipse transform="matrix(0.0541 -0.9985 0.9985 0.0541 22.8837 872.6934)" fill-rule="evenodd" clip-rule="evenodd" fill="#FF6900" cx="472.07" cy="424.268" rx="8.468" ry="8.523"/>
						<g>
							<path d="M472.452,417.869c2.404,0.18,4.543,2.008,5.231,4.571c0.691,2.572-0.163,5.432-2.147,7.006
								c-2.021,1.604-4.739,1.617-6.798,0.096c-1.981-1.463-2.936-4.272-2.355-6.814
								C467.081,419.675,469.647,417.743,472.452,417.869c1.61,0.072,1.607-2.688,0-2.76c-3.429-0.153-6.695,2.041-8.053,5.537
								c-1.372,3.532-0.585,7.786,2.021,10.374c2.616,2.598,6.465,3.141,9.588,1.34c3.066-1.768,4.797-5.591,4.33-9.349
								c-0.548-4.406-3.926-7.605-7.886-7.902C470.845,414.988,470.852,417.749,472.452,417.869z"/>
						</g>
					</g>
				</g>
				<g transform="matrix(1.09761,0,0,1.11527,-135.633,-170.585)">
					<g>
						
							<ellipse transform="matrix(0.0541 -0.9985 0.9985 0.0541 -120.2647 771.9418)" fill-rule="evenodd" clip-rule="evenodd" fill="#FF6900" cx="347.317" cy="449.449" rx="8.773" ry="8.901"/>
						<g>
							<path d="M347.749,442.94c2.755,0.184,5.232,2.029,6.029,4.654c0.798,2.625-0.195,5.535-2.473,7.128
								c-2.326,1.627-5.45,1.641-7.818,0.093c-2.273-1.486-3.389-4.336-2.719-6.936C341.573,444.757,344.543,442.811,347.749,442.94
								c1.759,0.07,1.756-2.62,0-2.69c-3.872-0.155-7.589,2.031-9.131,5.557c-1.555,3.555-0.655,7.829,2.297,10.423
								c2.972,2.612,7.327,3.156,10.868,1.35c3.466-1.768,5.439-5.603,4.908-9.39c-0.623-4.444-4.475-7.642-8.942-7.94
								C345.994,440.133,346.001,442.823,347.749,442.94z"/>
						</g>
					</g>
				</g>
				<g transform="matrix(1.07659,0,0,1.07638,-108.106,-115.028)">
					<g>
						
							<ellipse transform="matrix(0.0541 -0.9985 0.9985 0.0541 -111.8514 759.6045)" fill-rule="evenodd" clip-rule="evenodd" fill="#FF6900" cx="345.012" cy="438.84" rx="9.084" ry="9.311"/>
						<g>
							<path d="M345.468,431.807c2.972,0.202,5.665,2.205,6.515,5.096c0.822,2.799-0.236,5.874-2.603,7.583
								c-2.53,1.827-5.968,1.836-8.545,0.107c-2.407-1.615-3.586-4.677-2.863-7.483
								C338.845,433.727,342.065,431.669,345.468,431.807c1.793,0.073,1.79-2.715,0-2.787c-4.081-0.165-8.037,2.139-9.676,5.924
								c-1.65,3.809-0.678,8.384,2.453,11.142c3.176,2.798,7.816,3.367,11.571,1.399c3.708-1.943,5.728-6.09,5.101-10.199
								c-0.713-4.677-4.859-7.956-9.448-8.267C343.678,428.898,343.686,431.686,345.468,431.807z"/>
						</g>
					</g>
				</g>
				<g>
					
						<ellipse transform="matrix(0.0541 -0.9985 0.9985 0.0541 -139.8429 564.7932)" fill-rule="evenodd" clip-rule="evenodd" fill="#FF6900" cx="228.19" cy="356.209" rx="9.026" ry="9.091"/>
					<g>
						<path d="M228.678,348.696c3.119,0.212,5.894,2.354,6.787,5.368c0.896,3.023-0.218,6.383-2.791,8.229
							c-2.614,1.875-6.134,1.892-8.796,0.111c-2.571-1.72-3.813-5.016-3.059-8.006C221.722,350.818,225.049,348.549,228.678,348.696
							c1.931,0.078,1.927-2.922,0-3c-4.345-0.176-8.486,2.337-10.209,6.353c-1.74,4.057-0.738,8.941,2.564,11.911
							c3.313,2.98,8.19,3.603,12.144,1.538c3.885-2.029,6.083-6.415,5.49-10.733c-0.694-5.056-4.976-8.729-9.989-9.07
							C226.751,345.565,226.759,348.566,228.678,348.696z"/>
					</g>
				</g>
				<g transform="matrix(1.10326,0,0,1,-128.466,-4.49264)">
					<g>
						
							<ellipse transform="matrix(0.0541 -0.9985 0.9985 0.0541 -55.4795 626.1375)" fill-rule="evenodd" clip-rule="evenodd" fill="#FF6900" cx="302.751" cy="342.352" rx="8.619" ry="8.588"/>
						<g>
							<path d="M303.173,335.246c2.657,0.199,4.986,2.246,5.736,5.072c0.756,2.847-0.176,6.024-2.361,7.783
								c-2.206,1.775-5.207,1.804-7.456,0.112c-2.182-1.642-3.218-4.751-2.58-7.566C297.275,337.283,300.07,335.108,303.173,335.246
								c1.75,0.078,1.747-2.922,0-3c-3.772-0.168-7.329,2.275-8.813,6.113c-1.504,3.889-0.649,8.583,2.206,11.446
								c2.853,2.861,7.075,3.463,10.489,1.473c3.368-1.963,5.252-6.184,4.742-10.318c-0.596-4.833-4.265-8.387-8.624-8.714
								C301.426,332.115,301.434,335.116,303.173,335.246z"/>
						</g>
					</g>
				</g>
				<g transform="matrix(1.13416,0,0,1.11683,-207.481,-162.608)">
					<g>
						
							<ellipse transform="matrix(0.0541 -0.9985 0.9985 0.0541 14.972 806.9457)" fill-rule="evenodd" clip-rule="evenodd" fill="#FF6900" cx="433.411" cy="395.57" rx="9.44" ry="9.186"/>
						<g>
							<path d="M433.862,388.473c2.879,0.201,5.304,2.315,6.068,5.12c0.756,2.777-0.196,5.885-2.454,7.662
								c-2.323,1.828-5.606,1.88-7.986,0.134c-2.301-1.688-3.325-4.768-2.649-7.543
								C427.639,390.569,430.547,388.339,433.862,388.473c1.702,0.069,1.699-2.617,0-2.686c-3.995-0.161-7.627,2.31-9.14,6.041
								c-1.51,3.722-0.599,8.228,2.322,10.978c2.935,2.763,7.345,3.34,10.855,1.366c3.546-1.994,5.391-6.144,4.809-10.166
								c-0.655-4.525-4.396-7.908-8.847-8.218C432.163,385.669,432.17,388.356,433.862,388.473z"/>
						</g>
					</g>
				</g>
				<g>
					
						<ellipse transform="matrix(0.0541 -0.9985 0.9985 0.0541 -35.5116 586.2427)" fill-rule="evenodd" clip-rule="evenodd" fill="#FF6900" cx="291.677" cy="311.865" rx="8.517" ry="8.237"/>
					<g>
						<path d="M292.138,304.86c2.872,0.197,5.266,2.301,6.02,5.05c0.75,2.731-0.187,5.791-2.428,7.556
							c-2.308,1.818-5.599,1.871-7.966,0.138c-2.286-1.673-3.291-4.709-2.62-7.434C285.939,306.943,288.817,304.729,292.138,304.86
							c1.931,0.077,1.927-2.923,0-3c-4.148-0.165-7.886,2.39-9.447,6.197c-1.555,3.793-0.613,8.395,2.398,11.204
							c3.03,2.826,7.597,3.42,11.228,1.396c3.677-2.049,5.57-6.303,4.965-10.411c-0.679-4.611-4.533-8.07-9.144-8.387
							C290.211,301.728,290.219,304.729,292.138,304.86z"/>
					</g>
				</g>
				<g transform="matrix(0.956057,0,0,0.94874,63.5878,71.9531)">
					<g>
						
							<ellipse transform="matrix(0.0541 -0.9985 0.9985 0.0541 -67.0719 508.4263)" fill-rule="evenodd" clip-rule="evenodd" fill="#FF6900" cx="234.824" cy="289.615" rx="8.906" ry="8.639"/>
						<g>
							<path d="M235.328,281.823c3.178,0.22,5.84,2.551,6.679,5.62c0.832,3.044-0.211,6.452-2.697,8.41
								c-2.559,2.015-6.193,2.073-8.816,0.151c-2.534-1.857-3.655-5.237-2.911-8.276
								C228.464,284.131,231.66,281.676,235.328,281.823c2.019,0.081,2.016-3.081,0-3.162c-4.508-0.181-8.587,2.603-10.289,6.776
								c-1.696,4.16-0.671,9.202,2.613,12.279c3.302,3.094,8.271,3.743,12.224,1.529c3.998-2.238,6.067-6.891,5.41-11.393
								c-0.739-5.058-4.943-8.845-9.959-9.192C233.312,278.521,233.321,281.684,235.328,281.823z"/>
						</g>
					</g>
				</g>
			</g>
		</g>
		<g transform="matrix(1.90582,0,0,1.33719,-1424.16,-455.549)">
			<g>
				<path fill="#FFFFFF" d="M953.446,600.469c0,0,8.479-0.385,9.228,13.653c0.745,14.033,0.15,20.106,0.618,20.374
					c0.468,0.271,8.428,18.91,12.706,33.51"/>
				<g>
					<path d="M953.446,601.591c0.16-0.007,0.321,0.006,0.481,0.021c0.528,0.049,0.531,0.052,1.075,0.21
						c1.278,0.372,2.446,1.05,3.493,2.171c1.425,1.525,2.379,3.754,2.887,6.165c0.398,1.891,0.505,3.821,0.597,5.782
						c0.105,2.209,0.185,4.42,0.24,6.632c0.071,2.902,0.08,5.804,0.082,8.707c0.001,1.082-0.167,2.751,0.262,3.724
						c0.086,0.195,0.508,0.691,0.232,0.354c0.03,0.036,0.077,0.103,0.093,0.153c0.042,0.136-0.043-0.079-0.052-0.095
						c0.039,0.073,0.077,0.146,0.113,0.221c0.311,0.64,0.611,1.289,0.903,1.946c1.041,2.34,2.027,4.729,2.994,7.132
						c3.076,7.636,6.005,15.464,8.394,23.592c0.165,0.563,0.519,0.952,0.968,0.784c0.371-0.139,0.714-0.822,0.55-1.38
						c-2.217-7.544-4.872-14.825-7.684-21.949c-1.078-2.731-2.182-5.442-3.336-8.109c-0.541-1.249-1.075-2.85-1.83-3.88
						c-0.323-0.44-0.154-0.147-0.005,0.055c0.044,0.061,0.133,0.239,0.027,0.046c-0.112-0.203,0.002,0.153-0.011-0.075
						c-0.037-0.661-0.04-1.324-0.042-1.987c-0.008-2.807-0.004-5.613-0.064-8.419c-0.048-2.252-0.125-4.503-0.226-6.751
						c-0.097-2.148-0.178-4.309-0.554-6.402c-0.496-2.759-1.472-5.39-2.974-7.302c-1.74-2.215-4.247-3.685-6.611-3.587
						C952.435,599.389,952.431,601.633,953.446,601.591L953.446,601.591z"/>
				</g>
			</g>
		</g>
		<path fill-rule="evenodd" clip-rule="evenodd" d="M198.581,469.106c-8.294-0.104-15.022-6.745-15.244-15.033
			c-1.185-44.941-4.733-179.203-5.945-224.962c-0.107-4.101,1.422-8.074,4.246-11.047c2.828-2.973,6.719-4.7,10.823-4.799
			c25.569-0.619,75.359,1.294,101.069,0.671c4.14-0.097,6.398,1.006,9.372,3.885c2.974,2.879,4.09,6.756,4.124,10.896
			c0.364,46.344,4.765,179.633,5.128,226.067c0.034,4.152-1.606,8.138-4.546,11.07c-2.944,2.927-6.942,4.547-11.093,4.494
			C271.493,470.032,223.021,469.418,198.581,469.106z M201.165,463.395c-6.297,0.024-13.713-8.012-13.866-14.308
			c-0.971-40.066,1.046-174.235,0.062-214.855c-0.076-3.091,1.087-6.084,3.231-8.309c2.145-2.226,5.089-3.502,8.178-3.546
			c22.025-0.305,69.429-0.961,91.438-1.263c3.085-0.045,6.061,1.148,8.262,3.307c2.205,2.163,3.453,5.114,3.47,8.202
			c0.221,40.661,0.955,175.814,1.175,216.353c0.018,3.072-1.19,6.027-3.351,8.209c-2.166,2.185-5.108,3.418-8.18,3.428
			C270.305,460.691,222.252,463.317,201.165,463.395z"/>
		<g transform="matrix(0.873927,0.0295667,-0.0317404,0.938177,211.213,38.0983)">
			<g>
				<g>
					<path d="M8.271,448.837c-3.57,0.074-7.006-1.288-9.307-3.865c-2.004-2.243-2.544-4.838-2.72-7.66
						c-0.228-3.66-0.457-7.32-0.685-10.98c-0.604-9.68-1.208-19.359-1.812-29.039c-0.743-11.914-1.487-23.828-2.23-35.742
						c-0.812-13.01-1.624-26.02-2.436-39.029c-0.806-12.912-1.612-25.824-2.418-38.736c-0.736-11.793-1.472-23.587-2.208-35.38
						c-0.592-9.478-1.183-18.957-1.775-28.435c-0.224-3.584-0.585-7.186-0.665-10.775c-0.093-4.17,2.502-8.134,6.558-9.93
						c2.963-1.312,6.433-1.112,9.64-1.254c14.341-0.637,28.682-1.275,43.024-1.912c14.962-0.665,29.923-1.33,44.885-1.996
						c2.944-0.131,5.888-0.262,8.832-0.393c1.57-0.07,3.179-0.237,4.74-0.01c2.181,0.318,4.246,1.192,5.901,2.557
						c2.886,2.381,3.819,5.48,3.965,8.941c0.073,1.741,0.147,3.482,0.22,5.223c0.377,8.935,0.753,17.871,1.13,26.806
						c0.484,11.483,0.968,22.966,1.452,34.449c0.542,12.866,1.085,25.731,1.627,38.597c0.553,13.115,1.106,26.231,1.659,39.346
						c0.516,12.232,1.031,24.464,1.547,36.696c0.431,10.216,0.861,20.432,1.291,30.648c0.168,3.982,0.335,7.965,0.503,11.947
						c0.07,1.655,0.146,3.31,0.209,4.965c0.154,4.014-1.766,7.782-5.499,9.912c-3.057,1.745-6.541,1.596-9.988,1.716
						c-3.11,0.108-6.219,0.217-9.329,0.325c-7.306,0.255-14.613,0.51-21.919,0.765c-15.471,0.54-30.943,1.08-46.414,1.621
						C20.123,448.422,14.197,448.63,8.271,448.837c-2.206,0.077-2.094,3.271,0.116,3.194c14.04-0.491,28.081-0.982,42.122-1.472
						c15.412-0.538,30.825-1.076,46.238-1.614c3.096-0.108,6.191-0.216,9.287-0.324c4.023-0.14,7.722-0.685,10.969-3.104
						c3.46-2.578,5.513-6.455,5.643-10.577c0.058-1.851-0.126-3.73-0.204-5.581c-0.374-8.886-0.748-17.771-1.123-26.657
						c-0.49-11.621-0.979-23.241-1.469-34.862c-0.55-13.059-1.101-26.117-1.651-39.176c-0.565-13.404-1.13-26.809-1.695-40.213
						c-0.524-12.438-1.049-24.876-1.573-37.314c-0.437-10.374-0.875-20.747-1.312-31.121c-0.169-4.014-0.338-8.028-0.508-12.042
						c-0.085-2.02-0.036-4.103-0.413-6.096c-0.778-4.118-3.592-7.768-7.532-9.778c-3.47-1.77-7.079-1.727-10.898-1.557
						c-3.034,0.135-6.068,0.27-9.103,0.405c-7.31,0.325-14.62,0.65-21.929,0.975c-15.883,0.706-31.766,1.412-47.649,2.118
						c-6.519,0.29-13.038,0.579-19.556,0.869c-3.859,0.172-7.539,0.401-10.85,2.503c-3.67,2.329-6.075,6.076-6.51,10.192
						c-0.217,2.056,0.063,4.174,0.191,6.234c0.119,1.908,0.238,3.816,0.357,5.724c0.278,4.447,0.555,8.895,0.833,13.342
						c0.684,10.96,1.368,21.919,2.052,32.879c0.8,12.816,1.6,25.632,2.4,38.448c0.834,13.359,1.667,26.718,2.501,40.078
						c0.799,12.807,1.598,25.613,2.398,38.42c0.683,10.941,1.365,21.882,2.048,32.823c0.277,4.435,0.553,8.869,0.83,13.304
						c0.233,3.73,0.167,7.614,0.779,11.307c1.159,6.995,7.767,12.026,15.328,11.869C10.595,451.985,10.481,448.791,8.271,448.837z"
						/>
				</g>
			</g>
		</g>
		<g>
			<path fill-rule="evenodd" clip-rule="evenodd" fill="#FFFFFF" d="M346.536,363.868c-3.59-39.796-14.334-75.845-14.344-107.013
				c-4.305-3.658-16.847-5.93-20.454,10.251c-1.545,6.941-0.699,82.899,3.901,101.097c6.212,24.57,9.146,72.849-3.111,92.755
				c-11.298,18.345-60.192,3.948-78.171,5.214c-16.199,1.142-21.282,17.632-18.369,24.764c0.717,1.753,22.72,2.659,27.736,1.738
				c1.081-0.196,31.958,12.856,52.929,15.722c20.963,2.87,82.22-3.359,82.22-3.359"/>
			<g>
				<path d="M348.036,363.868c-1.585-17.424-4.593-34.66-7.64-51.876c-2.723-15.386-5.557-30.839-6.446-46.463
					c-0.103-1.807-0.178-3.616-0.22-5.426c-0.033-1.41,0.416-3.531-0.751-4.53c-1.268-1.085-2.907-1.808-4.495-2.271
					c-3.849-1.123-8.189-0.621-11.461,1.778c-3.817,2.798-6.15,7.64-6.84,12.252c-0.335,2.239-0.387,4.529-0.464,6.788
					c-0.285,8.44-0.224,16.895-0.114,25.338c0.14,10.752,0.438,21.505,0.947,32.246c0.443,9.332,0.968,18.692,2.127,27.967
					c0.396,3.171,0.869,6.326,1.638,9.43c1.319,5.321,2.277,10.732,3.042,16.159c1.807,12.823,2.535,25.88,1.984,38.821
					c-0.26,6.124-0.82,12.25-1.956,18.277c-0.964,5.113-2.292,10.273-4.582,14.969c-1.821,3.734-4.185,6.497-7.965,8.329
					c-4.024,1.95-8.636,2.662-13.054,2.989c-11.152,0.825-22.411-0.659-33.461-2.028c-5.057-0.627-10.115-1.301-15.194-1.721
					c-4.411-0.365-8.976-0.631-13.303,0.502c-9.572,2.507-16.853,12.229-16.073,22.226c0.115,1.473,0.282,3.941,1.674,4.823
					c1.137,0.721,2.691,0.875,3.99,1.063c4.88,0.704,9.844,0.924,14.768,1.009c2.277,0.039,4.56,0.045,6.835-0.077
					c0.869-0.047,1.737-0.117,2.598-0.242c0.775-0.112-0.047,0.078-0.159-0.069c0.04,0.053,0.306,0.07,0.372,0.093
					c3.132,1.098,6.249,2.234,9.368,3.37c11.881,4.328,23.937,8.487,36.335,11.071c9.381,1.955,18.835,2.112,28.383,1.925
					c10.973-0.215,21.937-0.867,32.881-1.658c8.153-0.589,16.299-1.269,24.437-2.041c1.212-0.115,2.425-0.231,3.636-0.354
					c1.902-0.193,1.922-3.195,0-3c-12.337,1.253-24.71,2.231-37.085,3.003c-9.552,0.596-19.123,1.069-28.696,1.109
					c-3.951,0.016-7.909-0.036-11.852-0.304c-4.359-0.296-8.447-1.009-12.782-1.979c-11.017-2.465-21.765-6.084-32.374-9.91
					c-3.335-1.202-6.647-2.469-9.992-3.642c-0.713-0.25-1.527-0.628-2.299-0.641c-1.025-0.016-2.257,0.253-3.598,0.305
					c-4.352,0.169-8.728,0.028-13.074-0.235c-2.122-0.128-4.246-0.287-6.355-0.555c-1.223-0.156-2.524-0.303-3.684-0.743
					c-0.175-0.066,0.044-0.028,0.02,0.004c-0.071,0.097-0.378-0.527,0.07,0.082c-0.138-0.187,0.214,0.287,0.201,0.348
					c0.019-0.092-0.141-0.392-0.171-0.487c-0.229-0.714-0.376-1.462-0.438-2.172c-0.146-1.685,0.002-3.385,0.372-5.033
					c0.902-4.02,2.997-7.734,6.077-10.484c6.549-5.847,15.622-4.801,23.676-3.954c9.592,1.01,19.13,2.485,28.754,3.196
					c8.959,0.662,18.66,1.065,27.305-1.821c3.422-1.142,6.755-2.902,9.175-5.634c2.663-3.006,4.276-6.986,5.562-10.74
					c3.378-9.862,4.387-20.56,4.726-30.922c0.373-11.42-0.251-22.89-1.672-34.224c-0.632-5.044-1.415-10.073-2.45-15.052
					c-0.654-3.146-1.516-6.241-2.039-9.413c-1.174-7.126-1.674-14.501-2.137-21.765c-1.161-18.235-1.615-36.539-1.582-54.809
					c0.01-5.828-0.021-11.695,0.416-17.511c0.029-0.382,0.06-0.763,0.1-1.144c0.017-0.158,0.036-0.315,0.054-0.473
					c-0.007,0.06-0.062,0.264,0.022-0.125c0.467-2.147,1.097-4.258,2.157-6.193c1.773-3.238,4.74-5.688,8.532-5.886
					c1.501-0.078,2.881,0.122,4.309,0.592c0.659,0.217,1.071,0.39,1.693,0.728c0.521,0.283,1.061,0.645,1.317,0.859
					c-0.146-0.354-0.293-0.707-0.439-1.061c0.022,12.959,1.769,25.857,3.837,38.627c2.307,14.243,5.071,28.408,7.279,42.667
					c1.323,8.541,2.444,17.111,3.227,25.719C345.209,365.775,348.211,365.794,348.036,363.868L348.036,363.868z"/>
			</g>
		</g>
		<g transform="matrix(1.52545,0,0,1.33719,-803.723,-453.903)">
			<g>
				<path fill="#FFFFFF" d="M750.567,579.28c0,0,9.96-5.468,14.689,0.586c4.729,6.054,6.569,33.794,6.569,33.794"/>
				<g>
					<path d="M751.064,580.249c0.056-0.031,0.113-0.06,0.17-0.089c0.058-0.03,0.117-0.059,0.176-0.089
						c0.176-0.089-0.12,0.053,0.152-0.073c0.567-0.263,1.141-0.504,1.723-0.719c1.695-0.629,3.46-1.082,5.247-1.136
						c1.898-0.057,3.905,0.349,5.388,1.796c0.976,0.952,1.571,2.195,2.109,3.632c1.343,3.591,2.047,7.532,2.677,11.352
						c0.662,4.011,1.16,8.056,1.566,12.11c0.221,2.205,0.425,4.415,0.572,6.629c0.095,1.431,2.063,1.442,1.967,0
						c-0.412-6.196-1.103-12.401-2.075-18.514c-0.656-4.128-1.411-8.34-2.83-12.227c-0.539-1.477-1.172-2.941-2.161-4.1
						c-1.539-1.805-3.638-2.665-5.802-2.876c-3.31-0.324-6.889,0.74-9.871,2.369C748.93,578.935,749.926,580.87,751.064,580.249
						L751.064,580.249z"/>
				</g>
			</g>
		</g>
		<g transform="matrix(1.75074,0,0,1.33719,-1165.97,-451.487)">
			<g>
				<path fill="#FFFFFF" d="M876.459,582.86c0,0,9.746-0.827,11.734,5.735c1.984,6.562,4.27,30.361,4.27,30.361"/>
				<g>
					<path d="M876.459,583.982c1.714-0.142,3.487,0.013,5.172,0.433c2.48,0.618,5.078,1.881,5.952,5.259
						c0.866,3.346,1.338,6.891,1.821,10.358c0.567,4.067,1.053,8.153,1.504,12.245c0.26,2.359,0.48,4.412,0.698,6.68
						c0.136,1.413,1.851,1.431,1.714,0c-0.594-6.172-1.287-12.337-2.118-18.462c-0.504-3.718-1-7.506-1.889-11.107
						c-0.408-1.655-0.999-3.124-2.039-4.251c-1.173-1.27-2.604-2.054-4.066-2.555c-2.162-0.741-4.515-1.028-6.749-0.843
						C875.364,581.829,875.356,584.073,876.459,583.982L876.459,583.982z"/>
				</g>
			</g>
		</g>
		<g>
			<g>
				<path d="M332.478,257.598c-2.902-1.493-6.695-1.509-9.173,0.801c-2.53,2.359-3.232,6.455-3.242,9.745
					c-0.01,3.295,2.392,5.706,5.564,6.207c1.574,0.248,3.228,0.178,4.747-0.335c1.33-0.449,2.776-1.249,3.388-2.586
					c0.337-0.736,0.209-1.615-0.538-2.052c-0.646-0.378-1.713-0.202-2.052,0.538c-0.039,0.086-0.085,0.166-0.129,0.249
					c-0.021,0.039-0.059,0.079-0.077,0.12c-0.095,0.221,0.107-0.149,0.104-0.129c-0.025,0.163-0.381,0.373-0.492,0.483
					c0.302-0.301,0.096-0.076-0.028,0.005c-0.095,0.062-0.193,0.121-0.292,0.176c-0.116,0.065-0.236,0.121-0.354,0.181
					c-0.278,0.141,0.266-0.087-0.106,0.044c-0.531,0.187-1.059,0.294-1.607,0.409c0.422-0.089,0.014-0.004-0.107,0.007
					c-0.136,0.012-0.273,0.022-0.41,0.028c-0.31,0.014-0.621,0.012-0.93-0.008c-0.138-0.009-0.275-0.025-0.412-0.036
					c-0.268-0.021,0.055,0.006,0.092,0.013c-0.067-0.012-0.136-0.02-0.203-0.034c-0.3-0.06-0.597-0.125-0.889-0.218
					c-0.128-0.04-0.251-0.092-0.379-0.133c-0.185-0.06,0.228,0.122-0.096-0.047c-0.263-0.137-0.505-0.291-0.754-0.451
					c0.269,0.172,0.049,0.04-0.072-0.07c-0.096-0.086-0.188-0.177-0.275-0.272c-0.11-0.118-0.247-0.341-0.074-0.073
					c-0.089-0.139-0.185-0.272-0.266-0.418c-0.054-0.098-0.209-0.478-0.068-0.102c-0.05-0.132-0.099-0.264-0.139-0.4
					c-0.042-0.141-0.072-0.284-0.104-0.428c-0.016-0.074-0.027-0.15-0.038-0.225c0.062,0.395,0.009-0.006,0.005-0.073
					c-0.055-0.921,0.052-1.879,0.178-2.791c-0.027,0.195,0.059-0.359,0.067-0.403c0.034-0.201,0.072-0.402,0.114-0.602
					c0.086-0.414,0.188-0.825,0.309-1.23c0.097-0.324,0.212-0.64,0.331-0.956c0.025-0.067,0.12-0.261-0.014,0.032
					c0.032-0.069,0.061-0.14,0.095-0.208c0.081-0.164,0.16-0.329,0.248-0.489c0.131-0.239,0.278-0.466,0.429-0.692
					c0.203-0.303-0.072,0.061,0.052-0.075c0.101-0.112,0.194-0.23,0.298-0.339c0.158-0.166,0.332-0.31,0.499-0.466
					c0.176-0.165-0.296,0.196,0.019-0.011c0.099-0.065,0.195-0.132,0.297-0.193c0.087-0.052,0.47-0.328,0.572-0.296
					c0.017,0.005-0.39,0.134-0.154,0.067c0.046-0.013,0.091-0.036,0.137-0.051c0.103-0.034,0.205-0.069,0.309-0.099
					c0.193-0.056,0.388-0.094,0.584-0.134c0.346-0.072-0.249,0.014-0.057,0.004c0.102-0.005,0.203-0.021,0.305-0.027
					c0.372-0.024,0.741-0.009,1.112,0.02c0.042,0.003,0.083,0.01,0.125,0.013c0.249,0.018-0.144-0.011-0.184-0.027
					c0.087,0.034,0.206,0.031,0.298,0.047c0.178,0.032,0.356,0.069,0.532,0.111c0.303,0.073,0.602,0.161,0.896,0.264
					c0.116,0.041,0.23,0.085,0.345,0.129c0.378,0.142-0.31-0.148-0.073-0.032c0.073,0.036,0.149,0.067,0.222,0.104
					c0.72,0.371,1.628,0.187,2.052-0.538C333.408,258.978,333.201,257.97,332.478,257.598L332.478,257.598z"/>
			</g>
		</g>
		<g>
			<path fill-rule="evenodd" clip-rule="evenodd" fill="#FFFFFF" d="M173.46,377.551c-5.259-18.05,5.859-46.242,6.8-70.848
				c1.735-45.273-20.635-51.424-25.987-49.572c-16.677,5.769,16.507,45.509-31.192,110.779
				c-15.739,21.537-0.712,112.905,11.011,117.561"/>
			<g>
				<path d="M174.907,377.152c-2.46-8.618-1.251-18.021,0.14-26.718c1.677-10.481,4.089-20.834,5.542-31.353
					c1.375-9.951,1.787-20.079,0.484-30.063c-0.913-6.993-2.662-14.005-6.136-20.196c-3.667-6.535-10.042-12.889-17.928-13.449
					c-2.464-0.175-4.941,0.663-6.672,2.469c-2.031,2.119-2.574,5.123-2.723,7.949c-0.206,3.915,0.24,7.864,0.542,11.763
					c0.418,5.399,0.733,10.805,0.653,16.223c-0.229,15.5-3.798,30.711-10.158,44.837c-4.562,10.133-10.42,19.511-16.864,28.539
					c-2.571,3.601-3.939,7.993-4.875,12.273c-2.717,12.424-2.449,25.552-1.607,38.167c0.92,13.781,2.83,27.568,5.898,41.039
					c1.222,5.365,2.626,10.713,4.5,15.891c1.273,3.517,2.705,7.209,5.089,10.143c0.797,0.981,1.729,1.77,2.902,2.252
					c1.785,0.732,2.562-2.169,0.798-2.893c0.505,0.207-0.12-0.095-0.276-0.182c-0.061-0.034-0.385-0.278-0.167-0.112
					c0.214,0.164-0.178-0.156-0.233-0.208c-0.189-0.18-0.373-0.364-0.547-0.558c-0.1-0.111-0.194-0.226-0.291-0.34
					c-0.26-0.308,0.083,0.129-0.154-0.197c-0.952-1.306-1.714-2.741-2.397-4.202c-1.886-4.031-3.314-8.694-4.531-13.156
					c-3.406-12.497-5.499-25.393-6.812-38.268c-1.329-13.029-1.985-26.356-0.463-39.399c0.569-4.873,1.474-9.852,3.361-14.405
					c0.83-2.003,2.21-4.055,3.556-5.937c3.273-4.577,6.344-9.299,9.154-14.174c8.56-14.855,14.546-31.137,16.443-48.225
					c1.205-10.859,0.335-21.562-0.377-32.407c-0.119-1.808-0.214-3.621-0.18-5.434c0.014-0.749,0.055-1.497,0.129-2.243
					c0.056-0.562,0.003-0.189,0.1-0.733c0.06-0.335,0.125-0.668,0.208-0.998c0.074-0.296,0.159-0.589,0.258-0.877
					c0.048-0.139,0.1-0.276,0.153-0.413c0.049-0.125-0.104,0.183,0.079-0.166c0.13-0.247,0.255-0.494,0.405-0.73
					c0.065-0.103,0.135-0.202,0.204-0.303c0.218-0.319-0.183,0.174,0.13-0.159c0.177-0.189,0.354-0.371,0.54-0.552
					c0.071-0.068,0.496-0.395,0.124-0.118c0.126-0.093,0.253-0.189,0.386-0.27c0.252-0.154,0.505-0.297,0.768-0.433
					c0.136-0.07,0.415-0.185,0.11-0.059c0.164-0.068,0.33-0.134,0.499-0.189c0.172-0.056,0.346-0.096,0.521-0.143
					c0.096-0.026,0.196-0.034,0.292-0.054c0.263-0.054-0.417,0.02,0.058-0.003c0.491-0.023,0.973-0.04,1.465-0.005
					c0.152,0.011,0.303,0.027,0.454,0.042c0.384,0.038-0.141-0.026,0.073,0.009c0.333,0.053,0.665,0.114,0.994,0.188
					c0.656,0.149,1.302,0.343,1.935,0.574c0.17,0.062,0.339,0.128,0.508,0.194c0.32,0.126-0.116-0.06,0.273,0.115
					c0.377,0.17,0.749,0.348,1.115,0.54c0.772,0.404,1.517,0.86,2.233,1.357c1.489,1.034,3.016,2.46,4.33,3.983
					c3.635,4.215,5.902,9.505,7.372,14.827c2.352,8.519,2.797,17.485,2.473,26.277c-0.382,10.35-2.426,20.549-4.365,30.694
					c-1.82,9.521-3.824,19.202-3.849,28.936c-0.01,3.981,0.364,8.002,1.459,11.84C172.543,379.803,175.439,379.015,174.907,377.152
					L174.907,377.152z"/>
			</g>
		</g>
		<g>
			<path fill-rule="evenodd" clip-rule="evenodd" fill="#FFFFFF" d="M176.623,356.977c12.777,9.086,9.575,66.318,2.658,113.896"/>
			<g>
				<path d="M175.866,358.272c0.036,0.026,0.389,0.31,0.645,0.556c0.317,0.304,0.613,0.631,0.887,0.973
					c0.363,0.454,0.978,1.441,1.361,2.169c1.042,1.979,1.732,4.134,2.299,6.305c1.581,6.055,2.157,12.359,2.49,18.591
					c0.925,17.316-0.236,34.764-1.89,52.002c-1.013,10.564-2.3,21.102-3.824,31.605c-0.274,1.888,2.616,2.704,2.893,0.798
					c2.766-19.068,4.873-38.269,5.745-57.522c0.383-8.459,0.531-16.944,0.148-25.406c-0.3-6.639-0.862-13.366-2.414-19.844
					c-1.108-4.625-2.801-9.902-6.827-12.818C175.814,354.547,174.315,357.149,175.866,358.272L175.866,358.272z"/>
			</g>
		</g>
		<g>
			<g>
				<path d="M150.809,262.765c0.325-0.09-0.357,0.203,0.056,0.006c0.215-0.102-0.422,0.073-0.081-0.008
					c0.055-0.013,0.231,0.057,0.278,0.086c-0.614-0.37,0.541,0.465,0.089,0.07c0.257,0.225,0.456,0.482,0.453,0.476
					c1.212,1.774,1.354,4.41,1.38,6.624c0.051,4.374-0.577,8.752-1.74,12.965c-0.41,1.487-0.886,2.957-1.438,4.398
					c-0.283,0.737-0.316,0.841-0.579,1.4c-0.817,1.737,1.768,3.262,2.59,1.514c2.309-4.91,3.51-10.445,3.978-15.821
					c0.27-3.106,0.369-6.337-0.324-9.4c-0.351-1.548-0.982-3.198-2.198-4.277c-0.873-0.774-2.095-1.249-3.26-0.926
					C148.153,260.387,148.942,263.282,150.809,262.765L150.809,262.765z"/>
			</g>
		</g>
	</g>
	<path clip-path="url(#SVGID_00000064337350072944924640000008261374566220155812_)" fill="#FFFFFF" d="M57.198,67.649
		c0-0.541,0.439-0.98,0.98-0.98h1.471v56.865h-1.471c-0.541,0-0.98-0.439-0.98-0.98V67.649z"/>
	<path clip-path="url(#SVGID_00000064337350072944924640000008261374566220155812_)" fill="#FFFFFF" d="M57.198,139.711
		c0-0.541,0.439-0.98,0.98-0.98h1.471v56.865h-1.471c-0.541,0-0.98-0.439-0.98-0.98V139.711z"/>
	<path clip-path="url(#SVGID_00000064337350072944924640000008261374566220155812_)" fill="#FFFFFF" d="M431.218,175.007
		c0,0.541-0.439,0.98-0.98,0.98h-1.471v-90.2h1.471c0.541,0,0.98,0.439,0.98,0.98V175.007z"/>
	<circle clip-path="url(#SVGID_00000064337350072944924640000008261374566220155812_)" cx="340.974" cy="211.806" r="1.279"/>
	<circle clip-path="url(#SVGID_00000064337350072944924640000008261374566220155812_)" cx="328.218" cy="204.57" r="1.279"/>
	<circle clip-path="url(#SVGID_00000064337350072944924640000008261374566220155812_)" cx="289.156" cy="197.632" r="1.279"/>
	<circle clip-path="url(#SVGID_00000064337350072944924640000008261374566220155812_)" cx="302.498" cy="204.04" r="1.279"/>
	<circle clip-path="url(#SVGID_00000064337350072944924640000008261374566220155812_)" cx="281.354" cy="200.748" r="1.279"/>
	<circle clip-path="url(#SVGID_00000064337350072944924640000008261374566220155812_)" cx="294.046" cy="205.319" r="1.279"/>
	<circle clip-path="url(#SVGID_00000064337350072944924640000008261374566220155812_)" cx="324.938" cy="220.262" r="1.279"/>
	<circle clip-path="url(#SVGID_00000064337350072944924640000008261374566220155812_)" cx="339.695" cy="264.931" r="1.279"/>
	<circle clip-path="url(#SVGID_00000064337350072944924640000008261374566220155812_)" cx="339.695" cy="251.894" r="1.279"/>
	<circle clip-path="url(#SVGID_00000064337350072944924640000008261374566220155812_)" cx="328.218" cy="249.337" r="1.279"/>
	<circle clip-path="url(#SVGID_00000064337350072944924640000008261374566220155812_)" cx="330.776" cy="244.162" r="1.279"/>
	<circle clip-path="url(#SVGID_00000064337350072944924640000008261374566220155812_)" cx="337.001" cy="220.262" r="1.279"/>
	<circle clip-path="url(#SVGID_00000064337350072944924640000008261374566220155812_)" cx="342.808" cy="225.257" r="1.279"/>
	<circle clip-path="url(#SVGID_00000064337350072944924640000008261374566220155812_)" cx="326.867" cy="174.759" r="1.279"/>
	<circle clip-path="url(#SVGID_00000064337350072944924640000008261374566220155812_)" cx="331.356" cy="160.797" r="1.279"/>
	<circle clip-path="url(#SVGID_00000064337350072944924640000008261374566220155812_)" cx="315.324" cy="160.78" r="1.279"/>
	<circle clip-path="url(#SVGID_00000064337350072944924640000008261374566220155812_)" cx="317.78" cy="172.591" r="1.279"/>
	<circle clip-path="url(#SVGID_00000064337350072944924640000008261374566220155812_)" cx="314.072" cy="179.292" r="1.279"/>
	<circle clip-path="url(#SVGID_00000064337350072944924640000008261374566220155812_)" cx="266.696" cy="175.239" r="1.279"/>
	<circle clip-path="url(#SVGID_00000064337350072944924640000008261374566220155812_)" cx="280.478" cy="180.252" r="1.279"/>
	<circle clip-path="url(#SVGID_00000064337350072944924640000008261374566220155812_)" cx="281.101" cy="164.233" r="1.279"/>
	<circle clip-path="url(#SVGID_00000064337350072944924640000008261374566220155812_)" cx="269.206" cy="166.24" r="1.279"/>
	<circle clip-path="url(#SVGID_00000064337350072944924640000008261374566220155812_)" cx="262.649" cy="162.282" r="1.279"/>
	<circle clip-path="url(#SVGID_00000064337350072944924640000008261374566220155812_)" cx="218.25" cy="159.949" r="1.279"/>
	<circle clip-path="url(#SVGID_00000064337350072944924640000008261374566220155812_)" cx="230.328" cy="151.63" r="1.279"/>
	<circle clip-path="url(#SVGID_00000064337350072944924640000008261374566220155812_)" cx="217.641" cy="141.831" r="1.279"/>
	<circle clip-path="url(#SVGID_00000064337350072944924640000008261374566220155812_)" cx="212.376" cy="152.684" r="1.279"/>
	<circle clip-path="url(#SVGID_00000064337350072944924640000008261374566220155812_)" cx="205.348" cy="155.729" r="1.279"/>
	<circle clip-path="url(#SVGID_00000064337350072944924640000008261374566220155812_)" cx="252.227" cy="109.916" r="1.279"/>
	<circle clip-path="url(#SVGID_00000064337350072944924640000008261374566220155812_)" cx="238.426" cy="104.955" r="1.279"/>
	<circle clip-path="url(#SVGID_00000064337350072944924640000008261374566220155812_)" cx="237.863" cy="120.976" r="1.279"/>
	<circle clip-path="url(#SVGID_00000064337350072944924640000008261374566220155812_)" cx="249.751" cy="118.924" r="1.279"/>
	<circle clip-path="url(#SVGID_00000064337350072944924640000008261374566220155812_)" cx="256.322" cy="122.858" r="1.279"/>
	<circle clip-path="url(#SVGID_00000064337350072944924640000008261374566220155812_)" cx="292.244" cy="126.608" r="1.279"/>
	<circle clip-path="url(#SVGID_00000064337350072944924640000008261374566220155812_)" cx="289.16" cy="140.946" r="1.279"/>
	<circle clip-path="url(#SVGID_00000064337350072944924640000008261374566220155812_)" cx="305.115" cy="139.375" r="1.279"/>
	<circle clip-path="url(#SVGID_00000064337350072944924640000008261374566220155812_)" cx="301.502" cy="127.865" r="1.279"/>
	<circle clip-path="url(#SVGID_00000064337350072944924640000008261374566220155812_)" cx="304.528" cy="120.83" r="1.279"/>
	<circle clip-path="url(#SVGID_00000064337350072944924640000008261374566220155812_)" cx="224.363" cy="189.29" r="1.279"/>
	<circle clip-path="url(#SVGID_00000064337350072944924640000008261374566220155812_)" cx="209.697" cy="189.309" r="1.279"/>
	<circle clip-path="url(#SVGID_00000064337350072944924640000008261374566220155812_)" cx="214.606" cy="204.57" r="1.279"/>
	<circle clip-path="url(#SVGID_00000064337350072944924640000008261374566220155812_)" cx="225.092" cy="198.604" r="1.279"/>
	<circle clip-path="url(#SVGID_00000064337350072944924640000008261374566220155812_)" cx="232.608" cy="200.074" r="1.279"/>
	<circle clip-path="url(#SVGID_00000064337350072944924640000008261374566220155812_)" cx="163.379" cy="150.312" r="1.279"/>
	<circle clip-path="url(#SVGID_00000064337350072944924640000008261374566220155812_)" cx="160.734" cy="164.737" r="1.279"/>
	<circle clip-path="url(#SVGID_00000064337350072944924640000008261374566220155812_)" cx="176.633" cy="162.681" r="1.279"/>
	<circle clip-path="url(#SVGID_00000064337350072944924640000008261374566220155812_)" cx="172.671" cy="151.287" r="1.279"/>
	<circle clip-path="url(#SVGID_00000064337350072944924640000008261374566220155812_)" cx="175.481" cy="144.162" r="1.279"/>
	<circle clip-path="url(#SVGID_00000064337350072944924640000008261374566220155812_)" cx="145.57" cy="212.343" r="1.279"/>
	<circle clip-path="url(#SVGID_00000064337350072944924640000008261374566220155812_)" cx="175.354" cy="218.983" r="1.279"/>
	<circle clip-path="url(#SVGID_00000064337350072944924640000008261374566220155812_)" cx="160.236" cy="212.285" r="1.279"/>
	<circle clip-path="url(#SVGID_00000064337350072944924640000008261374566220155812_)" cx="155.285" cy="197.037" r="1.279"/>
	<circle clip-path="url(#SVGID_00000064337350072944924640000008261374566220155812_)" cx="173.549" cy="235.377" r="1.279"/>
	<circle clip-path="url(#SVGID_00000064337350072944924640000008261374566220155812_)" cx="168.121" cy="252.1" r="1.279"/>
	<circle clip-path="url(#SVGID_00000064337350072944924640000008261374566220155812_)" cx="157.209" cy="248.04" r="1.279"/>
	<circle clip-path="url(#SVGID_00000064337350072944924640000008261374566220155812_)" cx="149.126" cy="248.547" r="1.279"/>
	<circle clip-path="url(#SVGID_00000064337350072944924640000008261374566220155812_)" cx="151.654" cy="253.352" r="1.279"/>
	<circle clip-path="url(#SVGID_00000064337350072944924640000008261374566220155812_)" cx="144.927" cy="264.418" r="1.279"/>
	<circle clip-path="url(#SVGID_00000064337350072944924640000008261374566220155812_)" cx="144.816" cy="203.031" r="1.279"/>
	<circle clip-path="url(#SVGID_00000064337350072944924640000008261374566220155812_)" cx="137.296" cy="201.582" r="1.279"/>
	
		<path clip-path="url(#SVGID_00000064337350072944924640000008261374566220155812_)" fill="#FFFFFF" stroke="#000000" stroke-width="1.5" stroke-linecap="round" stroke-linejoin="round" stroke-miterlimit="10" d="
		M394.332,100.897L394.332,100.897c-0.647,0.942-1.685,1.541-2.824,1.632l-14.264,1.134c-2.667,0.212-4.71-2.331-3.927-4.889
		l1.242-4.062c0.686-2.243,3.222-3.331,5.32-2.284l4.38,2.187c0.539,0.269,1.134,0.406,1.736,0.399l5.17-0.058
		C394.237,94.922,396.072,98.365,394.332,100.897z"/>
	
		<path clip-path="url(#SVGID_00000064337350072944924640000008261374566220155812_)" fill="#FFFFFF" stroke="#000000" stroke-width="1.5" stroke-linecap="round" stroke-linejoin="round" stroke-miterlimit="10" d="
		M349.787,78.544l-2.611,3.798c-0.514,0.748-1.538,0.935-2.284,0.417l-4.494-3.122c-0.996-0.692-0.921-2.188,0.139-2.776
		l2.492-1.384c0.317-0.176,0.684-0.242,1.043-0.187l4.613,0.707C349.879,76.181,350.471,77.549,349.787,78.544z"/>
	
		<path clip-path="url(#SVGID_00000064337350072944924640000008261374566220155812_)" fill="#FFFFFF" stroke="#000000" stroke-width="1.5" stroke-linecap="round" stroke-linejoin="round" stroke-miterlimit="10" d="
		M364.882,112.939c0,0,5.867,1.225,8.757,1.225c2.891,0,5.234-0.1,5.234-2.177s-2.343-3.762-5.234-3.762
		C370.749,108.225,364.882,112.939,364.882,112.939z"/>
</g>
</svg>
