<?xml version="1.0" encoding="utf-8"?>
<!-- Generator: Adobe Illustrator 23.0.3, SVG Export Plug-In . SVG Version: 6.00 Build 0)  -->
<svg version="1.1" id="Слой_1" xmlns="http://www.w3.org/2000/svg" xmlns:xlink="http://www.w3.org/1999/xlink" x="0px" y="0px"
	 viewBox="0 0 495.62 141.22" style="enable-background:new 0 0 495.62 141.22;" xml:space="preserve">
<style type="text/css">
	.st0{fill:#FF6900;}
	.st1{fill:#FFFFFF;}
</style>
<path d="M147.9,53.12h-11.48c-2.32,0-4.24,1.7-4.24,4.35v26.46c0,2.66,1.92,4.18,4.24,4.18h11.48c10.23,0,18.09-7.12,18.09-17.58
	C165.99,60.13,158.13,53.12,147.9,53.12z M147.9,79.97h-7.24V61.26h7.24c5.82,0,9.72,3.45,9.72,9.27
	C157.62,76.35,153.72,79.97,147.9,79.97z"/>
<path d="M188.43,52.84c-10.12,0-17.92,7.63-17.92,17.81c0,10.29,7.8,17.81,17.92,17.81c10.12,0,17.92-7.8,17.92-17.92
	C206.36,60.36,198.55,52.84,188.43,52.84z M188.43,80.48c-5.54,0-9.55-4.18-9.55-9.89c0-5.6,4.01-9.78,9.55-9.78
	c5.6,0,9.55,4.18,9.55,9.78C197.99,76.3,194.2,80.48,188.43,80.48z"/>
<path d="M227.73,53.12h-11.48c-2.32,0-4.24,1.7-4.24,4.35v26.46c0,2.66,1.92,4.18,4.24,4.18h11.48c10.23,0,18.09-7.12,18.09-17.58
	C245.82,60.13,237.96,53.12,227.73,53.12z M227.73,79.97h-7.24V61.26h7.24c5.82,0,9.72,3.45,9.72,9.27
	C237.45,76.35,233.55,79.97,227.73,79.97z"/>
<path d="M268.26,52.84c-10.12,0-17.92,7.63-17.92,17.81c0,10.29,7.8,17.81,17.92,17.81c10.12,0,17.92-7.8,17.92-17.92
	C286.18,60.36,278.38,52.84,268.26,52.84z M268.26,80.48c-5.54,0-9.55-4.18-9.55-9.89c0-5.6,4.01-9.78,9.55-9.78
	c5.6,0,9.55,4.18,9.55,9.78C277.81,76.3,274.03,80.48,268.26,80.48z"/>
<path d="M320.72,53.12h-14.13c-2.32,0-4.18,1.53-4.18,4.18v26.97c0,2.66,1.92,4.18,4.3,4.18c2.32,0,4.18-1.53,4.18-4.18v-6.33h9.84
	c7.63,0,12.44-5.37,12.44-12.44C333.16,58.38,328.35,53.12,320.72,53.12z M320.72,69.97h-9.84v-8.88h9.84
	c2.77,0,4.24,2.04,4.24,4.47C324.96,67.99,323.49,69.97,320.72,69.97z"/>
<path d="M344.01,52.84c-2.37,0-4.35,1.58-4.35,4.24v27.14c0,2.66,1.98,4.24,4.35,4.24c2.37,0,4.35-1.58,4.35-4.24V57.08
	C348.37,54.42,346.39,52.84,344.01,52.84z"/>
<path d="M383.81,80.08h-17.58l17.41-15.66c2.49-2.2,3.51-4.01,3.51-6.39V57.7c0-2.88-1.75-4.58-4.92-4.58h-22.22
	c-2.66,0-4.18,1.87-4.18,4.13c0,2.32,1.53,3.9,4.18,3.9h16.28L359.5,76.3c-3.28,2.94-4.07,4.69-4.07,6.84v0.4
	c0,2.83,1.81,4.58,4.86,4.58h23.52c2.66,0,4.18-1.81,4.18-4.07C388,81.72,386.47,80.08,383.81,80.08z"/>
<path d="M420.62,80.08h-17.58l17.41-15.66c2.49-2.2,3.5-4.01,3.5-6.39V57.7c0-2.88-1.75-4.58-4.92-4.58h-22.22
	c-2.66,0-4.18,1.87-4.18,4.13c0,2.32,1.53,3.9,4.18,3.9h16.28L396.31,76.3c-3.28,2.94-4.07,4.69-4.07,6.84v0.4
	c0,2.83,1.81,4.58,4.86,4.58h23.52c2.66,0,4.18-1.81,4.18-4.07C424.8,81.72,423.27,80.08,420.62,80.08z"/>
<path d="M463.13,82.18l-11.53-25.1c-1.3-2.77-3.11-3.96-5.71-3.96h-0.45c-2.71,0-4.52,1.19-5.82,3.96l-11.53,25.1
	c-1.13,2.49-0.34,4.69,1.92,5.54c2.03,0.79,4.07,0.34,5.2-2.03l2.6-5.48c2.32,0.79,5.2,1.19,7.91,1.19c2.88,0,5.43-0.4,7.58-1.19
	l2.49,5.43c1.07,2.37,3.28,2.83,5.26,2.09C463.3,86.87,464.2,84.55,463.13,82.18z M445.72,73.87c-1.75,0-3.62-0.23-5.03-0.62
	l4.92-10.97l4.92,10.97C449.16,73.64,447.47,73.87,445.72,73.87z"/>
<g>
	<path class="st0" d="M67.15,35.61c20.38,0,36.04,14.02,36.04,34.83c0,20.92-15.65,35.17-36.04,35.17H44.29
		c-4.62,0-8.45-3.05-8.45-8.37V44.32c0-5.31,3.83-8.71,8.45-8.71H67.15z"/>
	<path d="M46.82,105.61c5.85-3.24,8.75-6.21,10.76-8.99c3.92,1.75,7.68,2.5,11.08,2.5c6.37,0,11.79-2.93,14.62-8.16
		c2.91-1.75,4.84-5.34,4.96-7.91c1.81-2.28,2.15-5.16,1.59-7.11c-0.13-0.46-0.51-0.48-1.16-0.08c-5.74,3.44-11.29,5.08-16.59,5.08
		c-3.22,0-6.51-0.51-10.02-1.53c-0.25-3.76-1.02-6.91-1.31-8.82c-0.41-2.52,0.17-4.39,2.94-4.39c2.03,0,5.79,0.52,8.8,1.88
		c2.98,1.35,4.75,4.02,5.98,4.02c0.5,0,1.03-0.31,1.03-1.37c0-2.15-0.77-5.62-1.72-6.86c2.78-0.16,5-0.13,6.24,0.01
		c2.59,0.45,2.71,1.75,3.22,2.6c0.51,0.85,1.38,1.22,2.42,1.22c1.93,0,3.13-0.99,3.13-4.58c0-7.88-4.98-11.71-10.2-11.71
		c-4.29,0-5.94,0.94-10.01,0.94c-2.89,0-5.28-5.87-8.56-6.65c-1.45-3.22-4.7-3.59-6.7-1.97c-1.82-1.11-4.66-0.51-4.78,1.53
		c-2.09-0.65-4.79,0.48-3.63,3.23c-5.11,0.15-6.07,4.67-2.6,5.17c-4.47,2.53-2.43,6.89,1.32,5.97c0.26,3.1,1.52,8.11,1.52,11.56
		c0,4.81-2.18,5.92-5.16,5.92c-2.36,0-5.81-0.86-8.16-1.52v3.35c2.37,0.59,5.93,1.35,8.59,1.35c4.7,0,7.31-2.76,7.31-8.01
		c0-6.45-2.06-12.31-1.39-15.98l-0.17-0.21c-2.35,2.45-3.87,1.8-4.04,1.01c-0.33-1.58,2.41-3.51,3.98-4.19
		c0.03-0.1,0.07-0.21,0.11-0.32c-1.47,0.23-3.2,0.04-3.26-1.01c-0.07-1.25,2.43-2.36,5.7-2.08c0.06-0.05,0.13-0.1,0.19-0.16
		c-0.21-0.08-0.43-0.18-0.7-0.33c-0.85-0.43-1.05-1.16-0.77-1.68c0.3-0.58,1.23-0.8,1.98-0.79c1.18,0.02,2.18,0.31,2.91,0.61
		c0.08-0.04,0.17-0.07,0.25-0.1c-0.27-0.21-0.51-0.44-0.65-0.68c-0.2-0.35-0.25-0.82,0.14-1.13c0.46-0.36,1.62-0.49,2.67,0.46
		c0.22,0.2,0.4,0.39,0.57,0.57c0.12-0.02,0.23-0.04,0.35-0.06c-0.17-0.27-0.31-0.55-0.36-0.8c-0.06-0.35,0.05-0.73,0.47-0.87
		c0.45-0.15,1.03,0.09,1.33,0.53c0.32,0.47,0.51,1.06,0.64,1.47c-2.31,0.27-8.45,1.67-8.45,9.09c0,7.23,6.01,14.83,6.01,26.03
		c-0.01,4.07-0.91,8.16-4.6,12.92c-2.85,3.67-7.38,7.22-14.44,10.13c1.21,0.59,2.6,0.91,4.07,0.91H46.82z M75.08,60.12
		c0.71-2.11,1.32-3.69,2.47-4.91c1.21-1.28,2.55-1.68,5.49-1.68c4.07,0,7.47,4.11,7.47,9.86c0,0.85-1.15,0.85-1.51,0.07
		c-1.38-2.44-3.26-2.79-6.21-3.01c-2.18-0.13-4.81,0.06-7.2,0.16C75.14,60.63,75.01,60.32,75.08,60.12z M62.11,83.18
		c3.22,0.89,7.67,1.37,11.36,1.11c6.49-0.46,11.36-2.87,14.1-4.63c-1.65,4.16-7.82,6.74-13.81,7.47c-0.04,0.3-0.08,0.6-0.14,0.88
		c4.49-0.24,8.76-1.7,10.69-3.03c-1.11,4.09-6.6,5.74-11.59,5.97c-0.14,0.32-0.29,0.62-0.44,0.91c2.9,0.05,5.69-0.49,7.34-1.01
		c-1.49,2.85-6.64,5.1-11.88,5.1c-2.58,0-5.79-0.5-8.58-1.83C61.17,90.44,61.95,86.66,62.11,83.18z"/>
	<path d="M35.84,89.17c2.46-0.49,4.88-0.94,4.88-0.94l0.31-1.33c-1.11-0.06-3.31-0.03-5.19,0.02V89.17z"/>
	<path class="st1" d="M62.33,49.6c0.86-0.29,2.09,0.56,2.75,1.89c0.66,1.33,0.5,2.64-0.36,2.93c-0.85,0.3-2.08-0.55-2.74-1.88
		c-0.09-0.18-0.16-0.36-0.22-0.54l0.15-0.04c0.27,0.26,0.6,0.33,0.82,0.19c0.3-0.2,0.27-0.72,0.02-1.18
		c-0.18-0.37-0.6-0.76-0.95-0.73l-0.06-0.08C61.87,49.89,62.06,49.69,62.33,49.6 M68.35,62.96c-3.85-0.84-8.05-1.96-10.3-5.26
		c-0.04-0.06-0.12-0.09-0.19-0.07c-0.07,0.02-0.12,0.08-0.13,0.16c-0.01,0.18,0.02,0.38,0.06,0.57l-0.3,0.11
		c-0.59-0.83-0.71-1.85-0.13-2.57c0.84-1.05,2.56-0.94,3.58-0.29l-0.13,0.28c-0.55-0.09-1.07-0.09-1.48,0.16
		c-0.35,0.21-0.39,0.52-0.18,0.92c1.86,3.46,7.28,4.22,13.72,3.72c0.66-0.05,0.82-0.35,0.9-0.67c0.56-2.23,1.57-4.22,3.08-5.74
		c-1.17,0.16-2.27,0.2-3.22,0.25c-3.33,0.21-5.23-0.23-5.82-0.7l0.11-0.29c0.35,0.12,0.72,0.15,0.8,0.05
		c0.1-0.14,0.02-0.23-0.14-0.37c-0.63-0.59-3.47-3.5-3.46-3.48c-0.31-2.46-3.89-2.55-5.32-0.13l-0.49-0.13
		c0.14-0.53,0.35-0.96,0.55-1.28c-2.99,0.68-4.69,3.36-5,5.95c-1.33,11.14,15.58,8.57,20.41,13.03c0.09,0.07,0.32,0.4,0.49,0.19
		C75.96,66.77,73.83,64.17,68.35,62.96"/>
	<path class="st1" d="M87.56,79.66c-2.74,1.76-7.61,4.18-14.1,4.63c-3.69,0.26-8.14-0.22-11.36-1.11c-0.05,1.07-0.16,2.18-0.34,3.3
		c1.81,0.47,5.04,1.08,9.7,1.21c-0.21,1.25-1.48,5.5-4.73,8.25c5.93,0.25,11.31-2.06,12.89-5.07c-1.66,0.52-4.44,1.06-7.34,1.01
		c0.15-0.29,0.3-0.59,0.44-0.91c4.99-0.24,10.48-1.88,11.59-5.97c-1.93,1.33-6.2,2.79-10.69,3.03c0.05-0.29,0.1-0.58,0.14-0.88
		C79.73,86.4,85.91,83.81,87.56,79.66z"/>
</g>
</svg>
