<?xml version="1.0" encoding="utf-8"?>
<!-- Generator: Adobe Illustrator 26.2.1, SVG Export Plug-In . SVG Version: 6.00 Build 0)  -->
<svg version="1.1" id="Слой_1" xmlns="http://www.w3.org/2000/svg" xmlns:xlink="http://www.w3.org/1999/xlink" x="0px" y="0px"
	 viewBox="0 0 487.173 457.89" enable-background="new 0 0 487.173 457.89" xml:space="preserve">
<g>
	<defs>
		<rect id="SVGID_00000145737701296235651970000010997797291580174744_" x="62.25" y="61.971" width="333.496" height="333.496"/>
	</defs>
	<clipPath id="SVGID_00000030460315466404759160000007673488236124877962_">
		<use xlink:href="#SVGID_00000145737701296235651970000010997797291580174744_"  overflow="visible"/>
	</clipPath>
	<g clip-path="url(#SVGID_00000030460315466404759160000007673488236124877962_)">
		<path fill="#FFFFFF" d="M377.122,207.368c-0.035-0.208-0.059-0.41-0.098-0.621c-0.484-2.686-1.252-5.566-2.328-8.657
			c-0.098-0.28-0.189-0.556-0.292-0.839c-0.001-0.001-0.001-0.003-0.002-0.005c-0.292-0.805-0.6-1.621-0.933-2.455
			c-3.798-9.488-21.072-24.423-43.32-39.532c-1.027-0.697-2.064-1.394-3.111-2.092c-8.987-5.986-18.689-11.958-28.588-17.593
			c-0.774-0.441-1.55-0.88-2.326-1.316c-1.381-0.777-2.765-1.546-4.151-2.307c-0.761-0.418-1.523-0.834-2.285-1.248
			c-2.858-1.551-5.719-3.07-8.571-4.541c-3.23-1.667-6.448-3.278-9.635-4.821s-6.345-3.021-9.455-4.419
			c-5.183-2.331-10.232-4.444-15.063-6.288c-5.798-2.213-11.283-4.038-16.311-5.385c-1.676-0.449-3.301-0.845-4.87-1.185
			c-0.784-0.17-1.555-0.325-2.311-0.467c-0.858-0.16-1.693-0.297-2.512-0.419c-2.056-0.307-3.987-0.493-5.778-0.548
			c-0.637-0.02-1.258-0.025-1.858-0.01c-9.805,0.238-16.156,2.594-20.168,5.994c-0.752,0.637-1.422,1.312-2.017,2.016
			c-0.198,0.235-0.388,0.472-0.57,0.714c-0.253,0.334-0.484,0.677-0.707,1.022c-0.418,0.65-0.789,1.316-1.108,1.998
			c-0.244,0.522-0.46,1.052-0.65,1.587c-0.285,0.804-0.513,1.621-0.69,2.443c-0.059,0.274-0.113,0.549-0.161,0.824
			c-0.096,0.551-0.171,1.103-0.227,1.655c-0.028,0.276-0.051,0.552-0.07,0.827c-0.037,0.551-0.056,1.1-0.06,1.646
			c-0.007,1.122,0.055,2.227,0.163,3.3c0.046,0.459,0.102,0.911,0.164,1.356c0.086,0.615,0.189,1.211,0.3,1.794
			c0.045,0.236,0.091,0.468,0.139,0.698c0.3,1.438,0.652,2.748,0.998,3.872c0.112,0.364,0.224,0.716,0.332,1.038
			c0.255,0.76,0.49,1.391,0.682,1.883c0.163,0.415,0.296,0.732,0.376,0.919c0.059,0.136,0.092,0.207,0.092,0.207
			c-37.827,39.784-62.12,89.819-78.737,131.098c-0.194,0.481-0.386,0.961-0.578,1.439c-0.662,1.654-1.31,3.291-1.948,4.915
			c-0.491,1.249-0.974,2.489-1.451,3.719c-0.804,2.075-1.589,4.122-2.355,6.138c-1.314,3.46-2.574,6.828-3.781,10.092
			c-0.38,1.027-0.755,2.043-1.125,3.049c-1.654,4.497-3.21,8.776-4.678,12.802c-0.251,0.689-0.5,1.37-0.746,2.044
			c-5.609,15.349-9.929,26.741-13.653,31.893l0.413-0.167l4.613,7.867l21.471-15.601l36.416-17.444l25.216-10.158
			c13.125,14.631,31.506,24.634,52.576,26.831c11.499,1.199,22.688-0.053,33.065-3.313l-1.055,13.75l27.503-11.343l-10.715-9.244
			c22.379-12.635,38.532-35.527,41.398-63.01c0.396-3.792,0.504-7.548,0.383-11.256c0.453-0.151,0.911-0.299,1.375-0.445
			c0.943-0.298,1.907-0.586,2.889-0.868c0.982-0.282,1.982-0.557,2.997-0.827c0.508-0.135,1.019-0.269,1.533-0.402
			c1.544-0.398,3.118-0.788,4.713-1.174c1.595-0.386,3.21-0.769,4.836-1.155c2.71-0.644,5.448-1.296,8.169-1.986
			c1.089-0.276,2.174-0.558,3.254-0.847s2.154-0.587,3.219-0.895c1.598-0.461,3.177-0.943,4.725-1.454
			c1.549-0.51,3.068-1.049,4.548-1.622c2.959-1.145,5.76-2.426,8.322-3.894c0.854-0.489,1.681-0.999,2.479-1.531
			c0.798-0.532,1.566-1.087,2.302-1.666c1.472-1.158,2.814-2.414,4.003-3.781c0.594-0.684,1.15-1.396,1.665-2.137
			c0.367-0.53,0.706-1.08,1.03-1.64c0.357-0.617,0.695-1.248,0.997-1.905c0.576-1.253,1.048-2.58,1.408-3.985
			c0.24-0.937,0.429-1.91,0.565-2.92s0.219-2.057,0.246-3.143C377.705,212.105,377.528,209.815,377.122,207.368z"/>
		<polygon fill="#FFFFFF" points="284.673,359.543 284.562,350.03 287.969,348.625 284.646,340.567 277.093,343.682 
			272.097,345.743 269.582,346.78 262.16,349.841 254.839,352.861 258.161,360.918 261.599,359.5 267.679,366.531 		"/>
		
			<rect x="257.634" y="341.527" transform="matrix(0.9245 -0.3813 0.3813 0.9245 -110.8728 128.5029)" fill="#FFFFFF" width="22.478" height="5.08"/>
		
			<rect x="292.091" y="357.2" transform="matrix(0.9245 -0.3813 0.3813 0.9245 -142.5494 149.4138)" fill="#FFFFFF" width="27.418" height="154.515"/>
	</g>
	<g clip-path="url(#SVGID_00000030460315466404759160000007673488236124877962_)">
		<g>
			<path fill-rule="evenodd" clip-rule="evenodd" fill="#FF6900" d="M127.501,233.063c7.854-1.859,34.411,11.258,22.189,37.12
				c-11.188,23.672-37.726,13.352-40.243,4.856"/>
			<g>
				<path d="M127.9,234.51c0.098-0.022,0.673-0.114,0.275-0.064c0.205-0.026,0.412-0.04,0.618-0.049
					c0.509-0.021,1.017,0.005,1.523,0.051c0.717,0.065,2.03,0.352,3.003,0.641c2.628,0.779,5.102,2.023,7.374,3.548
					c5.394,3.62,9.522,9.173,10.465,15.695c1.184,8.192-2.543,17.582-8.446,23.249c-4.928,4.731-11.864,6.521-18.532,5.313
					c-3.166-0.574-6.24-1.698-8.942-3.458c-1.078-0.702-2.045-1.481-2.928-2.463c-0.59-0.656-1.199-1.627-1.417-2.333
					c-0.568-1.839-3.465-1.054-2.893,0.798c1.642,5.311,8.022,8.415,12.949,9.79c7.144,1.994,15.128,1.115,21.214-3.307
					c3.766-2.736,6.64-6.481,8.664-10.651c2.141-4.41,3.579-9.25,3.527-14.186c-0.081-7.646-3.93-14.605-9.837-19.333
					c-2.85-2.281-6.056-4.102-9.52-5.274c-2.476-0.838-5.295-1.446-7.895-0.859C125.22,232.042,126.016,234.935,127.9,234.51
					L127.9,234.51z"/>
			</g>
		</g>
		<g>
			<defs>
				<path id="SVGID_00000117648708260381492180000008250125048596517797_" d="M81.092,345.602
					c14.326-19.821,37.446-131.877,109.052-207.189c0,0-16.04-34.841,23.181-35.793c37.877-0.92,149.722,66.136,160.145,92.171
					c19.497,48.703-33.74,48.062-62.483,58.199"/>
			</defs>
			<clipPath id="SVGID_00000004520309100842190410000007224497468457710755_">
				<use xlink:href="#SVGID_00000117648708260381492180000008250125048596517797_"  overflow="visible"/>
			</clipPath>
			<g clip-path="url(#SVGID_00000004520309100842190410000007224497468457710755_)">
				<path fill-rule="evenodd" clip-rule="evenodd" fill="#FF6900" d="M176.886,196.084c0,0-12.645-25.099,14.163-35.846
					c24.182-9.695,33.757,15.353,33.757,15.353"/>
				<g>
					<path d="M178.181,195.327c-0.106-0.212-0.2-0.43-0.298-0.646c-0.03-0.066-0.175-0.41-0.067-0.154
						c0.109,0.258-0.057-0.14-0.086-0.214c-0.139-0.358-0.28-0.715-0.41-1.076c-0.711-1.972-1.244-4.012-1.578-6.082
						c-0.899-5.562-0.035-11.518,3.258-16.286c2.246-3.252,5.474-5.707,8.935-7.546c3.964-2.106,8.411-3.641,12.927-3.8
						c6.522-0.229,12.337,2.702,16.684,7.444c1.737,1.894,3.207,4.006,4.455,6.262c0.402,0.726,0.78,1.465,1.123,2.22
						c0.053,0.117,0.104,0.236,0.158,0.353c0.16,0.35-0.025-0.063-0.018-0.047c0.033,0.078,0.065,0.157,0.096,0.236
						c0.685,1.784,3.587,1.009,2.893-0.798c-3.636-9.469-12.263-17.691-22.62-18.6c-4.552-0.399-9.147,0.627-13.344,2.346
						c-4.325,1.772-8.466,4.195-11.667,7.65c-4.708,5.081-6.702,11.874-6.107,18.715c0.341,3.923,1.299,7.996,3.076,11.537
						C176.456,198.567,179.045,197.049,178.181,195.327L178.181,195.327z"/>
				</g>
			</g>
		</g>
		<g>
			<g>
				<path d="M82.387,346.359c1.849-2.573,3.216-5.493,4.507-8.374c1.895-4.228,3.58-8.55,5.222-12.881
					c4.572-12.058,8.839-24.229,13.387-36.297c5.861-15.552,12.084-30.97,18.992-46.088c7.801-17.073,16.446-33.777,26.247-49.792
					c10.376-16.956,22.054-33.146,35.358-47.933c1.677-1.863,3.38-3.703,5.105-5.521c0.498-0.525,0.522-1.191,0.235-1.818
					c-0.054-0.117-0.104-0.235-0.154-0.353c0.248,0.585-0.182-0.46-0.268-0.684c-0.448-1.169-0.839-2.359-1.181-3.563
					c-1.017-3.576-1.583-7.093-1.41-10.812c0.191-4.102,1.515-8.195,4.385-11.238c4.225-4.479,10.644-6.118,16.577-6.663
					c10.046-0.923,19.896,1.758,29.345,4.923c12.491,4.183,24.553,9.627,36.329,15.502c13.173,6.572,26.027,13.795,38.54,21.549
					c11.589,7.182,22.958,14.804,33.695,23.217c7.633,5.981,15.661,12.503,21.458,20.246c2.966,3.962,4.367,7.747,5.704,12.512
					c1.659,5.908,2.47,12.3,0.75,18.29c-2.957,10.295-12.929,15.867-22.34,19.325c-11.238,4.13-23.097,6.146-34.62,9.285
					c-2.578,0.702-5.14,1.466-7.661,2.35c-1.81,0.635-1.031,3.534,0.798,2.893c11.415-4.005,23.462-5.871,35.054-9.273
					c10.498-3.08,22.182-7.44,28.516-16.952c3.133-4.705,4.389-10.371,4.183-15.976c-0.241-6.582-2.031-13.694-5-19.577
					c-1.703-3.374-4.207-6.364-6.745-9.135c-3.467-3.785-7.275-7.256-11.183-10.577c-10.148-8.623-21.082-16.33-32.233-23.591
					c-12.706-8.273-25.812-15.947-39.236-22.995c-12.532-6.58-25.375-12.677-38.636-17.648c-9.695-3.634-20.054-7.14-30.493-7.569
					c-11.262-0.462-25.094,2.826-29.072,14.756c-2.32,6.958-0.954,14.982,1.647,21.678c0.208,0.536,0.423,1.071,0.663,1.593
					c0.078-0.606,0.156-1.212,0.235-1.818c-13.774,14.512-25.935,30.505-36.724,47.341c-10.276,16.036-19.322,32.84-27.455,50.055
					c-7.269,15.388-13.808,31.112-19.91,46.996c-4.867,12.669-9.406,25.458-14.128,38.181c-2.911,7.842-5.629,16.147-10.015,23.323
					c-0.333,0.544-0.682,1.078-1.054,1.596C78.668,346.415,81.269,347.915,82.387,346.359L82.387,346.359z"/>
				<path d="M329.647,231.209c-3.113-12.872-3.56-29.57,8.373-38.113c4.065-2.91,8.96-4.49,13.795-4.81
					c2.379-0.157,4.927-0.033,7.059,0.34c1.152,0.201,2.293,0.469,3.412,0.807c1.051,0.318,2.151,0.73,2.932,1.089
					c2.183,1.003,3.917,2.127,5.457,3.723c0.826,0.856,1.159,1.274,1.772,2.363c0.527,0.937,0.741,1.465,1.012,2.672
					c0.424,1.883,3.317,1.086,2.893-0.798c-2.165-9.623-14.039-13.326-22.679-13.264c-5.473,0.039-11.013,1.433-15.694,4.31
					c-5.25,3.227-9.072,8.182-11.171,13.948c-3.315,9.103-2.283,19.311-0.053,28.53
					C327.208,233.883,330.102,233.088,329.647,231.209L329.647,231.209z"/>
			</g>
		</g>
		<g>
			<g>
				<path d="M237.917,183.452c14.44,1.542,28.175,7.743,38.912,17.515c10.592,9.639,18.092,22.4,21.459,36.313
					c3.535,14.606,2.391,30.198-3.096,44.178c-5.228,13.32-14.549,25.026-26.389,33.065c-11.911,8.087-26.135,12.381-40.542,12.018
					c-14.603-0.368-28.928-5.481-40.441-14.482c-11.23-8.78-19.661-20.946-24.014-34.514c-4.585-14.289-4.615-29.855-0.179-44.187
					c4.292-13.865,12.779-26.246,24.142-35.272c11.158-8.864,25.064-14.203,39.303-14.926
					C230.691,182.977,234.314,183.085,237.917,183.452c1.919,0.195,1.905-2.806,0-3c-15.056-1.533-30.363,1.816-43.432,9.443
					c-12.879,7.516-23.365,18.978-29.757,32.446c-6.713,14.144-8.921,30.213-6.328,45.65c2.48,14.768,9.489,28.69,19.875,39.479
					c10.399,10.802,24.117,18.272,38.889,20.928c14.984,2.694,30.517,0.549,44.209-6.106c13.369-6.499,24.608-17.166,31.966-30.067
					c7.709-13.518,11.113-29.416,9.645-44.908c-1.427-15.059-7.358-29.457-17.009-41.11c-9.474-11.439-22.46-19.872-36.823-23.705
					c-3.685-0.983-7.443-1.645-11.234-2.049C236,180.247,236.014,183.249,237.917,183.452z"/>
			</g>
		</g>
		<path fill-rule="evenodd" clip-rule="evenodd" d="M238.832,173.575c45.08,4.701,77.861,45.116,73.16,90.195
			c-4.701,45.079-45.116,77.861-90.195,73.16c-45.079-4.701-77.861-45.116-73.16-90.195
			C153.337,201.656,193.753,168.874,238.832,173.575L238.832,173.575z M240.848,177.08c40.556,4.229,69.959,41.46,65.618,83.089
			c-4.341,41.629-40.793,71.993-81.349,67.763s-69.959-41.46-65.618-83.089C163.84,203.214,200.291,172.85,240.848,177.08
			L240.848,177.08z"/>
		<g>
			<g>
				<path d="M82.179,346.84c6.748-6.13,14.484-11.19,22.18-16.031c11.231-7.064,22.83-13.541,34.535-19.781
					c7.823-4.17,15.71-8.219,23.639-12.184c1.727-0.864,0.209-3.452-1.514-2.59c-13.607,6.805-27.104,13.844-40.337,21.354
					c-10.089,5.725-20.094,11.685-29.562,18.399c-3.827,2.713-7.588,5.555-11.063,8.712
					C78.626,346.019,80.752,348.136,82.179,346.84L82.179,346.84z"/>
				<path d="M79.389,346.772c1.734,2.746,3.469,5.491,5.203,8.237c0.476,0.754,1.708,1.074,2.356,0.304
					c1.99-2.367,4.367-4.462,6.731-6.44c6.121-5.119,12.947-9.103,20.081-12.627c14.299-7.064,28.874-13.53,43.251-20.426
					c4.615-2.214,9.356-4.412,13.593-7.311c1.584-1.084,0.085-3.685-1.514-2.59c-3.678,2.517-7.752,4.475-11.75,6.421
					c-6.142,2.99-12.362,5.82-18.559,8.692c-7.929,3.673-15.839,7.385-23.689,11.226c-7.613,3.725-14.937,7.68-21.616,12.939
					c-3.056,2.406-6.136,5.007-8.65,7.996c0.785,0.101,1.571,0.202,2.356,0.304c-1.734-2.746-3.469-5.491-5.203-8.237
					C80.951,343.629,78.354,345.133,79.389,346.772L79.389,346.772z"/>
				<path d="M309.726,241.029c6.681-1.496,13.412-4.221,19.156-7.929c1.617-1.044,0.114-3.642-1.514-2.59
					c-5.547,3.581-11.99,6.182-18.44,7.626C307.045,238.558,307.842,241.451,309.726,241.029L309.726,241.029z"/>
				<path d="M163.913,282.919c5.068-3.259,10.339-6.228,15.619-9.125c12.615-6.92,25.612-13.188,38.956-18.575
					c7.972-3.218,16.074-6.126,24.307-8.605c8.378-2.522,16.907-4.515,25.332-6.872c8.562-2.396,17.362-4.742,25.491-8.415
					c1.39-0.628,4.5-1.758,4.497-3.72c0-0.142-0.011-0.289-0.056-0.422c-0.622-1.816-3.521-1.036-2.893,0.798
					c-0.137-0.4-0.03-0.726,0.125-1.025c-0.182,0.351,0.269-0.407-0.086,0.084c-0.279,0.387,0.207-0.101-0.1,0.085
					c-0.19,0.116-0.37,0.249-0.561,0.365c-0.602,0.366-1.236,0.682-1.872,0.982c-1.233,0.582-1.68,0.757-2.89,1.233
					c-1.564,0.615-3.146,1.185-4.735,1.732c-5.095,1.755-10.264,3.294-15.446,4.768c-8.108,2.307-16.313,4.259-24.416,6.577
					c-8.181,2.34-16.234,5.12-24.159,8.216c-13.641,5.329-26.933,11.56-39.836,18.482c-6.259,3.357-12.605,6.761-18.537,10.684
					c-0.084,0.055-0.169,0.107-0.254,0.162C160.78,281.369,162.283,283.967,163.913,282.919L163.913,282.919z"/>
				<path d="M182.757,311.707c17.283-5.931,33.714-13.919,49.878-22.378c14.541-7.609,28.948-15.654,44.202-21.779
					c8.166-3.279,16.575-5.962,25.221-7.641c1.893-0.368,1.092-3.26-0.798-2.893c-15.555,3.02-30.216,9.3-44.345,16.316
					c-15.335,7.616-30.236,16.076-45.707,23.424c-9.534,4.528-19.264,8.631-29.25,12.058
					C180.144,309.437,180.923,312.336,182.757,311.707L182.757,311.707z"/>
				<path d="M189.741,139.988c5.238,1.402,10.417,3.051,15.564,4.749c11.823,3.903,23.497,8.318,34.837,13.465
					c12.842,5.829,25.335,12.588,36.435,21.345c12.558,9.908,24.002,21.218,34.551,33.226c5.389,6.135,10.559,12.45,15.366,19.03
					c0.072,0.098,0.142,0.198,0.213,0.297c1.106,1.564,3.709,0.067,2.59-1.514c-3.971-5.614-8.362-10.963-12.816-16.197
					c-10.063-11.825-20.974-22.995-32.88-32.975c-5.793-4.856-11.81-9.395-18.245-13.366c-6.048-3.732-12.34-7.062-18.749-10.13
					c-11.826-5.662-24.06-10.476-36.462-14.716c-6.349-2.171-12.792-4.445-19.322-6.031c-0.095-0.023-0.189-0.052-0.284-0.077
					C188.672,136.595,187.875,139.488,189.741,139.988L189.741,139.988z"/>
				<path d="M209.789,184.543c0.027,3.109,0.709,6.305,1.542,9.283c1.938,6.926,5.463,13.382,10.307,18.703
					c7.165,7.87,16.969,12.783,27.207,15.308c11.052,2.726,23.443,4.086,34.542,0.808c4.028-1.189,8.599-3.127,11.429-6.394
					c0.039-0.046,0.079-0.091,0.116-0.138c1.175-1.504-0.933-3.642-2.121-2.121c-0.514,0.658-1.191,1.211-1.842,1.725
					c0.328-0.259-0.211,0.155-0.324,0.236c-0.206,0.148-0.414,0.292-0.625,0.432c-0.464,0.309-0.939,0.599-1.424,0.873
					c-1.187,0.672-2.383,1.227-3.596,1.686c-9.578,3.621-20.446,2.937-30.319,1.081c-10.633-1.999-21.007-5.938-28.913-13.551
					c-5.084-4.895-8.87-11.035-11.027-17.722c-0.723-2.242-1.279-4.541-1.638-6.869c-0.032-0.209-0.063-0.419-0.092-0.629
					c0.061,0.438-0.026-0.21-0.043-0.361c-0.039-0.331-0.073-0.662-0.101-0.994c-0.034-0.399-0.046-0.798-0.075-1.197
					c-0.004-0.052-0.003-0.106-0.004-0.158C212.772,182.613,209.772,182.609,209.789,184.543L209.789,184.543z"/>
			</g>
		</g>
		<g>
			<g>
				<path d="M140.427,306.899c-4.388-2.748-9.732-4.849-14.921-5.146c-3.726-0.213-7.554,0.862-10.076,3.742
					c-2.606,2.977-4.669,8.234-2.382,11.928c1.436,2.32,4.261,3.542,6.911,3.736c1.926,0.141,1.917-2.86,0-3
					c-0.444-0.033,0.261,0.06-0.125-0.012c-0.436-0.081-0.867-0.168-1.293-0.295c-0.897-0.269-1.86-0.704-2.557-1.487
					c-2.202-2.477-0.11-6.974,1.813-9.02c4.233-4.504,11.568-2.385,16.457-0.255c1.595,0.695,3.181,1.474,4.658,2.399
					C140.553,310.518,142.061,307.923,140.427,306.899L140.427,306.899z"/>
				<path d="M270.351,212.419c1.187-0.205,2.425-0.161,3.582,0.18c0.893,0.263,1.833,0.794,2.319,1.402
					c0.573,0.716,0.721,1.481,0.544,2.224c-0.214,0.899-0.814,1.699-1.602,2.35c-1.798,1.485-4.507,2.054-6.766,1.542
					c-1.031-0.234-1.943-0.666-2.661-1.373c-0.564-0.556-0.831-1.365-0.759-2.08c0.043-0.427,0.219-0.884,0.473-1.311
					c0.291-0.488,0.664-0.888,1.112-1.276C267.647,213.166,269.003,212.683,270.351,212.419c0.795-0.156,1.251-1.106,1.048-1.845
					c-0.228-0.831-1.047-1.204-1.845-1.048c-3.141,0.614-6.509,2.67-7.359,5.957c-0.854,3.304,1.385,6.09,4.365,7.207
					c3.197,1.199,7.207,0.591,9.972-1.385c2.574-1.839,4.226-5.021,2.746-8.09c-1.702-3.531-6.249-4.287-9.724-3.688
					c-0.799,0.138-1.247,1.119-1.048,1.845C268.738,212.216,269.55,212.557,270.351,212.419z"/>
				<path d="M233.318,196.399c0.057-0.018,0.118-0.031,0.174-0.05c0.283-0.096-0.274-0.009-0.087,0.009
					c0.05,0.005,0.487,0.01,0.21-0.008c-0.256-0.017,0.178,0.061,0.261,0.085c0.222,0.063-0.085-0.036-0.082-0.038
					c0.033-0.018,0.249,0.131,0.274,0.146c0.09,0.053,0.422,0.31,0.145,0.077c0.119,0.099,0.236,0.199,0.347,0.308
					c0.116,0.114,0.221,0.237,0.332,0.356c0.268,0.287-0.095-0.156,0.04,0.046c0.061,0.09,0.127,0.177,0.186,0.269
					c0.111,0.17,0.214,0.345,0.31,0.524c0.044,0.082,0.086,0.165,0.126,0.248c0.016,0.033,0.139,0.298,0.071,0.144
					c-0.083-0.189,0.095,0.251,0.085,0.224c0.035,0.096,0.068,0.193,0.099,0.29c0.079,0.246,0.145,0.497,0.197,0.75
					c0.02,0.098,0.038,0.197,0.055,0.296c-0.011-0.063-0.023-0.266,0.005,0.038c0.017,0.188,0.03,0.377,0.032,0.566
					c0.002,0.181-0.012,0.361-0.019,0.542c-0.014,0.409,0.051-0.184-0.003,0.05c-0.024,0.101-0.038,0.204-0.063,0.305
					c-0.019,0.078-0.04,0.156-0.064,0.232c-0.003,0.011-0.127,0.377-0.043,0.148c0.069-0.191-0.014,0.028-0.041,0.075
					c-0.035,0.063-0.072,0.125-0.106,0.188c-0.051,0.096-0.214,0.25,0.023-0.007c-0.046,0.05-0.088,0.101-0.136,0.149
					c-0.02,0.02-0.135,0.138-0.147,0.134c0.044,0.018,0.274-0.206-0.02-0.017c-0.211,0.136,0.281-0.107-0.085,0.015
					c-0.238,0.08,0.096-0.035,0.132-0.011c-0.015-0.01-0.148,0.007-0.181,0.007c-0.015,0-0.158-0.021-0.182-0.01
					c0.173-0.083,0.311,0.07,0.077-0.003c-0.061-0.019-0.123-0.036-0.185-0.053c-0.296-0.085,0.005,0.04,0.036,0.022
					c-0.045,0.026-0.363-0.202-0.41-0.231c-0.042-0.026-0.241-0.155-0.072-0.042c0.196,0.131-0.098-0.085-0.112-0.098
					c-0.119-0.105-0.231-0.217-0.34-0.332c-0.056-0.06-0.109-0.123-0.164-0.184c-0.268-0.3,0.156,0.242-0.078-0.098
					c-0.205-0.297-0.393-0.602-0.554-0.925c-0.042-0.084-0.082-0.169-0.121-0.255c0.109,0.239-0.018-0.047-0.04-0.108
					c-0.081-0.216-0.152-0.436-0.213-0.659c-0.067-0.246-0.113-0.494-0.163-0.744c0.049,0.244,0,0.013-0.005-0.038
					c-0.012-0.142-0.024-0.284-0.029-0.427c-0.008-0.228,0.002-0.454,0.015-0.681c0.017-0.293,0.004-0.049-0.007,0.012
					c0.022-0.123,0.044-0.245,0.073-0.367c0.019-0.078,0.04-0.156,0.064-0.232c0.023-0.077,0.176-0.399,0.011-0.074
					c0.083-0.163,0.172-0.314,0.266-0.47c-0.026,0.044-0.221,0.235-0.042,0.063c0.058-0.056,0.126-0.113,0.179-0.174
					c0.117-0.137-0.301,0.154-0.027,0.032C233.416,196.371,233.7,196.257,233.318,196.399c0.733-0.272,1.312-1.028,1.048-1.845
					c-0.232-0.718-1.058-1.34-1.845-1.048c-2.254,0.837-2.944,3.309-2.664,5.514c0.285,2.251,1.388,4.567,3.357,5.813
					c1.823,1.154,4.22,0.682,5.244-1.29c1.11-2.137,0.67-4.816-0.406-6.875c-1.008-1.93-3.185-3.9-5.532-3.163
					c-0.748,0.235-1.303,1.055-1.048,1.845C231.716,196.102,232.517,196.651,233.318,196.399z"/>
				<path d="M280.91,334.578c-8.025,3.31-16.051,6.62-24.076,9.93c-1.142,0.471-2.285,0.942-3.427,1.413
					c0.633,0.482,1.266,0.964,1.899,1.446c0.421-5.482,0.842-10.964,1.262-16.446c-0.367,0.482-0.734,0.964-1.101,1.446
					c4.584-1.891,9.168-3.781,13.752-5.672c-0.486-0.129-0.973-0.257-1.459-0.386c4.163,3.592,8.326,7.183,12.489,10.775
					c1.455,1.255,3.586-0.857,2.121-2.121c-4.163-3.592-8.326-7.183-12.489-10.775c-0.374-0.323-0.956-0.594-1.459-0.386
					c-4.584,1.891-9.168,3.781-13.752,5.672c-0.665,0.274-1.045,0.717-1.101,1.446c-0.421,5.482-0.842,10.964-1.262,16.446
					c-0.069,0.894,1.028,1.806,1.899,1.446c8.025-3.31,16.051-6.62,24.076-9.93c1.142-0.471,2.285-0.942,3.427-1.413
					C283.468,336.745,282.697,333.841,280.91,334.578z"/>
				<path d="M277.896,335.987c-6.058,2.499-12.116,4.997-18.174,7.496c-0.869,0.358-1.738,0.717-2.606,1.075
					c-0.676,0.279-1.386,1.024-1.048,1.845c0.646,1.565,1.292,3.131,1.937,4.696c0.279,0.676,1.024,1.386,1.845,1.048
					c6.058-2.498,12.116-4.997,18.173-7.495c0.869-0.358,1.738-0.717,2.606-1.075c0.676-0.279,1.386-1.024,1.048-1.845
					c-0.646-1.565-1.291-3.131-1.937-4.697C279.43,336.281,278.749,335.763,277.896,335.987c-0.71,0.187-1.356,1.097-1.048,1.845
					c0.646,1.565,1.291,3.131,1.937,4.697c0.349-0.615,0.698-1.23,1.048-1.845c-6.058,2.498-12.116,4.997-18.173,7.495
					c-0.869,0.358-1.738,0.717-2.606,1.075c0.615,0.349,1.23,0.698,1.845,1.048c-0.646-1.565-1.292-3.131-1.937-4.696
					c-0.349,0.615-0.698,1.23-1.048,1.845c6.058-2.499,12.116-4.997,18.174-7.496c0.869-0.358,1.738-0.717,2.606-1.075
					c0.754-0.311,1.272-0.993,1.048-1.845C279.554,336.325,278.644,335.679,277.896,335.987z"/>
				<path d="M284.248,339.121c-8.688,3.583-17.376,7.166-26.064,10.75c-1.248,0.515-2.496,1.029-3.744,1.544
					c-0.676,0.279-1.386,1.024-1.048,1.845c1.108,2.686,2.215,5.372,3.323,8.058c0.279,0.676,1.024,1.386,1.845,1.048
					c8.688-3.583,17.376-7.166,26.064-10.75c1.248-0.515,2.496-1.029,3.744-1.544c0.676-0.279,1.386-1.024,1.048-1.845
					c-1.108-2.686-2.215-5.372-3.323-8.058c-0.726-1.76-3.629-0.989-2.893,0.798c1.108,2.686,2.215,5.372,3.323,8.058
					c0.349-0.615,0.698-1.23,1.048-1.845c-8.688,3.583-17.376,7.166-26.064,10.75c-1.248,0.515-2.496,1.029-3.744,1.544
					c0.615,0.349,1.23,0.698,1.845,1.048c-1.108-2.686-2.215-5.372-3.323-8.058c-0.349,0.615-0.698,1.23-1.048,1.845
					c8.688-3.583,17.376-7.166,26.064-10.75c1.248-0.515,2.496-1.029,3.744-1.544C286.805,341.288,286.034,338.384,284.248,339.121z
					"/>
				<path d="M261.914,360.85c6.712-2.786,13.424-5.572,20.136-8.358c0.969-0.402,1.939-0.805,2.908-1.207
					c-0.633-0.482-1.266-0.964-1.899-1.446c0.037,3.235,0.075,6.47,0.112,9.705c0.367-0.482,0.734-0.964,1.101-1.446
					c-5.664,2.329-11.329,4.659-16.993,6.988c0.486,0.129,0.973,0.257,1.459,0.386c-2.055-2.376-4.109-4.751-6.164-7.127
					c-1.265-1.463-3.379,0.667-2.121,2.121c2.055,2.376,4.109,4.751,6.164,7.127c0.312,0.361,1.007,0.572,1.459,0.386
					c5.664-2.329,11.329-4.659,16.993-6.988c0.616-0.253,1.11-0.73,1.101-1.446c-0.037-3.235-0.075-6.47-0.112-9.705
					c-0.01-0.872-0.968-1.833-1.899-1.446c-6.712,2.786-13.424,5.572-20.136,8.358c-0.969,0.402-1.939,0.805-2.908,1.207
					c-0.754,0.313-1.273,0.992-1.048,1.845C260.256,360.511,261.167,361.16,261.914,360.85z"/>
				<path d="M255.89,352.801c0.982,2.296,1.963,4.592,2.945,6.887c0.138,0.323,0.276,0.646,0.415,0.97
					c0.31,0.724,1.43,0.939,2.052,0.538c0.753-0.485,0.87-1.277,0.538-2.052c-0.982-2.296-1.963-4.592-2.945-6.887
					c-0.138-0.323-0.276-0.646-0.415-0.97c-0.31-0.724-1.43-0.939-2.052-0.538C255.676,351.234,255.559,352.026,255.89,352.801
					L255.89,352.801z"/>
				<path d="M258.361,351.661c0.982,2.296,1.963,4.592,2.945,6.887c0.138,0.323,0.276,0.646,0.415,0.97
					c0.31,0.724,1.43,0.939,2.052,0.538c0.753-0.485,0.87-1.277,0.538-2.052c-0.982-2.296-1.963-4.592-2.945-6.887
					c-0.138-0.323-0.276-0.646-0.415-0.97c-0.31-0.724-1.43-0.939-2.052-0.538C258.147,350.094,258.03,350.886,258.361,351.661
					L258.361,351.661z"/>
				<path d="M260.832,350.522c0.982,2.296,1.963,4.592,2.945,6.888c0.138,0.323,0.276,0.646,0.415,0.97
					c0.31,0.724,1.43,0.939,2.052,0.538c0.753-0.485,0.87-1.277,0.538-2.052c-0.982-2.296-1.963-4.592-2.945-6.888
					c-0.138-0.323-0.276-0.646-0.415-0.97c-0.31-0.724-1.43-0.939-2.052-0.538C260.618,348.954,260.501,349.747,260.832,350.522
					L260.832,350.522z"/>
				<path d="M263.321,349.76c0.982,2.296,1.963,4.592,2.945,6.887c0.138,0.323,0.276,0.646,0.415,0.97
					c0.31,0.724,1.43,0.939,2.052,0.538c0.753-0.485,0.87-1.277,0.538-2.052c-0.982-2.296-1.963-4.592-2.945-6.887
					c-0.138-0.323-0.276-0.646-0.415-0.97c-0.31-0.724-1.43-0.939-2.052-0.538C263.106,348.192,262.989,348.985,263.321,349.76
					L263.321,349.76z"/>
				<path d="M265.792,348.62c0.982,2.296,1.963,4.592,2.945,6.888c0.138,0.323,0.276,0.646,0.415,0.97
					c0.31,0.724,1.43,0.939,2.052,0.538c0.753-0.485,0.87-1.277,0.538-2.052c-0.982-2.296-1.963-4.592-2.945-6.888
					c-0.138-0.323-0.276-0.646-0.415-0.97c-0.31-0.724-1.43-0.939-2.052-0.538C265.577,347.053,265.46,347.845,265.792,348.62
					L265.792,348.62z"/>
				<path d="M268.263,347.48c0.982,2.296,1.963,4.592,2.945,6.888c0.138,0.323,0.276,0.646,0.415,0.97
					c0.31,0.724,1.43,0.939,2.052,0.538c0.753-0.485,0.87-1.277,0.538-2.052c-0.982-2.296-1.963-4.592-2.945-6.888
					c-0.138-0.323-0.276-0.646-0.415-0.97c-0.31-0.724-1.43-0.939-2.052-0.538C268.048,345.913,267.932,346.705,268.263,347.48
					L268.263,347.48z"/>
				<path d="M278.32,343.592c0.982,2.296,1.963,4.592,2.945,6.887c0.138,0.323,0.276,0.646,0.415,0.97
					c0.31,0.724,1.43,0.939,2.052,0.538c0.753-0.485,0.87-1.277,0.538-2.052c-0.982-2.296-1.963-4.592-2.945-6.887
					c-0.138-0.323-0.276-0.646-0.415-0.97c-0.31-0.724-1.43-0.939-2.052-0.538C278.106,342.025,277.989,342.817,278.32,343.592
					L278.32,343.592z"/>
				<path d="M270.734,346.342c0.982,2.296,1.963,4.592,2.945,6.887c0.138,0.323,0.276,0.646,0.415,0.97
					c0.31,0.724,1.43,0.939,2.052,0.538c0.753-0.485,0.87-1.277,0.538-2.052c-0.982-2.296-1.963-4.592-2.945-6.887
					c-0.138-0.323-0.276-0.646-0.415-0.97c-0.31-0.724-1.43-0.939-2.052-0.538C270.52,344.774,270.403,345.567,270.734,346.342
					L270.734,346.342z"/>
				<path d="M280.792,342.452c0.982,2.296,1.963,4.592,2.945,6.888c0.138,0.323,0.276,0.646,0.415,0.97
					c0.31,0.724,1.43,0.939,2.052,0.538c0.753-0.485,0.869-1.277,0.538-2.052c-0.982-2.296-1.963-4.592-2.945-6.888
					c-0.138-0.323-0.276-0.646-0.415-0.97c-0.31-0.724-1.43-0.939-2.052-0.538C280.577,340.885,280.46,341.677,280.792,342.452
					L280.792,342.452z"/>
				<path d="M273.343,345.524c0.942,2.202,1.883,4.403,2.825,6.605c0.133,0.31,0.265,0.62,0.398,0.93
					c0.31,0.724,1.43,0.939,2.052,0.538c0.753-0.485,0.87-1.277,0.538-2.052c-0.942-2.202-1.883-4.403-2.825-6.605
					c-0.133-0.31-0.265-0.62-0.398-0.93c-0.31-0.724-1.43-0.939-2.052-0.538C273.128,343.957,273.011,344.749,273.343,345.524
					L273.343,345.524z"/>
				<path d="M275.742,344.31c0.982,2.296,1.963,4.592,2.945,6.887c0.138,0.323,0.276,0.646,0.415,0.97
					c0.31,0.724,1.43,0.939,2.052,0.538c0.753-0.485,0.87-1.277,0.538-2.052c-0.982-2.296-1.963-4.592-2.945-6.887
					c-0.138-0.323-0.276-0.646-0.415-0.97c-0.31-0.724-1.43-0.939-2.052-0.538C275.528,342.742,275.411,343.535,275.742,344.31
					L275.742,344.31z"/>
			</g>
		</g>
		<g>
			<polygon fill-rule="evenodd" clip-rule="evenodd" points="289.017,357.809 263.67,368.264 322.583,511.106 347.93,500.652 
				289.017,357.809 			"/>
			<g>
				<path d="M288.618,356.363c-7.392,3.049-14.783,6.097-22.175,9.146c-1.058,0.436-2.115,0.872-3.173,1.309
					c-0.676,0.279-1.386,1.024-1.048,1.845c1.96,4.752,3.919,9.503,5.879,14.255c4.704,11.405,9.408,22.81,14.111,34.215
					c5.669,13.746,11.339,27.493,17.009,41.239c4.897,11.873,9.793,23.745,14.69,35.618c2.375,5.759,4.739,11.524,7.126,17.278
					c0.033,0.079,0.065,0.158,0.098,0.237c0.279,0.676,1.024,1.386,1.845,1.048c7.392-3.049,14.783-6.097,22.174-9.146
					c1.058-0.436,2.115-0.872,3.173-1.309c0.676-0.279,1.386-1.024,1.048-1.845c-1.96-4.752-3.919-9.503-5.879-14.255
					c-4.704-11.405-9.408-22.81-14.111-34.215c-5.669-13.746-11.339-27.493-17.008-41.239c-4.897-11.873-9.793-23.745-14.69-35.618
					c-2.375-5.759-4.739-11.524-7.126-17.278c-0.033-0.079-0.065-0.158-0.098-0.237c-0.726-1.76-3.63-0.989-2.893,0.798
					c1.96,4.752,3.919,9.503,5.879,14.255c4.704,11.405,9.408,22.81,14.111,34.215c5.669,13.746,11.339,27.493,17.008,41.239
					c4.897,11.873,9.793,23.745,14.69,35.618c1.605,3.892,3.211,7.785,4.816,11.677c0.749,1.817,1.342,3.886,2.31,5.601
					c0.041,0.073,0.066,0.159,0.098,0.237c0.349-0.615,0.698-1.23,1.048-1.845c-7.391,3.049-14.783,6.097-22.174,9.146
					c-1.058,0.436-2.115,0.872-3.173,1.309c0.615,0.349,1.23,0.698,1.845,1.048c-1.96-4.752-3.919-9.503-5.879-14.255
					c-4.704-11.405-9.408-22.81-14.111-34.215c-5.67-13.746-11.339-27.493-17.009-41.239c-4.897-11.873-9.793-23.745-14.69-35.618
					c-1.605-3.892-3.211-7.785-4.816-11.677c-0.749-1.817-1.342-3.886-2.31-5.601c-0.041-0.073-0.066-0.159-0.098-0.237
					c-0.349,0.615-0.698,1.23-1.048,1.845c7.392-3.049,14.783-6.097,22.175-9.146c1.058-0.436,2.115-0.872,3.173-1.309
					C291.176,358.53,290.404,355.626,288.618,356.363z"/>
			</g>
		</g>
		<path fill-rule="evenodd" clip-rule="evenodd" fill="#FF6900" d="M242.915,224.497c11.276,3.812,37.825,8.25,50.957-3.445
			c0,0-4.777-17.766-35.066-33.573c-20.319-10.604-47.517-2.936-47.517-2.936S211.692,213.942,242.915,224.497z"/>
		<g>
			<defs>
				<path id="SVGID_00000062162217830560568590000007742985471931658406_" d="M237.917,181.952
					c39.234,4.091,67.682,40.063,63.488,80.278s-39.451,69.544-78.685,65.452c-39.234-4.091-67.682-40.063-63.488-80.278
					C163.425,207.189,198.683,177.861,237.917,181.952L237.917,181.952z"/>
			</defs>
			<clipPath id="SVGID_00000113348463698991266900000017080625114467780002_">
				<use xlink:href="#SVGID_00000062162217830560568590000007742985471931658406_"  overflow="visible"/>
			</clipPath>
			<g clip-path="url(#SVGID_00000113348463698991266900000017080625114467780002_)">
				<g>
					<path fill-rule="evenodd" clip-rule="evenodd" fill="#FFFFFF" d="M162.661,222.482c0,0,9.922,2.138,14.61,8.805
						c0,0-17.694,9.073-0.419,22.275c13.83,10.569,29.169-2.407,34.952-16.255c6.471-15.494,2.853-34.374-16.443-36.062
						c-18.584-1.626-12.016,17.119-12.016,17.119s-10.159-1.242-13.711-8.371C168.882,208.483,162.661,222.482,162.661,222.482
						L162.661,222.482z"/>
					<g>
						<path d="M162.262,223.928c5.083,1.109,10.626,3.831,13.713,8.115c0.179-0.684,0.359-1.368,0.538-2.052
							c-2.354,1.215-4.532,3.068-6.148,5.153c-3.141,4.051-3.319,9.078-0.496,13.382c3.991,6.087,11.357,10.86,18.806,10.367
							c7.062-0.468,13.268-4.848,17.751-10.083c7.904-9.229,12.628-23.376,8.218-35.238c-1.936-5.207-5.706-9.498-10.828-11.749
							c-5.163-2.268-12.187-3.347-17.449-0.793c-6.219,3.019-6.645,11.455-4.617,17.263c0.054,0.154,0.095,0.313,0.149,0.468
							c0.482-0.633,0.964-1.266,1.446-1.899c0.559,0.07,0.232,0.038-0.011-0.008c-0.372-0.07-0.744-0.136-1.114-0.217
							c-1.117-0.246-2.219-0.568-3.294-0.962c-2.847-1.045-5.698-2.753-7.375-5.349c-0.658-1.019-1.254-2.441-2.757-1.793
							c-0.76,0.328-1.246,1.074-1.687,1.741c-1.319,1.998-2.345,4.212-3.382,6.364c-0.811,1.684-1.601,3.378-2.36,5.086
							c-0.778,1.749,1.807,3.277,2.59,1.514c1.55-3.486,3.146-6.994,5.047-10.304c0.222-0.387,0.449-0.773,0.695-1.146
							c0.129-0.196,0.456-0.655,0.48-0.631c0.127,0.12-0.004-0.365-0.004-0.008c0,0.073-0.306,0.168-0.355,0.184
							c-1.72,0.553-1.68-1.227-1.335-0.302c0.066,0.178,0.21,0.378,0.311,0.545c0.436,0.718,0.954,1.397,1.511,2.025
							c2.052,2.309,4.841,3.858,7.706,4.924c1.718,0.639,3.511,1.109,5.332,1.337c0.943,0.118,1.74-1.057,1.446-1.899
							c-0.529-1.517-0.863-3.342-0.984-4.633c-0.265-2.828-0.067-5.893,1.787-8.006c2.977-3.391,8.613-2.994,12.601-2.165
							c5.001,1.041,9.441,3.747,12.093,8.187c5.492,9.194,2.85,21.635-2.375,30.309c-3.277,5.44-8.072,10.611-14.081,13.004
							c-2.772,1.104-5.844,1.603-8.801,1.049c-3.48-0.652-6.466-2.5-9.085-4.826c-3.426-3.044-6.714-7.558-4.314-12.205
							c1.324-2.563,3.548-4.444,5.903-5.822c0.162-0.095,0.325-0.189,0.492-0.276c0.672-0.347,0.995-1.419,0.538-2.052
							c-3.558-4.936-9.611-8.208-15.506-9.494C161.178,220.625,160.374,223.516,162.262,223.928z"/>
					</g>
				</g>
				<g>
					<path fill-rule="evenodd" clip-rule="evenodd" fill="#FF6900" d="M182.846,218.029c4.958,3.63,20.751-0.926,12.87-9.367
						C191.325,203.959,181.161,207.053,182.846,218.029L182.846,218.029z"/>
					<g>
						<path d="M182.089,219.324c2.548,1.827,6.287,1.689,9.203,1.071c2.906-0.616,6.316-2.135,7.584-5.024
							c1.493-3.4-0.805-7.286-3.74-9.099c-2.777-1.716-6.474-1.587-9.234,0.095c-1.675,1.021-2.991,2.564-3.762,4.363
							c-1.054,2.458-1.129,5.082-0.742,7.697c0.119,0.802,1.132,1.244,1.845,1.048c0.859-0.236,1.167-1.041,1.048-1.845
							c-0.126-0.854-0.169-1.943-0.099-2.897c0.015-0.208,0.034-0.416,0.062-0.623c-0.03,0.22,0.062-0.325,0.08-0.417
							c0.085-0.418,0.195-0.831,0.332-1.235c0.028-0.083,0.231-0.607,0.116-0.335c0.068-0.161,0.144-0.319,0.222-0.475
							c0.171-0.339,0.365-0.666,0.58-0.979c0.058-0.084,0.119-0.167,0.179-0.25c0.131-0.178-0.154,0.182-0.01,0.017
							c0.118-0.135,0.232-0.274,0.355-0.405c0.242-0.257,0.505-0.486,0.771-0.716c0.206-0.178,0.011-0.006-0.031,0.024
							c0.062-0.044,0.123-0.091,0.186-0.133c0.142-0.094,0.283-0.189,0.429-0.276c0.145-0.087,0.292-0.169,0.442-0.246
							c0.092-0.047,0.614-0.272,0.249-0.128c0.583-0.23,1.175-0.388,1.793-0.49c-0.44,0.073,0.101-0.004,0.193-0.01
							c0.161-0.011,0.323-0.017,0.484-0.018c0.322-0.001,0.642,0.021,0.962,0.058c-0.42-0.048,0.02,0.01,0.127,0.032
							c0.156,0.031,0.312,0.068,0.466,0.11c0.154,0.042,0.306,0.088,0.457,0.141c0.066,0.023,0.133,0.052,0.2,0.073
							c0.289,0.088-0.259-0.135,0.034,0.012c0.254,0.128,0.508,0.25,0.751,0.4c0.137,0.085,0.266,0.18,0.4,0.268
							c0.173,0.114-0.206-0.172-0.047-0.039c0.083,0.07,0.167,0.138,0.248,0.21c0.646,0.575,1.011,1.035,1.4,1.646
							c0.105,0.165,0.205,0.334,0.298,0.507c0.029,0.055,0.236,0.478,0.163,0.316c-0.071-0.157,0.101,0.275,0.127,0.357
							c0.054,0.172,0.095,0.346,0.135,0.521c0.084,0.363,0.021-0.077,0.019,0.107c-0.002,0.13,0.016,0.262,0.014,0.393
							c-0.001,0.062-0.042,0.537-0.009,0.277c0.033-0.257-0.053,0.228-0.074,0.306c-0.037,0.135-0.089,0.264-0.13,0.398
							c0.092-0.302,0.043-0.094-0.04,0.067c-0.058,0.112-0.12,0.221-0.187,0.328c-0.079,0.126-0.343,0.457-0.099,0.166
							c-0.193,0.23-0.39,0.451-0.609,0.655c-0.1,0.094-0.205,0.182-0.309,0.272c-0.052,0.045-0.108,0.088-0.163,0.131
							c0.312-0.249,0.021-0.02-0.037,0.018c-0.548,0.363-1.105,0.676-1.7,0.956c-0.078,0.037-0.33,0.137-0.015,0.01
							c-0.072,0.029-0.145,0.06-0.218,0.087c-0.148,0.056-0.295,0.112-0.443,0.164c-0.339,0.119-0.683,0.225-1.03,0.319
							c-0.39,0.105-0.785,0.195-1.182,0.27c-0.199,0.037-0.399,0.067-0.599,0.101c-0.282,0.048-0.013,0.002,0.039-0.004
							c-0.12,0.014-0.24,0.029-0.36,0.041c-0.78,0.079-1.568,0.101-2.35,0.05c-0.187-0.012-0.374-0.036-0.561-0.049
							c-0.081-0.006-0.294-0.044,0.07,0.012c-0.108-0.017-0.215-0.032-0.323-0.051c-0.344-0.06-0.686-0.138-1.021-0.238
							c-0.144-0.043-0.286-0.093-0.428-0.142c-0.077-0.027-0.152-0.059-0.228-0.088c0.135,0.051,0.247,0.12,0.052,0.016
							c-0.285-0.151-0.562-0.297-0.825-0.486c-0.659-0.472-1.67-0.115-2.052,0.538C181.11,218.026,181.429,218.851,182.089,219.324z
							"/>
					</g>
				</g>
				<g>
					<path fill-rule="evenodd" clip-rule="evenodd" fill="#FF6900" d="M177.189,231.35c0,0,10.625,11.071,3.125,14.545
						C171.1,250.164,168.323,238.094,177.189,231.35L177.189,231.35z"/>
					<g>
						<path d="M176.129,232.411c0.306,0.32,0.598,0.655,0.886,0.992c0.311,0.365,0.612,0.737,0.911,1.112
							c0.212,0.266-0.079-0.109,0.082,0.106c0.085,0.112,0.169,0.224,0.253,0.337c0.188,0.254,0.373,0.51,0.553,0.769
							c0.748,1.075,1.421,2.199,1.97,3.39c0.028,0.061,0.055,0.123,0.082,0.185c0.094,0.216-0.081-0.205,0.004,0.013
							c0.057,0.144,0.113,0.288,0.165,0.434c0.109,0.304,0.205,0.613,0.284,0.925c0.036,0.142,0.069,0.284,0.097,0.428
							c0.013,0.063,0.076,0.483,0.052,0.284c-0.024-0.198,0.016,0.228,0.018,0.277c0.008,0.155,0.01,0.311,0.005,0.467
							c-0.002,0.062-0.038,0.478-0.011,0.256c0.027-0.217-0.04,0.194-0.052,0.244c-0.03,0.127-0.074,0.25-0.109,0.376
							c-0.087,0.314,0.109-0.122-0.07,0.157c-0.071,0.111-0.133,0.231-0.203,0.344c-0.13,0.21,0.161-0.143-0.09,0.115
							c-0.1,0.103-0.197,0.208-0.302,0.307c-0.046,0.044-0.096,0.084-0.144,0.126c-0.174,0.15,0.285-0.183-0.065,0.046
							c-0.635,0.415-1.249,0.686-1.968,0.903c-0.831,0.25-1.127,0.308-1.918,0.283c-0.134-0.004-0.267-0.014-0.4-0.027
							c0.343,0.033-0.157-0.034-0.233-0.052c-0.12-0.028-0.238-0.064-0.357-0.098c-0.077-0.023-0.153-0.052-0.229-0.08
							c0.114,0.041,0.179,0.087,0.029,0.011c-0.245-0.123-0.479-0.258-0.702-0.417c0.283,0.203-0.034-0.034-0.097-0.097
							c-0.124-0.123-0.242-0.248-0.361-0.376c-0.19-0.206,0.102,0.169-0.052-0.067c-0.076-0.116-0.153-0.23-0.223-0.35
							c-0.071-0.122-0.132-0.248-0.198-0.372c-0.129-0.242-0.021-0.032,0.002,0.022c-0.032-0.076-0.062-0.154-0.089-0.232
							c-0.098-0.282-0.181-0.568-0.243-0.86c-0.011-0.054-0.085-0.477-0.063-0.323c0.017,0.12-0.027-0.309-0.033-0.409
							c-0.091-1.557,0.253-3.012,0.925-4.386c0.869-1.777,2.141-3.314,3.713-4.526c0.641-0.494,0.984-1.29,0.538-2.052
							c-0.369-0.63-1.407-1.036-2.052-0.538c-3.295,2.54-5.81,6.122-6.115,10.37c-0.229,3.185,1.237,6.552,4.453,7.576
							c1.671,0.532,3.554,0.278,5.166-0.332c1.612-0.61,3.209-1.522,3.978-3.146c1.38-2.917,0.003-6.229-1.529-8.794
							c-1.159-1.942-2.57-3.804-4.136-5.439C176.912,228.893,174.793,231.016,176.129,232.411z"/>
					</g>
				</g>
			</g>
		</g>
	</g>
	<g clip-path="url(#SVGID_00000030460315466404759160000007673488236124877962_)">
		<g>
			<path d="M184.82,284.413c-0.852-1.287-2.378-1.453-3.798-1.278c-2.102,0.259-4.097,1.031-6.017,1.895
				c-2.31,1.039-4.527,2.317-6.584,3.795c-1.613,1.159-3.216,2.426-4.453,3.994c-0.801,1.015-1.631,2.338-1.237,3.692
				c0.433,1.491,2.031,1.948,3.419,1.879c1.965-0.098,3.88-0.789,5.676-1.544c2.354-0.989,4.609-2.211,6.724-3.642
				c1.85-1.251,3.718-2.654,5.136-4.397C184.696,287.567,185.62,286.004,184.82,284.413c-0.868-1.725-3.457-0.208-2.59,1.514
				c-0.077-0.154-0.028-0.237-0.087-0.152c0.259-0.372-0.177,0.271-0.022,0.004c-0.256,0.441-0.498,0.852-0.835,1.237
				c-1.005,1.151-2.202,2.144-3.44,3.033c-3.023,2.17-6.46,4.106-10.082,5.048c-0.528,0.137-1.067,0.265-1.614,0.292
				c-0.234,0.012-0.47,0.013-0.703-0.01c0.067,0.007-0.13-0.059-0.137-0.07c0.061,0.095,0.363,0.487,0.29,0.305
				c0.067,0.166-0.054,0.212,0.039,0.075c-0.002,0.003-0.105,0.363,0.018,0.036c0.016-0.044,0.106-0.242,0.003-0.04
				c0.048-0.095,0.092-0.192,0.147-0.284c0.129-0.213,0.258-0.425,0.409-0.623c2.005-2.623,5.196-4.522,8.055-6.05
				c1.789-0.956,3.655-1.8,5.619-2.327c0.63-0.169,1.274-0.324,1.929-0.334c0.117-0.002,0.235-0.003,0.352,0.005
				c0.454,0.03-0.183-0.072,0.203,0.036c0.187,0.052,0.014,0.058-0.145-0.182C183.29,287.53,185.89,286.029,184.82,284.413z"/>
		</g>
	</g>
	<g clip-path="url(#SVGID_00000030460315466404759160000007673488236124877962_)">
		<g>
			<path d="M299.067,241.946c-0.479-1.072-1.734-1.442-2.798-1.557c-1.249-0.134-2.558,0.092-3.765,0.401
				c-2.512,0.641-5.403,1.86-7.147,3.864c-0.688,0.79-1.274,1.838-0.989,2.924c0.279,1.065,1.221,1.741,2.264,1.958
				c2.729,0.57,5.797-0.498,8.212-1.698c1.821-0.905,5.23-2.992,4.375-5.533c-0.258-0.768-1.033-1.271-1.845-1.048
				c-0.749,0.206-1.307,1.074-1.048,1.845c0.122,0.363-0.02-0.259,0.004-0.01c-0.003-0.032,0.08-0.385,0.01-0.145
				c-0.035,0.12-0.099,0.143,0.052-0.092c-0.075,0.117-0.145,0.249-0.214,0.371c-0.014,0.025-0.135,0.175-0.026,0.039
				c0.129-0.161-0.105,0.111-0.131,0.139c-0.602,0.645-1.114,0.974-1.913,1.43c-1.773,1.012-3.946,1.801-5.912,1.844
				c-0.183,0.004-0.365-0.01-0.548-0.009c-0.288,0.002-0.105-0.001-0.024,0.01c-0.085-0.012-0.172-0.029-0.256-0.048
				c-0.081-0.018-0.584-0.118-0.184-0.032c-0.063-0.013-0.115-0.082-0.174-0.099c0.052,0.04,0.104,0.08,0.156,0.12
				c-0.086-0.09-0.085-0.083,0.001,0.021c0,0,0.122,0.242,0.096,0.14c0.079,0.301,0.043,0.302,0.039,0.16
				c0.009,0.33-0.048,0.276-0.01,0.145c0.068-0.234-0.036,0.062-0.052,0.092c0.033-0.061,0.058-0.124,0.096-0.183
				c0.039-0.061,0.083-0.125,0.118-0.187c0.134-0.234-0.097,0.098,0.026-0.032c1.205-1.27,2.876-2.147,4.66-2.747
				c1.099-0.37,2.202-0.649,3.297-0.673c0.232-0.005,0.462,0.004,0.694,0.02c-0.291-0.02,0.227,0.052,0.312,0.073
				c0.054,0.013,0.284,0.109,0.086,0.02c-0.226-0.102,0.086,0.035,0.095,0.066c-0.005-0.016-0.287-0.222-0.092-0.058
				c-0.127-0.107-0.153-0.244-0.052-0.016c0.33,0.74,1.407,0.915,2.052,0.538C299.291,243.553,299.399,242.689,299.067,241.946z"/>
		</g>
	</g>
	<g clip-path="url(#SVGID_00000030460315466404759160000007673488236124877962_)">
		<g>
			<path d="M267.19,259.325c-0.375-0.884-1.302-1.456-2.19-1.711c-1.048-0.302-2.183-0.23-3.239-0.015
				c-1.97,0.401-4.063,1.546-5.139,3.297c-0.472,0.768-0.719,1.755-0.464,2.641c0.301,1.047,1.11,1.738,2.1,2.115
				c1.97,0.75,4.415,0.098,6.177-0.897c1.671-0.945,3.664-2.945,2.906-5.072c-0.263-0.737-1.035-1.31-1.845-1.048
				c-0.727,0.235-1.33,1.054-1.048,1.845c0.005,0.015,0.03,0.126,0.047,0.143c0.006,0.024,0.012,0.049,0.017,0.073
				c-0.028-0.263-0.038-0.334-0.028-0.212c-0.006,0.053-0.014,0.449,0.011,0.147c0.029-0.341-0.076,0.189-0.075,0.197
				c-0.006-0.031,0.17-0.335,0.047-0.117c-0.038,0.067-0.071,0.135-0.11,0.201c-0.041,0.069-0.087,0.133-0.129,0.201
				c-0.103,0.163,0.041,0.029,0.053-0.064c-0.011,0.086-0.221,0.251-0.283,0.314c-0.105,0.106-0.214,0.208-0.328,0.305
				c-0.059,0.05-0.119,0.1-0.18,0.148c0.282-0.224-0.045,0.022-0.086,0.05c-0.302,0.204-0.62,0.383-0.949,0.541
				c-0.036,0.017-0.291,0.134-0.129,0.063c0.168-0.074-0.112,0.043-0.145,0.056c-0.232,0.088-0.468,0.165-0.707,0.23
				c-0.184,0.05-0.369,0.094-0.555,0.13c-0.076,0.015-0.382,0.062-0.075,0.022c-0.087,0.011-0.176,0.02-0.264,0.027
				c-0.169,0.014-0.339,0.02-0.508,0.019c-0.081-0.001-0.162-0.003-0.243-0.008c-0.059-0.003-0.118-0.007-0.177-0.013
				c-0.116-0.012-0.078-0.006,0.114,0.018c-0.116,0.019-0.309-0.06-0.423-0.093c0.014,0.004-0.194-0.054-0.195-0.063
				c-0.001-0.023,0.291,0.152,0.089,0.037c-0.05-0.029-0.11-0.065-0.164-0.09c-0.267-0.123,0.169,0.183,0.051,0.052
				c-0.036-0.039-0.081-0.088-0.124-0.118c-0.127-0.091,0.162,0.289,0.056,0.072c-0.183-0.372,0.057,0.252-0.015-0.045
				c-0.043-0.178-0.001,0.357,0.02,0.176c0.005-0.048,0-0.104-0.003-0.153c-0.015-0.255,0.107,0.033-0.023,0.126
				c0.011-0.008,0.038-0.159,0.038-0.158c0.01-0.031,0.056-0.139,0.052-0.16c0.022,0.112-0.152,0.312-0.006,0.037
				c0.06-0.112,0.131-0.215,0.198-0.322c0.102-0.163-0.041-0.029-0.053,0.064c0.004-0.029,0.127-0.148,0.136-0.158
				c0.097-0.108,0.2-0.211,0.306-0.31c0.055-0.051,0.112-0.102,0.169-0.151c0.104-0.089,0.272-0.198,0.066-0.057
				c0.297-0.202,0.592-0.396,0.911-0.562c0.078-0.041,0.157-0.08,0.237-0.118c0.036-0.017,0.291-0.134,0.129-0.063
				c-0.203,0.09,0.246-0.094,0.216-0.083c0.117-0.043,0.235-0.083,0.354-0.12c0.23-0.073,0.463-0.135,0.7-0.185
				c0.091-0.019,0.184-0.03,0.274-0.053c0.177-0.045-0.217,0.013,0.07-0.012c0.213-0.018,0.425-0.033,0.639-0.031
				c0.081,0.001,0.162,0.003,0.243,0.008c0.059,0.003,0.118,0.007,0.177,0.013c0.116,0.012,0.078,0.006-0.114-0.018
				c0.029,0.046,0.448,0.106,0.521,0.123c0.231,0.053-0.101,0.026-0.079-0.045c0.002-0.006,0.24,0.125,0.25,0.13
				c0.151,0.071,0.004,0.111-0.084-0.08c0.02,0.043,0.12,0.12,0.157,0.147c0.139,0.099-0.174-0.319-0.056-0.072
				c0.036,0.075,0.078,0.146,0.111,0.223c0.308,0.725,1.431,0.938,2.052,0.538C267.406,260.891,267.519,260.101,267.19,259.325z"/>
		</g>
	</g>
	<g clip-path="url(#SVGID_00000030460315466404759160000007673488236124877962_)">
		<g>
			<path d="M222.138,274.107c-0.949-1.638-3.195-1.404-4.779-1.164c-2.939,0.445-5.8,1.498-8.544,2.606
				c-6.177,2.496-12.677,5.597-17.704,10.062c-1.167,1.037-2.842,2.65-2.407,4.401c0.426,1.717,2.393,1.961,3.87,1.842
				c2.761-0.222,5.477-1.153,8.052-2.118c3.583-1.343,7.074-2.958,10.436-4.784c3.033-1.647,6.053-3.464,8.673-5.727
				c1.194-1.031,3.288-2.939,2.552-4.76c-0.714-1.767-3.617-0.995-2.893,0.798c0.007,0.018,0.103-0.158,0.002-0.081
				c0.183-0.139-0.188,0.304-0.282,0.432c-0.44,0.596-1.124,1.175-1.713,1.67c-1.826,1.536-3.888,2.81-5.946,4.006
				c-5.075,2.949-10.571,5.58-16.274,7.052c-0.779,0.201-1.575,0.394-2.376,0.488c-0.351,0.041-0.707,0.062-1.061,0.054
				c0.015,0-0.562-0.056-0.272-0.013c-0.231-0.034-0.211-0.173-0.141-0.017c-0.127-0.285,0.425,0.811,0.307,0.558
				c0.07,0.15-0.11,0.259,0.11-0.09c0.331-0.523,0.813-0.98,1.288-1.415c3.947-3.616,9.14-6.16,13.971-8.346
				c2.861-1.295,5.817-2.461,8.863-3.247c0.923-0.238,1.873-0.471,2.828-0.527c0.171-0.01,0.341-0.014,0.512-0.015
				c0.069,0,0.592,0.047,0.368,0.014c0.44,0.065,0.15,0.149-0.032-0.165C220.516,277.29,223.109,275.782,222.138,274.107z"/>
		</g>
	</g>
	<g clip-path="url(#SVGID_00000030460315466404759160000007673488236124877962_)">
		<g>
			<path d="M168.477,211.049c-0.477-0.844-1.216-1.524-1.971-2.116c-0.907-0.711-1.86-1.35-2.851-1.938
				c-1.15-0.683-2.333-1.322-3.544-1.89c0.23,0.565,0.46,1.129,0.689,1.694c0.038-0.133,0.09-0.261,0.128-0.393
				c0.06-0.152,0.053-0.138-0.023,0.044c0.032-0.073,0.065-0.145,0.099-0.217c0.127-0.27,0.267-0.533,0.414-0.793
				c0.33-0.585,0.696-1.15,1.076-1.704c0.317-0.462,0.646-0.916,0.983-1.363c0.049-0.065,0.099-0.13,0.148-0.195
				c0.096-0.124,0.059-0.077-0.111,0.143c0.022-0.029,0.045-0.058,0.068-0.087c0.042-0.017,0.096-0.122,0.128-0.162
				c-0.707,0-1.414,0-2.121,0c0.808,0.735,1.64,1.445,2.493,2.127c0.679,0.543,1.366,1.087,2.099,1.556
				c0.591,0.379,1.271,0.758,1.993,0.755c0.811-0.003,1.5-0.687,1.5-1.5c0-0.811-0.686-1.503-1.5-1.5
				c-0.154,0.001,0.331,0.091,0.247,0.039c-0.029-0.018-0.103-0.006-0.127-0.034c-0.011-0.012-0.309-0.118,0.005,0.008
				c0.261,0.105,0.046,0.019-0.012-0.014c-0.256-0.144-0.509-0.289-0.754-0.452c-0.296-0.197-0.583-0.406-0.867-0.619
				c-0.045-0.034-0.353-0.272-0.057-0.041c-0.06-0.047-0.121-0.094-0.181-0.141c-0.165-0.13-0.329-0.262-0.492-0.394
				c-0.758-0.617-1.503-1.253-2.226-1.911c-0.549-0.5-1.595-0.657-2.121,0c-1.433,1.788-3.043,3.817-3.681,6.05
				c-0.168,0.589,0.101,1.418,0.689,1.694c1.136,0.533,2.247,1.131,3.33,1.764c0.885,0.518,1.747,1.072,2.571,1.683
				c-0.285-0.211,0.034,0.027,0.072,0.058c0.09,0.072,0.178,0.146,0.266,0.221c0.166,0.142,0.328,0.288,0.483,0.441
				c0.142,0.14,0.267,0.295,0.406,0.437c0.202,0.206-0.161-0.288,0.01,0.018c0.047,0.083,0.104,0.162,0.151,0.245
				c0.398,0.705,1.36,0.943,2.052,0.538C168.649,212.686,168.877,211.757,168.477,211.049L168.477,211.049z"/>
		</g>
	</g>
	<circle clip-path="url(#SVGID_00000030460315466404759160000007673488236124877962_)" cx="219.392" cy="119.036" r="1.279"/>
	<circle clip-path="url(#SVGID_00000030460315466404759160000007673488236124877962_)" cx="206.702" cy="128.419" r="1.279"/>
	<circle clip-path="url(#SVGID_00000030460315466404759160000007673488236124877962_)" cx="226.615" cy="138.907" r="1.279"/>
	<circle clip-path="url(#SVGID_00000030460315466404759160000007673488236124877962_)" cx="227.894" cy="111.41" r="1.279"/>
	<circle clip-path="url(#SVGID_00000030460315466404759160000007673488236124877962_)" cx="267.162" cy="141.464" r="1.279"/>
	<circle clip-path="url(#SVGID_00000030460315466404759160000007673488236124877962_)" cx="263.629" cy="125.204" r="1.279"/>
	<circle clip-path="url(#SVGID_00000030460315466404759160000007673488236124877962_)" cx="238.166" cy="142.743" r="1.279"/>
	<circle clip-path="url(#SVGID_00000030460315466404759160000007673488236124877962_)" cx="207.981" cy="166.457" r="1.279"/>
	<circle clip-path="url(#SVGID_00000030460315466404759160000007673488236124877962_)" cx="190.637" cy="166.457" r="1.279"/>
	<circle clip-path="url(#SVGID_00000030460315466404759160000007673488236124877962_)" cx="210.538" cy="171.21" r="1.279"/>
	<circle clip-path="url(#SVGID_00000030460315466404759160000007673488236124877962_)" cx="182.749" cy="178.079" r="1.279"/>
	<circle clip-path="url(#SVGID_00000030460315466404759160000007673488236124877962_)" cx="134.679" cy="245.222" r="1.279"/>
	<circle clip-path="url(#SVGID_00000030460315466404759160000007673488236124877962_)" cx="125.373" cy="254.891" r="1.279"/>
	<circle clip-path="url(#SVGID_00000030460315466404759160000007673488236124877962_)" cx="143.09" cy="265.734" r="1.279"/>
	<circle clip-path="url(#SVGID_00000030460315466404759160000007673488236124877962_)" cx="134.679" cy="270.845" r="1.279"/>
	<circle clip-path="url(#SVGID_00000030460315466404759160000007673488236124877962_)" cx="122.816" cy="274.171" r="1.279"/>
	<circle clip-path="url(#SVGID_00000030460315466404759160000007673488236124877962_)" cx="128.448" cy="278.135" r="1.279"/>
	<circle clip-path="url(#SVGID_00000030460315466404759160000007673488236124877962_)" cx="242.938" cy="132.468" r="1.279"/>
	<circle clip-path="url(#SVGID_00000030460315466404759160000007673488236124877962_)" cx="234.389" cy="120.315" r="1.279"/>
	<circle clip-path="url(#SVGID_00000030460315466404759160000007673488236124877962_)" cx="206.702" cy="112.071" r="1.279"/>
	<circle clip-path="url(#SVGID_00000030460315466404759160000007673488236124877962_)" cx="280.333" cy="166.457" r="1.279"/>
	<circle clip-path="url(#SVGID_00000030460315466404759160000007673488236124877962_)" cx="287.435" cy="160.226" r="1.279"/>
	<circle clip-path="url(#SVGID_00000030460315466404759160000007673488236124877962_)" cx="284.162" cy="144.022" r="1.279"/>
	<circle clip-path="url(#SVGID_00000030460315466404759160000007673488236124877962_)" cx="294.278" cy="170.294" r="1.279"/>
	<circle clip-path="url(#SVGID_00000030460315466404759160000007673488236124877962_)" cx="304.608" cy="185.49" r="1.279"/>
	<circle clip-path="url(#SVGID_00000030460315466404759160000007673488236124877962_)" cx="314.763" cy="200.431" r="1.279"/>
	<circle clip-path="url(#SVGID_00000030460315466404759160000007673488236124877962_)" cx="328.169" cy="190.18" r="1.279"/>
	<circle clip-path="url(#SVGID_00000030460315466404759160000007673488236124877962_)" cx="309.156" cy="169.015" r="1.279"/>
	<circle clip-path="url(#SVGID_00000030460315466404759160000007673488236124877962_)" cx="323.401" cy="177.071" r="1.279"/>
	<circle clip-path="url(#SVGID_00000030460315466404759160000007673488236124877962_)" cx="342.919" cy="177.071" r="1.279"/>
	<circle clip-path="url(#SVGID_00000030460315466404759160000007673488236124877962_)" cx="331.451" cy="166.457" r="1.279"/>
	<circle clip-path="url(#SVGID_00000030460315466404759160000007673488236124877962_)" cx="307.877" cy="152.777" r="1.279"/>
	<circle clip-path="url(#SVGID_00000030460315466404759160000007673488236124877962_)" cx="254.29" cy="151.498" r="1.279"/>
	<circle clip-path="url(#SVGID_00000030460315466404759160000007673488236124877962_)" cx="270.245" cy="158.947" r="1.279"/>
	<circle clip-path="url(#SVGID_00000030460315466404759160000007673488236124877962_)" cx="276.308" cy="132.468" r="1.279"/>
	<circle clip-path="url(#SVGID_00000030460315466404759160000007673488236124877962_)" cx="248.529" cy="119.036" r="1.279"/>
	<circle clip-path="url(#SVGID_00000030460315466404759160000007673488236124877962_)" cx="320.843" cy="157.668" r="1.279"/>
	<g clip-path="url(#SVGID_00000030460315466404759160000007673488236124877962_)">
		<defs>
			<path id="SVGID_00000108284991847323420880000010682892370332031877_" d="M220.671,194.713c5.162-0.895,10.52-1.101,15.971-0.533
				l0,0c19.466,2.03,35.742,13.49,44.972,29.507"/>
		</defs>
		<clipPath id="SVGID_00000167361849222621312890000000752643950042460080_">
			<use xlink:href="#SVGID_00000108284991847323420880000010682892370332031877_"  overflow="visible"/>
		</clipPath>
		
			<use xlink:href="#SVGID_00000108284991847323420880000010682892370332031877_"  overflow="visible" fill-rule="evenodd" clip-rule="evenodd" fill="none" stroke="#FFFFFF" stroke-width="2.1" stroke-linecap="round" stroke-linejoin="round" stroke-miterlimit="10"/>
	</g>
	<g clip-path="url(#SVGID_00000030460315466404759160000007673488236124877962_)">
		<defs>
			<path id="SVGID_00000124865926768314894360000014785905522079828899_" d="M247.326,204.592
				c20.166,7.061,34.247,26.404,34.782,48.591"/>
		</defs>
		<clipPath id="SVGID_00000081637255409399928510000000019614208387174050_">
			<use xlink:href="#SVGID_00000124865926768314894360000014785905522079828899_"  overflow="visible"/>
		</clipPath>
		
			<use xlink:href="#SVGID_00000124865926768314894360000014785905522079828899_"  overflow="visible" fill-rule="evenodd" clip-rule="evenodd" fill="none" stroke="#FFFFFF" stroke-width="2.1" stroke-linecap="round" stroke-linejoin="round" stroke-miterlimit="10"/>
	</g>
</g>
</svg>
