<svg id="Layer_1" style="enable-background:new 0 0 70 70;" version="1.1" viewBox="0 0 70 70" x="0px" xml:space="preserve" xmlns="http://www.w3.org/2000/svg" xmlns:xlink="http://www.w3.org/1999/xlink" y="0px">
<style type="text/css">
	.st0{fill:#FF6900;}
	.st1{fill:#FFFFFF;}
</style>
<g>
<g>
<path class="st0" d="M32.6,3c18.6,0,32.9,12.8,32.9,31.8C65.5,53.9,51.2,67,32.6,67H11.7C7.5,67,4,64.2,4,59.3V11
			c0-4.9,3.5-8,7.7-8H32.6z"></path>
<path d="M54,27.9c-0.1,0.8-1,0.8-1.4,0.1c-1.3-2.2-3-2.6-5.7-2.8c-2-0.1-4.4,0.1-6.6,0.1c-0.4,0-0.5-0.3-0.5-0.4
			c0.4-1.9,2-5.4,3.7-5.7c0.8-0.1,2.6-0.3,3.6-0.3C51.7,18.9,54.2,24.2,54,27.9 M28,46c2.9,0.8,7,1.3,10.4,1
			c5.9-0.4,10.4-2.6,12.9-4.2c-1.5,3.8-7.2,6.2-12.6,6.8c0,0.3-0.1,0.5-0.1,0.8c4.1-0.2,8-1.6,9.8-2.8c-1,3.7-6,5.2-10.6,5.5
			c-0.1,0.3-0.3,0.6-0.4,0.8c2.7,0,5.2-0.4,6.7-0.9C42,56.9,33,59.6,25.4,56C27.1,52.6,27.9,49.2,28,46 M53.1,19.4
			c-1.8-1.7-4.2-2.5-6.3-2.4c-3,0-5.5,0.8-9.2,0.9c-2.5,0.1-4.8-5.4-7.8-6.1c-1.3-2.9-4.3-3.3-6.1-1.8c-1.7-1-4.3-0.5-4.4,1.4
			c-1.9-0.6-4.4,0.4-3.3,3c-4.7,0.1-5.5,4.3-2.4,4.7c-4.1,2.3-2.2,6.3,1.2,5.5c0.6,6,3.3,13.8-1.1,15.7c-0.5,0.2-2.5,0.7-6.3-0.2
			c-1.1-0.3-2.3-0.6-3.4-0.9v3.1c3.3,0.8,6.6,1.4,8.7,1.2c5.8-0.6,6.1-5.4,5.8-9.6c-0.3-4.1-1.7-8.9-1.2-12.3l-0.2-0.2
			c-2.1,2.2-3.5,1.6-3.7,0.9c-0.3-1.4,2.2-3.2,3.6-3.8c0-0.1,0.1-0.2,0.1-0.3c-1.3,0.2-2.9,0-3-0.9c-0.1-1.1,2.2-2.2,5.2-1.9
			c0.1,0,0.1-0.1,0.2-0.1c-0.2-0.1-0.4-0.2-0.6-0.3c-0.8-0.4-1-1.1-0.7-1.5c0.3-0.5,1.1-0.7,1.8-0.7c1.1,0,2,0.3,2.7,0.6
			c0.1,0,0.1-0.1,0.2-0.1c-0.2-0.2-0.5-0.4-0.6-0.6c-0.2-0.3-0.2-0.8,0.1-1c0.4-0.3,1.5-0.4,2.4,0.4c0.2,0.2,0.4,0.4,0.5,0.5
			c0.1,0,0.2,0,0.3-0.1c-0.2-0.2-0.3-0.5-0.3-0.7c-0.1-0.3,0-0.7,0.4-0.8s0.9,0.1,1.2,0.5s0.5,1,0.6,1.3c-2.1,0.2-4.6,1-6.1,3.1l0,0
			l0,0c-1.5,2-2.1,5.2-1.2,8.2c0.6,3.1,1.8,6,2.9,9l0,0c0,0,0,0,0,0.1l0,0c2.4,6.9,7,23.9-15.3,32.9c0.8,0.5,2.4,0.9,3.7,0.9h2.3
			c4.6-2.4,7.7-5.3,9.9-8.2c10.2,4.5,19.5,2.2,23.5-5.2c2.7-1.6,4.4-4.9,4.5-7.2c1.7-2.1,2-4.7,1.5-6.5c-0.1-0.4-0.5-0.4-1.1-0.1
			c-8.3,5-15.6,5.8-24.3,3.2c-0.2-3.4-0.9-6.3-1.2-8.1c-0.2-3.5,0.9-5.2,7.3-3.1c4.2,1.1,6.1,3,7.6,4c0.7,0.5,1.6,1.1,2.1,0.7
			c0.3-0.2,0.4-0.8,0.4-1.5c-0.1-1.9-1-5.1-1.8-6.3c2.5-0.1,4.6-0.1,5.7,0c2.4,0.4,2.6,1.7,2.9,2.2c0.7,2,4.6,1.5,4.9-0.2
			C56.3,27.2,56.5,22.6,53.1,19.4 M8.7,49.4c-1.6-0.1-3.2-0.1-4.7,0v2.1c2.7-0.6,4.4-0.9,4.4-0.9L8.7,49.4z"></path>
<path class="st1" d="M33.7,27.5c-3.5-0.8-7.4-1.8-9.4-4.8c0-0.1-0.1-0.1-0.2-0.1S24,22.7,24,22.7c0,0.2,0,0.3,0.1,0.5l-0.3,0.1
			c-0.5-0.8-0.7-1.7-0.1-2.4c0.8-1,2.3-0.9,3.3-0.3l-0.1,0.3c-0.5-0.1-1-0.1-1.4,0.1c-0.3,0.2-0.4,0.5-0.2,0.8
			C27,25,32,25.7,37.9,25.2c0.6,0,0.7-0.3,0.8-0.6c0.5-2,1.4-3.9,2.8-5.3c-1.1,0.2-2.1,0.2-2.9,0.2c-3,0.2-4.8-0.2-5.3-0.6l0.1-0.3
			c0.3,0.1,0.7,0.1,0.7,0c0.1-0.1,0-0.2-0.1-0.3c-0.6-0.5-3.2-3.2-3.2-3.2c-0.3-2.3-3.6-2.3-4.9-0.1l-0.4-0.1
			c0.1-0.5,0.3-0.9,0.5-1.2c-2.7,0.6-4.3,3.1-4.6,5.4C20.2,29.3,35.7,26.9,40.1,31c0.1,0.1,0.3,0.4,0.4,0.2
			C40.7,31,38.7,28.6,33.7,27.5 M28.3,15.3c0.7-0.2,1.8,0.5,2.3,1.6c0.6,1.1,0.4,2.2-0.3,2.5s-1.8-0.5-2.3-1.6
			c-0.1-0.2-0.1-0.3-0.2-0.5h0.1c0.2,0.2,0.5,0.3,0.7,0.2c0.3-0.2,0.2-0.6,0-1c-0.2-0.3-0.5-0.6-0.8-0.6l-0.1-0.1
			C27.9,15.5,28.1,15.4,28.3,15.3"></path>
<path class="st1" d="M51.3,42.8c-2.5,1.6-7,3.8-12.9,4.2C35,47.2,31,46.8,28,46c0,1-0.1,2-0.3,3c1.7,0.4,4.6,1,8.9,1.1
			c-0.2,1.1-1.4,5.1-4.3,7.6c5.4,0.2,10.3-1.9,11.8-4.7c-1.5,0.5-4.1,1-6.7,0.9c0.1-0.3,0.3-0.5,0.4-0.8c4.6-0.2,9.6-1.7,10.6-5.5
			c-1.8,1.2-5.7,2.6-9.8,2.8c0-0.3,0.1-0.5,0.1-0.8C44.1,48.9,49.8,46.6,51.3,42.8"></path>
</g>
</g>
</svg>